<?xml version="1.0" encoding="utf-8"?>
<!-- Generator: Adobe Illustrator 19.0.0, SVG Export Plug-In . SVG Version: 6.00 Build 0)  -->
<!DOCTYPE svg PUBLIC "-//W3C//DTD SVG 1.1//EN" "http://www.w3.org/Graphics/SVG/1.1/DTD/svg11.dtd">
<svg version="1.1" id="Layer_1" xmlns="http://www.w3.org/2000/svg" xmlns:xlink="http://www.w3.org/1999/xlink" x="0px" y="0px"
	 viewBox="0 0 100 100" enable-background="new 0 0 100 100" xml:space="preserve">
<path id="XMLID_88_" fill="#212121" d="M92.2,40.8c0,11.1-5.8,20.8-14.6,26.2c-1.1-2.7-8.3-20.4-8.7-22.4C65.6,38.2,55.6,32,55.6,32
	l-18-10.7C43.2,14.4,51.8,10,61.4,10C78.4,10,92.2,23.8,92.2,40.8z"/>
<path id="XMLID_87_" opacity="0.5" fill="none" stroke="#E6E6E6" stroke-miterlimit="10" d="M40,22.9c4.2-5,10.2-8.5,17.2-9.6
	c15.3-2.4,29.7,8,32.1,23.2c1.8,11.2-3.5,21.9-12.5,27.7"/>
<path fill="#989898" d="M89.3,39.2l-2.5,0.2l0-0.2l2.5-0.2L89.3,39.2z M89.4,40.4l-2.5,0c0-0.1,0-0.1,0-0.2l2.5-0.1
	C89.4,40.2,89.4,40.3,89.4,40.4z M89.4,41.6l-2.5-0.1l0-0.2l2.5,0C89.4,41.4,89.4,41.5,89.4,41.6z M89.3,42.7l-2.5-0.2l0-0.2
	l2.5,0.1C89.3,42.6,89.3,42.7,89.3,42.7z M89.2,43.9l-2.4-0.3l0-0.2l2.5,0.3L89.2,43.9z M89,45.1l-2.4-0.4l0-0.2l2.4,0.4L89,45.1z
	 M88.8,46.2l-2.4-0.5l0-0.2l2.4,0.5L88.8,46.2z M88.6,47.4l-2.4-0.6l0.1-0.2l2.4,0.6L88.6,47.4z M88.3,48.5l-2.4-0.7l0.1-0.2
	l2.4,0.7C88.3,48.4,88.3,48.4,88.3,48.5z M87.9,49.6l-2.3-0.8l0.1-0.2l2.3,0.8L87.9,49.6z M87.5,50.7l-2.3-0.9l0.1-0.2l2.3,0.9
	L87.5,50.7z M87.1,51.8l-2.3-1l0.1-0.2l2.3,1L87.1,51.8z M86.6,52.9l-2.2-1.1l0.1-0.2l2.2,1.1L86.6,52.9z M86.1,53.9l-2.2-1.2
	l0.1-0.2l2.2,1.2L86.1,53.9z M85.6,54.8L85.5,55l-2.1-1.3l0.1-0.2L85.6,54.8z M85,55.8L84.9,56l-2.1-1.3l0.1-0.2L85,55.8z
	 M83.7,57.7l-0.1,0.2l-1.9-1.5l0.1-0.2L83.7,57.7z M83,58.6l-0.1,0.2l-1.9-1.6l0.1-0.2L83,58.6z M82.2,59.5
	c-0.1,0.1-0.1,0.1-0.2,0.2L80.2,58l0.1-0.2L82.2,59.5z M81.4,60.4l-0.2,0.2l-1.7-1.8l0.1-0.2L81.4,60.4z M80.5,61.2l-0.2,0.2
	l-1.7-1.8l0.2-0.1L80.5,61.2z M79.7,62l-0.2,0.2l-1.6-1.9l0.2-0.1L79.7,62z M78.8,62.7l-0.2,0.1l-1.5-2l0.2-0.1L78.8,62.7z
	 M77.8,63.4c-0.1,0-0.1,0.1-0.2,0.1l-1.4-2l0.2-0.1L77.8,63.4z"/>
<path fill="#989898" d="M40.8,22.1c0.1-0.1,0.1-0.1,0.2-0.2l1.8,1.8l-0.1,0.2L40.8,22.1z M41.6,21.2l0.2-0.2l1.7,1.8L43.4,23
	L41.6,21.2z M42.5,20.4l0.2-0.2l1.7,1.9l-0.2,0.1L42.5,20.4z M43.4,19.6l0.2-0.2l1.6,2L45,21.5L43.4,19.6z M44.3,18.8l0.2-0.1l1.5,2
	l-0.2,0.1L44.3,18.8z M45.2,18.1c0.1,0,0.1-0.1,0.2-0.1l1.4,2.1l-0.2,0.1L45.2,18.1z M46.2,17.5c0.1,0,0.1-0.1,0.2-0.1l1.3,2.2
	l-0.2,0.1L46.2,17.5z M47.2,16.8l0.2-0.1l1.2,2.2L48.5,19L47.2,16.8z M48.3,16.3l0.2-0.1l1.1,2.3l-0.2,0.1L48.3,16.3z M49.3,15.7
	l0.2-0.1l1,2.3L50.4,18L49.3,15.7z M50.4,15.2l0.2-0.1l1,2.4l-0.2,0.1L50.4,15.2z M51.5,14.8l0.2-0.1l0.9,2.4l-0.2,0.1L51.5,14.8z
	 M52.6,14.4l0.2-0.1l0.8,2.4l-0.2,0.1L52.6,14.4z M53.7,14.1l0.2-0.1l0.7,2.5l-0.2,0.1L53.7,14.1z M54.9,13.8l0.2-0.1l0.6,2.5
	l-0.2,0L54.9,13.8z M86.2,34.1l2.4-0.8l0.1,0.2l-2.4,0.8L86.2,34.1z M56,13.5c0.1,0,0.2,0,0.2,0l0.5,2.5l-0.2,0L56,13.5z M85.8,33.1
	l2.3-0.9l0.1,0.2l-2.3,0.9L85.8,33.1z M57.2,13.3c0.1,0,0.2,0,0.2,0l0.4,2.5c-0.1,0-0.1,0-0.2,0L57.2,13.3z M85.4,32.1l2.3-1
	l0.1,0.2l-2.3,0.9L85.4,32.1z M58.3,13.2l0.2,0l0.3,2.5l-0.2,0L58.3,13.2z M85,31l2.2-1.1l0.1,0.2l-2.3,1L85,31z M59.5,13.1
	c0.1,0,0.2,0,0.2,0l0.1,2.5l-0.2,0L59.5,13.1z M84.5,30.1l2.2-1.2l0.1,0.2l-2.2,1.1L84.5,30.1z M60.7,13l0.2,0l0,2.5l-0.2,0L60.7,13
	z M84,29.1l2.2-1.3l0.1,0.2l-2.2,1.2L84,29.1z M61.9,13l0.2,0L62,15.6l-0.2,0L61.9,13z M83.4,28.1l2.1-1.3l0.1,0.2l-2.1,1.3
	L83.4,28.1z M63,13.1l0.2,0l-0.2,2.5l-0.2,0L63,13.1z M82.9,27.2l2-1.4L85,26L83,27.4L82.9,27.2z M64.2,13.2l0.2,0l-0.3,2.5l-0.2,0
	L64.2,13.2z M82.2,26.3l2-1.5l0.1,0.2l-2,1.5L82.2,26.3z M65.4,13.3l0.2,0l-0.4,2.5l-0.2,0L65.4,13.3z M81.6,25.5l1.9-1.6l0.1,0.2
	l-1.9,1.6L81.6,25.5z M66.6,13.5l0.2,0l-0.5,2.5l-0.2,0L66.6,13.5z M80.9,24.6l1.8-1.7l0.2,0.2L81,24.8L80.9,24.6z M67.7,13.8
	l0.2,0.1l-0.6,2.5l-0.2-0.1L67.7,13.8z M80.1,23.8l1.8-1.8l0.2,0.2L80.3,24L80.1,23.8z M68.9,14.1l0.2,0.1l-0.7,2.4l-0.2-0.1
	L68.9,14.1z M79.4,23l1.7-1.8l0.2,0.2l-1.7,1.8L79.4,23z M70,14.4l0.2,0.1l-0.8,2.4l-0.2-0.1L70,14.4z M78.6,22.3l1.6-1.9l0.2,0.2
	l-1.6,1.9L78.6,22.3z M71.1,14.8l0.2,0.1l-0.9,2.4l-0.2-0.1L71.1,14.8z M77.7,21.6l1.6-2l0.2,0.2l-1.6,2L77.7,21.6z M72.2,15.3
	l0.2,0.1l-1,2.3l-0.2-0.1L72.2,15.3z M76.9,20.9l1.5-2l0.2,0.1l-1.5,2L76.9,20.9z M73.3,15.8l0.2,0.1l-1.1,2.3l-0.2-0.1L73.3,15.8z
	 M76,20.3l1.4-2.1l0.2,0.1l-1.4,2.1L76,20.3z M74.4,16.3l0.2,0.1l-1.1,2.3l-0.2-0.1L74.4,16.3z M75.4,16.9l0.2,0.1l-1.2,2.2
	l-0.2-0.1L75.4,16.9z"/>
<rect id="XMLID_12_" x="86.4" y="34.6" transform="matrix(0.9602 -0.2795 0.2795 0.9602 -6.2117 25.8865)" fill="#989898" width="2.5" height="0.2"/>
<rect id="XMLID_11_" x="86.6" y="35.7" transform="matrix(0.9669 -0.255 0.255 0.9669 -6.2387 23.5905)" fill="#989898" width="2.5" height="0.2"/>
<rect id="XMLID_10_" x="86.9" y="37.8" transform="matrix(0.995 -0.1002 0.1002 0.995 -3.3569 9.03)" fill="#989898" width="2.5" height="0.2"/>
<polygon id="XMLID_9_" fill="#CCCCCC" points="80.9,54.8 81.2,54.4 84.5,56.6 84,57.3 "/>
<polygon id="XMLID_8_" fill="#CCCCCC" points="85.5,37.8 85.4,37.3 89.1,36.5 89.2,37.4 "/>
<polygon id="XMLID_7_" fill="#CCCCCC" points="57.1,17.8 56.6,17.8 55.8,13.6 56.6,13.5 "/>
<polygon id="XMLID_6_" fill="#CCCCCC" points="74.4,21.5 74,21.2 76.2,17.1 76.9,17.6 "/>
<path id="XMLID_5_" fill="none" stroke="#F15F43" stroke-width="1.5" stroke-miterlimit="10" d="M39.3,22.1
	c4.4-5.1,10.5-8.7,17.6-9.9c15.9-2.5,30.7,8.4,33.2,24.2c1.8,11.8-3.7,23.1-13.2,29.1"/>
<path id="XMLID_4_" opacity="0.4" d="M91.9,38.2C91.5,54,85.7,60.9,77.4,66.6c-0.2-0.5-0.5-1.3-0.9-2.3c-2.4-5.8-7.3-18-7.6-19.7
	c-0.9-1.7-2.2-3.4-3.7-5l0-0.1L77,24.8L91.9,38.2z"/>
<g>
	<path id="XMLID_3_" fill="#FFFFFF" d="M77.5,25.6L77,26.4l-0.9,1.3l0,0l-9.2,13.9c-0.5-0.7-1.1-1.3-1.7-2c-0.4-0.4-0.8-0.8-1.2-1.2
		c-0.9-0.9-2.1-1.7-3-2.4L77.5,25.6z"/>
	<path id="XMLID_2_" opacity="0.5" fill="#808080" d="M77.4,25.7L77,26.4L66.7,42.1l0.2-0.5c-0.5-0.7-1.1-1.3-1.7-2
		c-0.4-0.4-0.8-0.8-1.2-1.2L77.4,25.7z"/>
</g>
<path id="XMLID_1_" fill="#212121" d="M98.4,81.6c0,0.5-2.1,5-2.4,5.3c-0.1,0.1-0.2-2.1-0.2-2.2c0-0.2-4.9-1.9-5.8-1.9
	c-2.6,0-10.6-0.6-13.2-0.7c-1-0.1-4.8,1.4-7.4,2.1c-0.1,0.1-0.1,0.2-0.2,0.3c-0.2,0.2-0.6,0.3-0.8,0.5c-0.2,0.2-0.4,0.3-0.8,0.2
	c-0.3-0.1-0.7-0.2-1-0.2c-0.3-0.1-0.5-0.1-0.7,0.1c-0.1,0.1-0.3,0.1-0.5,0c-1.1-0.1-0.3,0.5,1.1,1c0.3,0.1,0.7,0.1,1.1,0.1
	c1,0.1,2.1,0.1,3.1,0.2c0.2,0,0.3,0,0.5-0.1c0.1,0,0.3,0,0.4,0c0.6,0.1,1.3,0.2,1.9,0.4c0.4,0.1,0.8,0.4,1.2,0.7
	c0.7,0.5,1.4,0.9,2.1,1.4c0.3,0.2,0.4,0.4,0.4,0.6c0.1,0.7,0.1,1.3,0.2,2c0,0.5-0.1,0.9-0.4,1.2c-0.2,0.2-0.3,0.4-0.5,0.5
	c-0.1-0.2-0.1-0.5-0.2-0.7C76,91.8,75.9,91,76,90.3c0-0.3-0.1-0.5-0.4-0.6c-0.2-0.1-0.4-0.2-0.6-0.3c-0.3-0.2-0.6-0.4-1-0.4
	c-0.6-0.1-1.1-0.3-1.7-0.4c-0.2,0-0.3,0-0.5-0.1c0,0,0,0,0,0c0,0,0,0.1,0,0.1c0.1,0.1,0.3,0.1,0.4,0.2c0.5,0.2,1.1,0.3,1.6,0.4
	c0.2,0,0.3,0.1,0.5,0.2c0.9,0.4,1.1,0.9,1.1,1.9c0,0.6,0,1.3,0,1.9c0.1,1.1-0.3,2.1-1,2.9c-0.6,0.6-1.4,1.2-2.4,1.1
	c-0.2,0-0.4-0.1-0.7-0.1c0-0.3,0.3-0.3,0.5-0.4c0.5-0.5,1.2-0.8,1.4-1.5c0.3-0.7,0.3-1.5,0.2-2.2c-0.1-0.8-0.7-1.2-1.5-1.3
	c-1-0.1-2-0.2-3.1,0.1c-0.2,0.1-0.4,0.2-0.5,0.3c-0.3,0.4-0.6,0.7-0.9,1.1c-0.1,0.2-0.1,0.4-0.1,0.7c0,0.2,0,0.4,0,0.6
	c0,0.2,0.1,0.3,0.3,0.5c0.7,0.4,1.3,0.9,1.9,1.3c0,0,0.1,0.1,0.1,0.2c-0.1,0-0.1,0.1-0.2,0.1c-0.7,0-1.5,0-2.2,0
	c-0.7,0-1.3-0.2-1.9-0.6c-0.1-0.1-0.2-0.2-0.2-0.3c0-0.7,0-1.4,0-2.1c0-0.6,0.2-1,0.5-1.5c0.4-0.6,0.8-1.2,1.2-1.8
	c0.4-0.6,0.4-1.2-0.1-1.8c0-0.1-0.2-0.1-0.3-0.1c0,0.1,0,0.2,0,0.2c0.1,0.2,0.2,0.4,0.2,0.6c0,0.2,0.1,0.4,0,0.6
	c0,0.2-0.2,0.2-0.3,0.1c-0.5-0.9-1.4-1.1-2.3-1.2c-2.4-0.4-4.8-0.7-7.2-1c0,0,0,0-0.1,0c0,0-0.1,0-0.1,0.1c0,0,0,0.1,0.1,0.1
	c0.2,0.3,0.4,0.5,0.5,0.8c0,0.1,0,0.1,0.1,0.2c-0.1,0-0.1,0-0.2,0c-0.3-0.3-0.8-0.2-1.2-0.4c-1-0.3-2-0.6-2.9-0.9
	c-0.2-0.1-0.3-0.2-0.3-0.5c0-0.3-0.2-0.7-0.2-1c-0.1-0.3-0.2-0.4-0.4-0.2c-0.5,0.3-1.1,0.6-1.6,0.9l1.6-2.6l-1.9,1.8l-8.6,2.8
	l-8.9-2.1l6.2-2c-3.4,0.3-7.7,0.7-7.7,0.7c0,0-4.7-3.4-4.5-3.5c0.1,0,7.4-0.9,7.4-0.9c0,0-6.3-0.5-6.7-0.4c-0.1,0-5.4-7.1-5.5-7.2
	c0.1,0,15.7,1.3,15.7,0.7c0,0,10.1-0.4,10.9-1.2c0.3-0.3-0.9,0.2-0.9,0.1c0-0.1-5.8-0.2-6.8,0l-6.2-3.1l6.2-3.6
	c-1.5,0.4-3.7,1.8-6.8,1.8c-7.6-0.6-10.2-7.8-10.4-8.1l7.1-2.4c0,0-8.7,0.4-10.5-1c-5.6-4.5-6.5-9.7-6.5-9.7l10.1-1.6
	c0,0-9.8-1.3-9.9-1.3C10.1,42.7,6.4,29,6.4,29l15.9,4.5L7.4,26.7C3.7,22.9,4.3,2.2,4.3,2.2l49.4,31c0,0,10.5,6.3,14.1,13
	c0.4,2.2,8.5,20.9,8.5,20.9c0.3,0,0.1,1.7,3.8,2.6c5.5,1.4,9.5,4.6,9.5,4.5c-0.1-0.3,2.8,3.2,3.3,3.5C94.8,78.8,98.4,80.7,98.4,81.6
	z"/>
</svg>
