<?xml version="1.0" encoding="utf-8"?>
<!-- Generator: Adobe Illustrator 19.0.0, SVG Export Plug-In . SVG Version: 6.00 Build 0)  -->
<!DOCTYPE svg PUBLIC "-//W3C//DTD SVG 1.1//EN" "http://www.w3.org/Graphics/SVG/1.1/DTD/svg11.dtd">
<svg version="1.1" id="Layer_1" xmlns="http://www.w3.org/2000/svg" xmlns:xlink="http://www.w3.org/1999/xlink" x="0px" y="0px"
	 viewBox="0 0 1280 800" enable-background="new 0 0 1280 800" xml:space="preserve">
<rect id="BACKGROUND" fill="#FFFFFF" width="1104.4" height="800"/>
<g id="XMLID_152_">
	<defs>
		<rect id="XMLID_153_" x="459.1" y="116.2" width="219" height="50.8"/>
	</defs>
	<clipPath id="XMLID_2_">
		<use xlink:href="#XMLID_153_"  overflow="visible"/>
	</clipPath>
	<path id="XMLID_157_" clip-path="url(#XMLID_2_)" fill="#FAFAFA" d="M673.9,184.5H470c-1.6,0-3-1.3-3-3v-58.9c0-1.6,1.3-3,3-3
		h203.8c1.6,0,3,1.3,3,3v58.9C676.8,183.1,675.5,184.5,673.9,184.5z"/>
	<path id="XMLID_154_" clip-path="url(#XMLID_2_)" fill="#CBCBCB" d="M673.8,184.6H470.2c-1.8,0-3.2-1.3-3.2-3v-59.1
		c0-1.6,1.5-3,3.2-3h203.6c1.8,0,3.2,1.3,3.2,3v59.1C677,183.3,675.5,184.6,673.8,184.6z M470.2,119.8c-1.6,0-2.9,1.2-2.9,2.7v59.1
		c0,1.5,1.3,2.7,2.9,2.7h203.6c1.6,0,2.9-1.2,2.9-2.7v-59.1c0-1.5-1.3-2.7-2.9-2.7H470.2z"/>
</g>
<g id="XMLID_146_">
	<defs>
		<rect id="XMLID_147_" x="249.1" y="116.2" width="219" height="50.8"/>
	</defs>
	<clipPath id="XMLID_4_">
		<use xlink:href="#XMLID_147_"  overflow="visible"/>
	</clipPath>
	<path id="XMLID_151_" clip-path="url(#XMLID_4_)" fill="#FAFAFA" d="M463.9,184.5H260c-1.6,0-3-1.3-3-3v-58.9c0-1.6,1.3-3,3-3
		h203.8c1.6,0,3,1.3,3,3v58.9C466.8,183.1,465.5,184.5,463.9,184.5z"/>
	<path id="XMLID_148_" clip-path="url(#XMLID_4_)" fill="#CBCBCB" d="M463.8,184.6H260.2c-1.8,0-3.2-1.3-3.2-3v-59.1
		c0-1.6,1.5-3,3.2-3h203.6c1.8,0,3.2,1.3,3.2,3v59.1C467,183.3,465.5,184.6,463.8,184.6z M260.2,119.8c-1.6,0-2.9,1.2-2.9,2.7v59.1
		c0,1.5,1.3,2.7,2.9,2.7h203.6c1.6,0,2.9-1.2,2.9-2.7v-59.1c0-1.5-1.3-2.7-2.9-2.7H260.2z"/>
</g>
<g id="XMLID_140_">
	<defs>
		<rect id="XMLID_141_" x="668.9" y="116.2" width="219" height="50.8"/>
	</defs>
	<clipPath id="XMLID_5_">
		<use xlink:href="#XMLID_141_"  overflow="visible"/>
	</clipPath>
	<path id="XMLID_145_" clip-path="url(#XMLID_5_)" fill="#FAFAFA" d="M883.7,184.5H679.9c-1.6,0-3-1.3-3-3v-58.9c0-1.6,1.3-3,3-3
		h203.8c1.6,0,3,1.3,3,3v58.9C886.7,183.1,885.4,184.5,883.7,184.5z"/>
	<path id="XMLID_142_" clip-path="url(#XMLID_5_)" fill="#CBCBCB" d="M883.6,184.6H680c-1.8,0-3.2-1.3-3.2-3v-59.1
		c0-1.6,1.5-3,3.2-3h203.6c1.8,0,3.2,1.3,3.2,3v59.1C886.8,183.3,885.4,184.6,883.6,184.6z M680,119.8c-1.6,0-2.9,1.2-2.9,2.7v59.1
		c0,1.5,1.3,2.7,2.9,2.7h203.6c1.6,0,2.9-1.2,2.9-2.7v-59.1c0-1.5-1.3-2.7-2.9-2.7H680z"/>
</g>
<path id="XMLID_139_" fill="#FDFDFD" stroke="#E5E5E5" stroke-miterlimit="10" d="M1063.9,162.7v608H49.1l0.4-654.6c0-1.6,1.3-3,3-3
	h206.3c1.7,0,3,1.3,3,3v46.6H1063.9z"/>
<g id="XMLID_136_">
	<text id="XMLID_66_" transform="matrix(1 0 0 1 105.2048 146.1645)" fill="#808080" font-family="'ClanOT-News'" font-size="12px">WORK SPACE</text>
</g>
<g id="XMLID_133_">
	
		<text id="XMLID_60_" transform="matrix(1 0 0 1 509.1726 146.1645)" fill="#999999" font-family="'ClanOT-News'" font-size="10.1632px">SYSTEM PERFORMANCE</text>
</g>
<g id="XMLID_122_">
	
		<text id="XMLID_58_" transform="matrix(1 0 0 1 736.564 146.1645)" fill="#999999" font-family="'ClanOT-News'" font-size="10.1632px">SYSTEM SUPPORT</text>
</g>
<g id="XMLID_113_">
	
		<text id="XMLID_52_" transform="matrix(1 0 0 1 311.4233 146.1645)" fill="#999999" font-family="'ClanOT-News'" font-size="10.1632px">CUSTOMIZE VIEWS</text>
</g>
<rect id="XMLID_2929_" x="1104.8" y="-1" fill="#252525" width="175.6" height="801"/>
<rect id="XMLID_2928_" x="1105" y="258" fill="#212121" width="175.6" height="224.5"/>
<line id="XMLID_2927_" opacity="0.4" fill="none" stroke="#4D4D4D" stroke-width="0.5" stroke-miterlimit="10" x1="1105" y1="122.9" x2="1280" y2="122.9"/>
<g id="XMLID_1015_">
	
		<line id="XMLID_1127_" opacity="0.6" fill="none" stroke="#333333" stroke-width="0.5" stroke-miterlimit="10" x1="1105" y1="346.4" x2="1280" y2="346.4"/>
	
		<line id="XMLID_1126_" opacity="0.6" fill="none" stroke="#333333" stroke-width="0.5" stroke-miterlimit="10" x1="1105" y1="391.4" x2="1280" y2="391.4"/>
	
		<line id="XMLID_1125_" opacity="0.6" fill="none" stroke="#333333" stroke-width="0.5" stroke-miterlimit="10" x1="1105" y1="436.4" x2="1280" y2="436.4"/>
</g>
<line id="XMLID_2918_" opacity="0.4" fill="none" stroke="#4D4D4D" stroke-width="0.5" stroke-miterlimit="10" x1="1105" y1="167.9" x2="1280" y2="167.9"/>
<line id="XMLID_1133_" opacity="0.2" fill="none" stroke="#4D4D4D" stroke-width="0.5" stroke-miterlimit="10" x1="1105" y1="296" x2="1280" y2="296"/>
<line id="XMLID_2948_" opacity="0.4" fill="none" stroke="#4D4D4D" stroke-width="0.5" stroke-miterlimit="10" x1="1105" y1="212.9" x2="1280" y2="212.9"/>
<g id="XMLID_725_">
	<g id="XMLID_2858_">
		<g id="XMLID_526_">
			<path id="XMLID_589_" fill="#FFFFFF" d="M1147.8,456.4V451h1.9c0.4,0,0.8,0.1,1.1,0.2c0.3,0.1,0.6,0.3,0.8,0.6
				c0.2,0.2,0.4,0.5,0.5,0.9c0.1,0.3,0.2,0.7,0.2,1.1c0,0.4-0.1,0.8-0.2,1.1c-0.1,0.3-0.3,0.6-0.5,0.9c-0.2,0.2-0.5,0.4-0.8,0.6
				c-0.3,0.1-0.7,0.2-1.1,0.2H1147.8z M1151.6,453.7c0-0.3,0-0.6-0.1-0.8c-0.1-0.3-0.2-0.5-0.4-0.7c-0.2-0.2-0.4-0.3-0.6-0.4
				c-0.2-0.1-0.5-0.2-0.8-0.2h-1.2v4.2h1.2c0.3,0,0.6-0.1,0.8-0.2c0.2-0.1,0.4-0.3,0.6-0.4c0.2-0.2,0.3-0.4,0.4-0.7
				S1151.6,454,1151.6,453.7z"/>
			<path id="XMLID_586_" fill="#FFFFFF" d="M1152.8,456.4l2.2-5.4h0.6l2.2,5.4h-0.7l-0.6-1.6h-2.3l-0.6,1.6H1152.8z M1155.4,451.8
				l-1,2.5h2L1155.4,451.8z"/>
			<path id="XMLID_584_" fill="#FFFFFF" d="M1158.6,451l1.8,4.6l1.8-4.6h0.7l-2.2,5.4h-0.6l-2.2-5.4H1158.6z"/>
			<path id="XMLID_582_" fill="#FFFFFF" d="M1164,456.4V451h0.7v5.4H1164z"/>
			<path id="XMLID_579_" fill="#FFFFFF" d="M1166.3,456.4V451h1.9c0.4,0,0.8,0.1,1.1,0.2c0.3,0.1,0.6,0.3,0.8,0.6
				c0.2,0.2,0.4,0.5,0.5,0.9c0.1,0.3,0.2,0.7,0.2,1.1c0,0.4-0.1,0.8-0.2,1.1c-0.1,0.3-0.3,0.6-0.5,0.9c-0.2,0.2-0.5,0.4-0.8,0.6
				c-0.3,0.1-0.7,0.2-1.1,0.2H1166.3z M1170.1,453.7c0-0.3,0-0.6-0.1-0.8c-0.1-0.3-0.2-0.5-0.4-0.7c-0.2-0.2-0.4-0.3-0.6-0.4
				c-0.2-0.1-0.5-0.2-0.8-0.2h-1.2v4.2h1.2c0.3,0,0.6-0.1,0.8-0.2c0.2-0.1,0.4-0.3,0.6-0.4c0.2-0.2,0.3-0.4,0.4-0.7
				C1170.1,454.3,1170.1,454,1170.1,453.7z"/>
			<path id="XMLID_577_" fill="#FFFFFF" d="M1177.5,452.1c-0.1-0.1-0.1-0.1-0.2-0.2c-0.1-0.1-0.2-0.1-0.3-0.2
				c-0.1-0.1-0.3-0.1-0.4-0.1c-0.2,0-0.3,0-0.5,0c-0.4,0-0.7,0.1-0.9,0.2c-0.2,0.2-0.3,0.4-0.3,0.7c0,0.1,0,0.3,0.1,0.4
				c0.1,0.1,0.1,0.2,0.3,0.2c0.1,0.1,0.3,0.1,0.4,0.2c0.2,0.1,0.4,0.1,0.6,0.2c0.3,0.1,0.5,0.1,0.8,0.2c0.2,0.1,0.4,0.2,0.6,0.3
				c0.2,0.1,0.3,0.3,0.4,0.4c0.1,0.2,0.1,0.4,0.1,0.6c0,0.3-0.1,0.5-0.2,0.7c-0.1,0.2-0.2,0.3-0.4,0.5c-0.2,0.1-0.4,0.2-0.6,0.3
				c-0.2,0.1-0.5,0.1-0.8,0.1c-0.4,0-0.8-0.1-1.2-0.2s-0.7-0.3-1-0.6l0.3-0.6c0.1,0.1,0.2,0.2,0.3,0.3c0.1,0.1,0.3,0.2,0.4,0.2
				c0.2,0.1,0.3,0.1,0.5,0.2c0.2,0,0.4,0.1,0.6,0.1c0.4,0,0.7-0.1,0.9-0.2s0.3-0.3,0.3-0.6c0-0.2,0-0.3-0.1-0.4
				c-0.1-0.1-0.2-0.2-0.3-0.3c-0.1-0.1-0.3-0.1-0.5-0.2c-0.2-0.1-0.4-0.1-0.7-0.2c-0.3-0.1-0.5-0.1-0.7-0.2
				c-0.2-0.1-0.4-0.2-0.5-0.3c-0.1-0.1-0.2-0.2-0.3-0.4c-0.1-0.2-0.1-0.3-0.1-0.6c0-0.3,0-0.5,0.1-0.7s0.2-0.4,0.4-0.5
				c0.2-0.1,0.4-0.2,0.6-0.3c0.2-0.1,0.5-0.1,0.8-0.1c0.4,0,0.7,0.1,1,0.2c0.3,0.1,0.6,0.3,0.8,0.5L1177.5,452.1z"/>
			<path id="XMLID_553_" fill="#FFFFFF" d="M1183.2,451.6h-1.9v4.8h-0.7v-4.8h-1.9V451h4.4V451.6z"/>
			<path id="XMLID_537_" fill="#FFFFFF" d="M1188,455.8v0.6h-3.7V451h3.6v0.6h-2.9v1.8h2.6v0.6h-2.6v1.9H1188z"/>
			<path id="XMLID_535_" fill="#FFFFFF" d="M1189.3,456.4V451h0.7v4.8h3v0.6H1189.3z"/>
			<path id="XMLID_533_" fill="#FFFFFF" d="M1194.1,456.4V451h0.7v4.8h3v0.6H1194.1z"/>
			<path id="XMLID_531_" fill="#FFFFFF" d="M1202.6,455.8v0.6h-3.7V451h3.6v0.6h-2.9v1.8h2.6v0.6h-2.6v1.9H1202.6z"/>
			<path id="XMLID_527_" fill="#FFFFFF" d="M1203.9,456.4V451h2.3c0.2,0,0.5,0,0.7,0.1c0.2,0.1,0.4,0.2,0.5,0.4
				c0.1,0.2,0.3,0.4,0.3,0.6c0.1,0.2,0.1,0.4,0.1,0.6c0,0.2,0,0.4-0.1,0.5s-0.1,0.3-0.2,0.5c-0.1,0.1-0.2,0.3-0.4,0.4
				c-0.1,0.1-0.3,0.2-0.5,0.2l1.3,2.1h-0.8l-1.2-2h-1.4v2H1203.9z M1204.6,453.9h1.6c0.1,0,0.3,0,0.4-0.1c0.1-0.1,0.2-0.1,0.3-0.2
				c0.1-0.1,0.1-0.2,0.2-0.4c0-0.1,0.1-0.3,0.1-0.4c0-0.2,0-0.3-0.1-0.4c-0.1-0.1-0.1-0.3-0.2-0.4c-0.1-0.1-0.2-0.2-0.3-0.2
				c-0.1-0.1-0.2-0.1-0.4-0.1h-1.6V453.9z"/>
		</g>
	</g>
	<g id="XMLID_2761_">
		<g id="XMLID_873_">
			<path id="XMLID_919_" fill="#CBCBCB" d="M1147.7,465v-4.4h0.4v4.4H1147.7z"/>
			<path id="XMLID_917_" fill="#CBCBCB" d="M1150,461.4v3.6h-0.4v-4.4h0.3l2.9,3.7v-3.7h0.4v4.4h-0.4L1150,461.4z"/>
			<path id="XMLID_915_" fill="#CBCBCB" d="M1157.7,461h-1.6v4h-0.4v-4h-1.6v-0.4h3.6V461z"/>
			<path id="XMLID_913_" fill="#CBCBCB" d="M1161.6,464.7v0.4h-3v-4.4h2.9v0.4h-2.5v1.6h2.2v0.4h-2.2v1.7H1161.6z"/>
			<path id="XMLID_911_" fill="#CBCBCB" d="M1165.9,464.4c-0.4,0.4-0.9,0.7-1.4,0.7c-0.3,0-0.6-0.1-0.8-0.2
				c-0.3-0.1-0.5-0.3-0.7-0.5c-0.2-0.2-0.3-0.5-0.4-0.7c-0.1-0.3-0.2-0.5-0.2-0.8c0-0.3,0.1-0.6,0.2-0.8c0.1-0.3,0.2-0.5,0.4-0.7
				c0.2-0.2,0.4-0.4,0.6-0.5c0.3-0.1,0.5-0.2,0.8-0.2c0.2,0,0.4,0,0.6,0.1c0.2,0,0.3,0.1,0.5,0.2s0.3,0.2,0.4,0.3
				c0.1,0.1,0.2,0.2,0.3,0.4l-0.3,0.2c-0.1-0.3-0.3-0.5-0.6-0.6c-0.2-0.1-0.5-0.2-0.8-0.2c-0.2,0-0.5,0.1-0.7,0.2
				c-0.2,0.1-0.4,0.2-0.5,0.4c-0.1,0.2-0.2,0.4-0.3,0.6c-0.1,0.2-0.1,0.5-0.1,0.7c0,0.2,0,0.5,0.1,0.7c0.1,0.2,0.2,0.4,0.4,0.6
				c0.1,0.2,0.3,0.3,0.5,0.4c0.2,0.1,0.4,0.1,0.7,0.1c0.3,0,0.5-0.1,0.7-0.2c0.2-0.1,0.4-0.3,0.7-0.6v-0.7h-1v-0.3h1.4v2.2h-0.4
				V464.4z"/>
			<path id="XMLID_908_" fill="#CBCBCB" d="M1167.5,465v-4.4h1.9c0.2,0,0.4,0,0.5,0.1c0.2,0.1,0.3,0.2,0.4,0.3
				c0.1,0.1,0.2,0.3,0.3,0.4c0.1,0.2,0.1,0.3,0.1,0.5c0,0.2,0,0.3-0.1,0.5c0,0.1-0.1,0.3-0.2,0.4c-0.1,0.1-0.2,0.2-0.3,0.3
				c-0.1,0.1-0.3,0.1-0.4,0.2l1.1,1.7h-0.5l-1-1.6h-1.3v1.6H1167.5z M1167.9,463h1.5c0.1,0,0.2,0,0.4-0.1c0.1-0.1,0.2-0.1,0.3-0.2
				c0.1-0.1,0.1-0.2,0.2-0.3c0-0.1,0.1-0.2,0.1-0.4c0-0.1,0-0.3-0.1-0.4c0-0.1-0.1-0.2-0.2-0.3c-0.1-0.1-0.2-0.2-0.3-0.2
				c-0.1-0.1-0.2-0.1-0.3-0.1h-1.4V463z"/>
			<path id="XMLID_905_" fill="#CBCBCB" d="M1171.3,465l1.8-4.4h0.4l1.8,4.4h-0.5l-0.6-1.4h-2l-0.6,1.4H1171.3z M1173.3,461.1
				l-0.9,2.2h1.8L1173.3,461.1z"/>
			<path id="XMLID_903_" fill="#CBCBCB" d="M1179,461h-1.6v4h-0.4v-4h-1.6v-0.4h3.6V461z"/>
			<path id="XMLID_901_" fill="#CBCBCB" d="M1179.9,465v-4.4h0.4v4.4H1179.9z"/>
			<path id="XMLID_898_" fill="#CBCBCB" d="M1183.5,465.1c-0.3,0-0.6-0.1-0.8-0.2c-0.3-0.1-0.5-0.3-0.7-0.5
				c-0.2-0.2-0.3-0.4-0.4-0.7c-0.1-0.3-0.1-0.5-0.1-0.8c0-0.3,0.1-0.6,0.2-0.8c0.1-0.3,0.3-0.5,0.4-0.7c0.2-0.2,0.4-0.4,0.7-0.5
				c0.3-0.1,0.5-0.2,0.8-0.2c0.3,0,0.6,0.1,0.8,0.2c0.3,0.1,0.5,0.3,0.7,0.5c0.2,0.2,0.3,0.5,0.4,0.7c0.1,0.3,0.1,0.5,0.1,0.8
				c0,0.3-0.1,0.6-0.2,0.8c-0.1,0.3-0.3,0.5-0.4,0.7c-0.2,0.2-0.4,0.4-0.7,0.5C1184,465,1183.8,465.1,1183.5,465.1z M1181.8,462.8
				c0,0.2,0,0.5,0.1,0.7c0.1,0.2,0.2,0.4,0.3,0.6c0.1,0.2,0.3,0.3,0.5,0.4c0.2,0.1,0.4,0.2,0.7,0.2c0.2,0,0.5-0.1,0.7-0.2
				c0.2-0.1,0.4-0.2,0.5-0.4c0.1-0.2,0.3-0.4,0.3-0.6c0.1-0.2,0.1-0.4,0.1-0.7c0-0.2,0-0.5-0.1-0.7c-0.1-0.2-0.2-0.4-0.3-0.6
				c-0.1-0.2-0.3-0.3-0.5-0.4c-0.2-0.1-0.4-0.2-0.7-0.2c-0.2,0-0.5,0.1-0.7,0.2c-0.2,0.1-0.4,0.2-0.5,0.4c-0.1,0.2-0.3,0.4-0.3,0.6
				C1181.9,462.4,1181.8,462.6,1181.8,462.8z"/>
			<path id="XMLID_896_" fill="#CBCBCB" d="M1187.1,461.4v3.6h-0.4v-4.4h0.3l2.9,3.7v-3.7h0.4v4.4h-0.4L1187.1,461.4z"/>
			<path id="XMLID_894_" fill="#CBCBCB" d="M1196.1,461.4c-0.1-0.1-0.3-0.3-0.5-0.3c-0.2-0.1-0.4-0.1-0.7-0.1
				c-0.4,0-0.7,0.1-0.9,0.2c-0.2,0.1-0.3,0.3-0.3,0.6c0,0.1,0,0.2,0.1,0.3c0,0.1,0.1,0.2,0.2,0.2c0.1,0.1,0.2,0.1,0.4,0.2
				c0.2,0,0.3,0.1,0.6,0.1c0.2,0,0.4,0.1,0.6,0.2c0.2,0.1,0.3,0.1,0.5,0.2c0.1,0.1,0.2,0.2,0.3,0.3c0.1,0.1,0.1,0.3,0.1,0.5
				c0,0.2,0,0.4-0.1,0.5c-0.1,0.1-0.2,0.3-0.3,0.4c-0.1,0.1-0.3,0.2-0.5,0.2c-0.2,0-0.4,0.1-0.6,0.1c-0.7,0-1.3-0.2-1.8-0.6l0.2-0.4
				c0.2,0.2,0.4,0.3,0.7,0.4c0.3,0.1,0.6,0.2,0.9,0.2c0.4,0,0.6-0.1,0.8-0.2c0.2-0.1,0.3-0.3,0.3-0.6c0-0.1,0-0.3-0.1-0.3
				c-0.1-0.1-0.1-0.2-0.3-0.2c-0.1-0.1-0.3-0.1-0.4-0.2c-0.2-0.1-0.4-0.1-0.6-0.1c-0.2-0.1-0.4-0.1-0.6-0.2
				c-0.2-0.1-0.3-0.1-0.4-0.2c-0.1-0.1-0.2-0.2-0.3-0.3c-0.1-0.1-0.1-0.3-0.1-0.5c0-0.2,0-0.4,0.1-0.5c0.1-0.2,0.2-0.3,0.3-0.4
				c0.1-0.1,0.3-0.2,0.5-0.2c0.2-0.1,0.4-0.1,0.6-0.1c0.3,0,0.6,0,0.8,0.1c0.2,0.1,0.4,0.2,0.6,0.4L1196.1,461.4z"/>
			<path id="XMLID_891_" fill="#CBCBCB" d="M1197.6,465v-4.4h1.8c0.2,0,0.4,0,0.5,0.1c0.2,0.1,0.3,0.2,0.4,0.3
				c0.1,0.1,0.2,0.3,0.3,0.4c0.1,0.2,0.1,0.3,0.1,0.5c0,0.2,0,0.4-0.1,0.5c-0.1,0.2-0.1,0.3-0.3,0.4c-0.1,0.1-0.2,0.2-0.4,0.3
				c-0.2,0.1-0.3,0.1-0.5,0.1h-1.4v1.6H1197.6z M1198,463h1.4c0.1,0,0.2,0,0.4-0.1c0.1-0.1,0.2-0.1,0.3-0.2c0.1-0.1,0.1-0.2,0.2-0.3
				c0-0.1,0.1-0.3,0.1-0.4c0-0.1,0-0.3-0.1-0.4c0-0.1-0.1-0.2-0.2-0.3s-0.2-0.2-0.3-0.2c-0.1-0.1-0.2-0.1-0.3-0.1h-1.4V463z"/>
			<path id="XMLID_889_" fill="#CBCBCB" d="M1204.7,464.7v0.4h-3v-4.4h2.9v0.4h-2.5v1.6h2.2v0.4h-2.2v1.7H1204.7z"/>
			<path id="XMLID_887_" fill="#CBCBCB" d="M1205.5,462.8c0-0.3,0-0.5,0.1-0.8c0.1-0.3,0.2-0.5,0.4-0.7c0.2-0.2,0.4-0.4,0.7-0.5
				c0.3-0.1,0.6-0.2,0.9-0.2c0.4,0,0.7,0.1,1,0.3c0.3,0.2,0.5,0.4,0.6,0.7l-0.3,0.2c-0.1-0.1-0.2-0.3-0.3-0.4
				c-0.1-0.1-0.2-0.2-0.3-0.2c-0.1-0.1-0.2-0.1-0.4-0.1c-0.1,0-0.2,0-0.4,0c-0.3,0-0.5,0.1-0.7,0.2c-0.2,0.1-0.4,0.2-0.5,0.4
				s-0.2,0.4-0.3,0.6c-0.1,0.2-0.1,0.4-0.1,0.7c0,0.2,0,0.5,0.1,0.7c0.1,0.2,0.2,0.4,0.3,0.6c0.1,0.2,0.3,0.3,0.5,0.4
				c0.2,0.1,0.4,0.2,0.7,0.2c0.1,0,0.3,0,0.4,0c0.1,0,0.3-0.1,0.4-0.1c0.1-0.1,0.2-0.2,0.3-0.3c0.1-0.1,0.2-0.2,0.3-0.4l0.4,0.2
				c-0.1,0.2-0.2,0.3-0.3,0.4c-0.1,0.1-0.3,0.2-0.4,0.3c-0.2,0.1-0.3,0.2-0.5,0.2c-0.2,0-0.3,0.1-0.5,0.1c-0.3,0-0.6-0.1-0.8-0.2
				c-0.3-0.1-0.5-0.3-0.7-0.5c-0.2-0.2-0.3-0.5-0.4-0.7C1205.6,463.4,1205.5,463.1,1205.5,462.8z"/>
			<path id="XMLID_885_" fill="#CBCBCB" d="M1210.3,465v-4.4h0.4v4.4H1210.3z"/>
			<path id="XMLID_882_" fill="#CBCBCB" d="M1211.7,465l1.8-4.4h0.4l1.8,4.4h-0.5l-0.6-1.4h-2l-0.6,1.4H1211.7z M1213.7,461.1
				l-0.9,2.2h1.8L1213.7,461.1z"/>
			<path id="XMLID_880_" fill="#CBCBCB" d="M1216.6,465v-4.4h0.4v4h2.6v0.4H1216.6z"/>
			<path id="XMLID_878_" fill="#CBCBCB" d="M1220.5,465v-4.4h0.4v4.4H1220.5z"/>
			<path id="XMLID_876_" fill="#CBCBCB" d="M1224.9,461.4c-0.1-0.1-0.3-0.3-0.5-0.3c-0.2-0.1-0.4-0.1-0.7-0.1
				c-0.4,0-0.7,0.1-0.9,0.2c-0.2,0.1-0.3,0.3-0.3,0.6c0,0.1,0,0.2,0.1,0.3c0,0.1,0.1,0.2,0.2,0.2c0.1,0.1,0.2,0.1,0.4,0.2
				c0.2,0,0.3,0.1,0.6,0.1c0.2,0,0.4,0.1,0.6,0.2c0.2,0.1,0.3,0.1,0.5,0.2c0.1,0.1,0.2,0.2,0.3,0.3c0.1,0.1,0.1,0.3,0.1,0.5
				c0,0.2,0,0.4-0.1,0.5c-0.1,0.1-0.2,0.3-0.3,0.4c-0.1,0.1-0.3,0.2-0.5,0.2c-0.2,0-0.4,0.1-0.6,0.1c-0.7,0-1.3-0.2-1.8-0.6l0.2-0.4
				c0.2,0.2,0.4,0.3,0.7,0.4c0.3,0.1,0.6,0.2,0.9,0.2c0.4,0,0.6-0.1,0.8-0.2c0.2-0.1,0.3-0.3,0.3-0.6c0-0.1,0-0.3-0.1-0.3
				c-0.1-0.1-0.1-0.2-0.3-0.2c-0.1-0.1-0.3-0.1-0.4-0.2c-0.2-0.1-0.4-0.1-0.6-0.1c-0.2-0.1-0.4-0.1-0.6-0.2
				c-0.2-0.1-0.3-0.1-0.4-0.2c-0.1-0.1-0.2-0.2-0.3-0.3c-0.1-0.1-0.1-0.3-0.1-0.5c0-0.2,0-0.4,0.1-0.5c0.1-0.2,0.2-0.3,0.3-0.4
				s0.3-0.2,0.5-0.2c0.2-0.1,0.4-0.1,0.6-0.1c0.3,0,0.6,0,0.8,0.1c0.2,0.1,0.4,0.2,0.6,0.4L1224.9,461.4z"/>
			<path id="XMLID_874_" fill="#CBCBCB" d="M1229.5,461h-1.6v4h-0.4v-4h-1.6v-0.4h3.6V461z"/>
		</g>
	</g>
</g>
<g id="XMLID_2755_">
	<path id="XMLID_2760_" fill="#F6921E" d="M1125.4,462.1c0,0.2,0,0.5-0.1,0.7c-0.1,0.2-0.1,0.4-0.2,0.5c-0.1,0.1-0.2,0.3-0.3,0.4
		c-0.4,0.5-1.1,0.8-1.8,0.8c-1.3,0-2.4-1.1-2.4-2.4c0-0.7,0.3-1.4,0.8-1.8c0.1-0.1,0.3-0.2,0.4-0.3c0.3-0.2,0.8-0.3,1.2-0.3
		c0.7,0,1.3,0.3,1.7,0.7C1125.2,460.8,1125.4,461.4,1125.4,462.1z"/>
	<path id="XMLID_2758_" fill="#B3B3B3" d="M1129.4,448.7c-4.5,0-8.2,3.7-8.2,8.2c0,0.9,0.2,1.8,0.5,2.7c0,0,0,0,0.1,0
		c0.2-0.1,0.4-0.2,0.6-0.2c-0.3-0.8-0.4-1.6-0.4-2.4c0-4.1,3.4-7.5,7.5-7.5c4.1,0,7.5,3.4,7.5,7.5c0,2.3-1,4.4-2.7,5.7
		c-1.3,1.1-3,1.8-4.8,1.8c-1.4,0-2.6-0.4-3.7-1c0,0,0,0.1,0,0.1c0,0.1-0.1,0.1-0.1,0.2c-0.1,0.1-0.1,0.2-0.2,0.3
		c1.2,0.7,2.6,1.1,4.1,1.1c4.5,0,8.2-3.7,8.2-8.2C1137.6,452.4,1133.9,448.7,1129.4,448.7z"/>
	<path id="XMLID_2757_" fill="#B3B3B3" d="M1134,461.3c-1.2,1.1-2.8,1.7-4.5,1.7c-1.2,0-2.4-0.3-3.4-0.9c0-0.1,0.1-0.1,0.1-0.2
		c0,0,0-0.1,0-0.1c0.1-0.2,0.1-0.3,0.2-0.5c0.1-0.2,0.1-0.5,0.1-0.7v0c0.6-0.3,1.1-0.3,1.1-0.3c0,0,0-2,0-1.9
		c0.1,0.1,0.9,0.6,1.1,0.7c0,0,0,0,0,0c0.1,0,0.1,0,0.2,0h0.9c0.4,0,0.8-0.4,1.2-0.8v1.7c0,0,1.2,0.4,2.6,1.1
		C1133.8,461.3,1133.9,461.3,1134,461.3z"/>
	<path id="XMLID_2756_" fill="#B3B3B3" d="M1131.8,453.8v1.7c0,0.7-0.4,1.7-0.9,2.3c-0.3,0.4-0.7,0.7-1.2,0.7h-0.5
		c-0.4,0-0.8-0.2-1.1-0.6c-0.6-0.6-0.9-1.7-0.9-2.4v-1.7c0-1.1,0.9-2.1,2.1-2.1h0.5C1130.9,451.7,1131.8,452.7,1131.8,453.8z"/>
</g>
<g id="XMLID_722_">
	<g id="XMLID_2032_">
		<g id="XMLID_456_">
			<path id="XMLID_509_" fill="#FFFFFF" d="M1150.7,322.7v-4.2l-1.8,3.2h-0.4l-1.8-3.2v4.2h-0.7v-5.4h0.7l2,3.5l2-3.5h0.7v5.4
				H1150.7z"/>
			<path id="XMLID_506_" fill="#FFFFFF" d="M1152.4,322.7l2.2-5.4h0.6l2.2,5.4h-0.7l-0.6-1.6h-2.3l-0.6,1.6H1152.4z M1154.9,318.1
				l-1,2.5h2L1154.9,318.1z"/>
			<path id="XMLID_503_" fill="#FFFFFF" d="M1158.4,322.7v-5.4h2.3c0.2,0,0.5,0,0.7,0.1c0.2,0.1,0.4,0.2,0.5,0.4
				c0.1,0.2,0.3,0.4,0.3,0.6s0.1,0.4,0.1,0.6c0,0.2,0,0.4-0.1,0.5c-0.1,0.2-0.1,0.3-0.2,0.5c-0.1,0.1-0.2,0.3-0.4,0.4
				c-0.1,0.1-0.3,0.2-0.5,0.2l1.3,2.1h-0.8l-1.2-1.9h-1.4v1.9H1158.4z M1159.1,320.2h1.6c0.1,0,0.3,0,0.4-0.1
				c0.1-0.1,0.2-0.1,0.3-0.2c0.1-0.1,0.1-0.2,0.2-0.4c0-0.1,0.1-0.3,0.1-0.4c0-0.2,0-0.3-0.1-0.4c-0.1-0.1-0.1-0.3-0.2-0.4
				s-0.2-0.2-0.3-0.2c-0.1-0.1-0.2-0.1-0.4-0.1h-1.6V320.2z"/>
			<path id="XMLID_501_" fill="#FFFFFF" d="M1163.8,322.7v-5.4h0.7v3l2.8-3h0.7l-2.2,2.4l2.3,3h-0.7l-2-2.6l-0.9,1v1.7H1163.8z"/>
			<path id="XMLID_499_" fill="#FFFFFF" d="M1174.4,318.5c-0.1-0.1-0.1-0.1-0.2-0.2c-0.1-0.1-0.2-0.1-0.3-0.2
				c-0.1-0.1-0.3-0.1-0.4-0.1c-0.2,0-0.3,0-0.5,0c-0.4,0-0.7,0.1-0.9,0.2c-0.2,0.2-0.3,0.4-0.3,0.6c0,0.1,0,0.3,0.1,0.4
				c0.1,0.1,0.1,0.2,0.3,0.2c0.1,0.1,0.3,0.1,0.4,0.2c0.2,0.1,0.4,0.1,0.6,0.2c0.3,0.1,0.5,0.1,0.8,0.2c0.2,0.1,0.4,0.2,0.6,0.3
				c0.2,0.1,0.3,0.3,0.4,0.4c0.1,0.2,0.1,0.4,0.1,0.6c0,0.3-0.1,0.5-0.2,0.7c-0.1,0.2-0.2,0.3-0.4,0.5c-0.2,0.1-0.4,0.2-0.6,0.3
				c-0.2,0.1-0.5,0.1-0.8,0.1c-0.4,0-0.8-0.1-1.2-0.2c-0.4-0.1-0.7-0.3-1-0.6l0.3-0.6c0.1,0.1,0.2,0.2,0.3,0.3
				c0.1,0.1,0.3,0.2,0.4,0.2c0.2,0.1,0.3,0.1,0.5,0.2c0.2,0,0.4,0.1,0.6,0.1c0.4,0,0.7-0.1,0.9-0.2c0.2-0.1,0.3-0.3,0.3-0.6
				c0-0.2,0-0.3-0.1-0.4c-0.1-0.1-0.2-0.2-0.3-0.3c-0.1-0.1-0.3-0.1-0.5-0.2c-0.2-0.1-0.4-0.1-0.7-0.2c-0.3-0.1-0.5-0.1-0.7-0.2
				c-0.2-0.1-0.4-0.2-0.5-0.3c-0.1-0.1-0.2-0.2-0.3-0.4c-0.1-0.2-0.1-0.3-0.1-0.5c0-0.3,0-0.5,0.1-0.7c0.1-0.2,0.2-0.4,0.4-0.5
				c0.2-0.1,0.4-0.2,0.6-0.3c0.2-0.1,0.5-0.1,0.8-0.1c0.4,0,0.7,0.1,1,0.2s0.6,0.3,0.8,0.4L1174.4,318.5z"/>
			<path id="XMLID_469_" fill="#FFFFFF" d="M1180,317.9h-1.9v4.8h-0.7v-4.8h-1.9v-0.6h4.4V317.9z"/>
			<path id="XMLID_467_" fill="#FFFFFF" d="M1184.8,322.1v0.6h-3.7v-5.4h3.6v0.6h-2.9v1.8h2.5v0.6h-2.5v1.9H1184.8z"/>
			<path id="XMLID_465_" fill="#FFFFFF" d="M1188,317.4h0.6l0.7,1.9l0.7-1.9h0.6l-0.9,2.4l0.9,2.2l1.8-4.6h0.7l-2.3,5.4h-0.6
				l-1.1-2.6l-1.1,2.6h-0.6l-2.3-5.4h0.7l1.8,4.6l0.9-2.2L1188,317.4z"/>
			<path id="XMLID_462_" fill="#FFFFFF" d="M1193.4,322.7l2.2-5.4h0.6l2.2,5.4h-0.7l-0.6-1.6h-2.3l-0.6,1.6H1193.4z M1195.9,318.1
				l-1,2.5h2L1195.9,318.1z"/>
			<path id="XMLID_459_" fill="#FFFFFF" d="M1199.4,322.7v-5.4h2.3c0.2,0,0.5,0,0.7,0.1c0.2,0.1,0.4,0.2,0.5,0.4
				c0.1,0.2,0.3,0.4,0.3,0.6s0.1,0.4,0.1,0.6c0,0.2,0,0.4-0.1,0.5c-0.1,0.2-0.1,0.3-0.2,0.5c-0.1,0.1-0.2,0.3-0.4,0.4
				c-0.1,0.1-0.3,0.2-0.5,0.2l1.3,2.1h-0.8l-1.2-1.9h-1.4v1.9H1199.4z M1200.1,320.2h1.6c0.1,0,0.3,0,0.4-0.1
				c0.1-0.1,0.2-0.1,0.3-0.2c0.1-0.1,0.1-0.2,0.2-0.4c0-0.1,0.1-0.3,0.1-0.4c0-0.2,0-0.3-0.1-0.4c-0.1-0.1-0.1-0.3-0.2-0.4
				c-0.1-0.1-0.2-0.2-0.3-0.2c-0.1-0.1-0.2-0.1-0.4-0.1h-1.6V320.2z"/>
			<path id="XMLID_457_" fill="#FFFFFF" d="M1208.5,317.9h-1.9v4.8h-0.7v-4.8h-1.9v-0.6h4.4V317.9z"/>
		</g>
	</g>
	<g id="XMLID_1858_">
		<g id="XMLID_835_">
			<path id="XMLID_929_" fill="#CBCBCB" d="M1145.9,331.5v-4.7h0.5v4.7H1145.9z"/>
			<path id="XMLID_927_" fill="#CBCBCB" d="M1148.3,327.7v3.8h-0.5v-4.7h0.4l3.1,3.9v-3.9h0.5v4.7h-0.4L1148.3,327.7z"/>
			<path id="XMLID_925_" fill="#CBCBCB" d="M1156.5,327.3h-1.7v4.3h-0.5v-4.3h-1.7v-0.4h3.8V327.3z"/>
			<path id="XMLID_923_" fill="#CBCBCB" d="M1160.7,331.1v0.4h-3.2v-4.7h3.1v0.4h-2.6v1.7h2.3v0.4h-2.3v1.8H1160.7z"/>
			<path id="XMLID_921_" fill="#CBCBCB" d="M1165.2,330.9c-0.4,0.5-0.9,0.7-1.5,0.7c-0.3,0-0.6-0.1-0.9-0.2
				c-0.3-0.1-0.5-0.3-0.7-0.5c-0.2-0.2-0.3-0.5-0.5-0.8c-0.1-0.3-0.2-0.6-0.2-0.9c0-0.3,0.1-0.6,0.2-0.9c0.1-0.3,0.3-0.5,0.4-0.8
				c0.2-0.2,0.4-0.4,0.7-0.5c0.3-0.1,0.6-0.2,0.9-0.2c0.2,0,0.4,0,0.6,0.1c0.2,0.1,0.4,0.1,0.5,0.2c0.1,0.1,0.3,0.2,0.4,0.3
				c0.1,0.1,0.2,0.3,0.3,0.4l-0.4,0.2c-0.2-0.3-0.4-0.5-0.6-0.6c-0.2-0.1-0.5-0.2-0.8-0.2c-0.3,0-0.5,0.1-0.7,0.2
				c-0.2,0.1-0.4,0.3-0.5,0.4c-0.1,0.2-0.3,0.4-0.3,0.6c-0.1,0.2-0.1,0.5-0.1,0.7c0,0.3,0,0.5,0.1,0.8c0.1,0.2,0.2,0.4,0.4,0.6
				c0.2,0.2,0.3,0.3,0.6,0.4c0.2,0.1,0.4,0.2,0.7,0.2c0.3,0,0.5-0.1,0.8-0.2c0.2-0.1,0.5-0.3,0.7-0.6v-0.8h-1v-0.4h1.4v2.3h-0.4
				V330.9z"/>
			<path id="XMLID_870_" fill="#CBCBCB" d="M1166.9,331.5v-4.7h2c0.2,0,0.4,0,0.6,0.1c0.2,0.1,0.3,0.2,0.4,0.3
				c0.1,0.1,0.2,0.3,0.3,0.5c0.1,0.2,0.1,0.4,0.1,0.5c0,0.2,0,0.3-0.1,0.5c-0.1,0.2-0.1,0.3-0.2,0.4c-0.1,0.1-0.2,0.2-0.3,0.3
				c-0.1,0.1-0.3,0.1-0.4,0.2l1.2,1.8h-0.5l-1.1-1.7h-1.4v1.7H1166.9z M1167.3,329.4h1.5c0.1,0,0.3,0,0.4-0.1s0.2-0.1,0.3-0.2
				c0.1-0.1,0.1-0.2,0.2-0.3c0-0.1,0.1-0.3,0.1-0.4s0-0.3-0.1-0.4c-0.1-0.1-0.1-0.2-0.2-0.3c-0.1-0.1-0.2-0.2-0.3-0.2
				c-0.1-0.1-0.2-0.1-0.4-0.1h-1.5V329.4z"/>
			<path id="XMLID_867_" fill="#CBCBCB" d="M1170.9,331.5l2-4.7h0.4l2,4.7h-0.5l-0.6-1.5h-2.1l-0.6,1.5H1170.9z M1173.1,327.4
				l-1,2.3h1.9L1173.1,327.4z"/>
			<path id="XMLID_865_" fill="#CBCBCB" d="M1179,327.3h-1.7v4.3h-0.5v-4.3h-1.7v-0.4h3.8V327.3z"/>
			<path id="XMLID_863_" fill="#CBCBCB" d="M1180,331.5v-4.7h0.5v4.7H1180z"/>
			<path id="XMLID_860_" fill="#CBCBCB" d="M1183.8,331.6c-0.3,0-0.6-0.1-0.9-0.2c-0.3-0.1-0.5-0.3-0.7-0.5
				c-0.2-0.2-0.3-0.5-0.4-0.8c-0.1-0.3-0.2-0.6-0.2-0.9c0-0.3,0.1-0.6,0.2-0.9c0.1-0.3,0.3-0.5,0.5-0.8c0.2-0.2,0.4-0.4,0.7-0.5
				c0.3-0.1,0.6-0.2,0.9-0.2c0.3,0,0.6,0.1,0.9,0.2c0.3,0.1,0.5,0.3,0.7,0.5c0.2,0.2,0.3,0.5,0.4,0.8c0.1,0.3,0.2,0.6,0.2,0.9
				c0,0.3-0.1,0.6-0.2,0.9c-0.1,0.3-0.3,0.5-0.5,0.8c-0.2,0.2-0.4,0.4-0.7,0.5C1184.4,331.5,1184.2,331.6,1183.8,331.6z
				 M1182.1,329.2c0,0.3,0,0.5,0.1,0.7c0.1,0.2,0.2,0.4,0.4,0.6c0.2,0.2,0.3,0.3,0.5,0.4c0.2,0.1,0.4,0.2,0.7,0.2
				c0.3,0,0.5-0.1,0.7-0.2c0.2-0.1,0.4-0.3,0.5-0.4c0.2-0.2,0.3-0.4,0.3-0.6c0.1-0.2,0.1-0.5,0.1-0.7c0-0.3,0-0.5-0.1-0.7
				c-0.1-0.2-0.2-0.4-0.4-0.6c-0.2-0.2-0.3-0.3-0.5-0.4c-0.2-0.1-0.4-0.2-0.7-0.2c-0.3,0-0.5,0.1-0.7,0.2c-0.2,0.1-0.4,0.3-0.5,0.4
				c-0.1,0.2-0.3,0.4-0.3,0.6C1182.1,328.7,1182.1,329,1182.1,329.2z"/>
			<path id="XMLID_858_" fill="#CBCBCB" d="M1187.7,327.7v3.8h-0.5v-4.7h0.4l3.1,3.9v-3.9h0.5v4.7h-0.4L1187.7,327.7z"/>
			<path id="XMLID_856_" fill="#CBCBCB" d="M1197.3,327.7c-0.1-0.1-0.3-0.3-0.5-0.4c-0.2-0.1-0.5-0.1-0.7-0.1
				c-0.4,0-0.7,0.1-0.9,0.2c-0.2,0.2-0.3,0.4-0.3,0.6c0,0.1,0,0.3,0.1,0.3c0.1,0.1,0.1,0.2,0.2,0.2c0.1,0.1,0.2,0.1,0.4,0.2
				c0.2,0,0.4,0.1,0.6,0.1c0.3,0.1,0.5,0.1,0.7,0.2c0.2,0.1,0.4,0.1,0.5,0.2c0.1,0.1,0.2,0.2,0.3,0.4s0.1,0.3,0.1,0.5
				c0,0.2,0,0.4-0.1,0.6c-0.1,0.2-0.2,0.3-0.3,0.4c-0.1,0.1-0.3,0.2-0.5,0.2c-0.2,0.1-0.4,0.1-0.7,0.1c-0.7,0-1.4-0.2-1.9-0.7
				l0.2-0.4c0.2,0.2,0.4,0.3,0.7,0.5c0.3,0.1,0.6,0.2,1,0.2c0.4,0,0.7-0.1,0.9-0.2c0.2-0.1,0.3-0.3,0.3-0.6c0-0.1,0-0.3-0.1-0.4
				c-0.1-0.1-0.1-0.2-0.3-0.3c-0.1-0.1-0.3-0.1-0.4-0.2c-0.2-0.1-0.4-0.1-0.6-0.2c-0.2-0.1-0.5-0.1-0.6-0.2s-0.3-0.1-0.5-0.2
				s-0.2-0.2-0.3-0.3c-0.1-0.1-0.1-0.3-0.1-0.5c0-0.2,0-0.4,0.1-0.6c0.1-0.2,0.2-0.3,0.3-0.4c0.1-0.1,0.3-0.2,0.5-0.3
				c0.2-0.1,0.4-0.1,0.7-0.1c0.3,0,0.6,0,0.8,0.1c0.2,0.1,0.5,0.2,0.7,0.4L1197.3,327.7z"/>
			<path id="XMLID_853_" fill="#CBCBCB" d="M1198.8,331.5v-4.7h1.9c0.2,0,0.4,0,0.6,0.1c0.2,0.1,0.3,0.2,0.4,0.3
				c0.1,0.1,0.2,0.3,0.3,0.5c0.1,0.2,0.1,0.4,0.1,0.5c0,0.2,0,0.4-0.1,0.6c-0.1,0.2-0.2,0.3-0.3,0.5c-0.1,0.1-0.3,0.2-0.4,0.3
				c-0.2,0.1-0.3,0.1-0.6,0.1h-1.5v1.7H1198.8z M1199.3,329.4h1.5c0.1,0,0.3,0,0.4-0.1c0.1-0.1,0.2-0.1,0.3-0.2
				c0.1-0.1,0.1-0.2,0.2-0.3c0-0.1,0.1-0.3,0.1-0.4c0-0.1,0-0.3-0.1-0.4c-0.1-0.1-0.1-0.2-0.2-0.3c-0.1-0.1-0.2-0.2-0.3-0.2
				c-0.1-0.1-0.2-0.1-0.4-0.1h-1.5V329.4z"/>
			<path id="XMLID_851_" fill="#CBCBCB" d="M1206.3,331.1v0.4h-3.2v-4.7h3.1v0.4h-2.6v1.7h2.3v0.4h-2.3v1.8H1206.3z"/>
			<path id="XMLID_849_" fill="#CBCBCB" d="M1207.2,329.2c0-0.3,0.1-0.6,0.1-0.8c0.1-0.3,0.2-0.5,0.4-0.7c0.2-0.2,0.4-0.4,0.7-0.5
				c0.3-0.1,0.6-0.2,0.9-0.2c0.4,0,0.8,0.1,1.1,0.3c0.3,0.2,0.5,0.4,0.7,0.7l-0.4,0.2c-0.1-0.2-0.2-0.3-0.3-0.4
				c-0.1-0.1-0.2-0.2-0.3-0.3c-0.1-0.1-0.3-0.1-0.4-0.1c-0.1,0-0.3,0-0.4,0c-0.3,0-0.5,0.1-0.7,0.2c-0.2,0.1-0.4,0.3-0.5,0.4
				c-0.1,0.2-0.3,0.4-0.3,0.6c-0.1,0.2-0.1,0.5-0.1,0.7c0,0.3,0,0.5,0.1,0.7c0.1,0.2,0.2,0.4,0.4,0.6c0.2,0.2,0.3,0.3,0.6,0.4
				c0.2,0.1,0.4,0.2,0.7,0.2c0.1,0,0.3,0,0.4,0c0.1,0,0.3-0.1,0.4-0.2c0.1-0.1,0.2-0.2,0.4-0.3c0.1-0.1,0.2-0.2,0.3-0.4l0.4,0.2
				c-0.1,0.2-0.2,0.3-0.3,0.5c-0.1,0.1-0.3,0.2-0.5,0.3c-0.2,0.1-0.3,0.2-0.5,0.2c-0.2,0-0.4,0.1-0.6,0.1c-0.3,0-0.6-0.1-0.9-0.2
				c-0.3-0.1-0.5-0.3-0.7-0.6c-0.2-0.2-0.3-0.5-0.5-0.8C1207.3,329.8,1207.2,329.5,1207.2,329.2z"/>
			<path id="XMLID_847_" fill="#CBCBCB" d="M1212.3,331.5v-4.7h0.5v4.7H1212.3z"/>
			<path id="XMLID_844_" fill="#CBCBCB" d="M1213.7,331.5l2-4.7h0.4l2,4.7h-0.5l-0.6-1.5h-2.1l-0.6,1.5H1213.7z M1215.9,327.4
				l-1,2.3h1.9L1215.9,327.4z"/>
			<path id="XMLID_842_" fill="#CBCBCB" d="M1219,331.5v-4.7h0.5v4.3h2.7v0.4H1219z"/>
			<path id="XMLID_840_" fill="#CBCBCB" d="M1223.1,331.5v-4.7h0.5v4.7H1223.1z"/>
			<path id="XMLID_838_" fill="#CBCBCB" d="M1227.8,327.7c-0.1-0.1-0.3-0.3-0.5-0.4c-0.2-0.1-0.5-0.1-0.7-0.1
				c-0.4,0-0.7,0.1-0.9,0.2c-0.2,0.2-0.3,0.4-0.3,0.6c0,0.1,0,0.3,0.1,0.3c0.1,0.1,0.1,0.2,0.2,0.2c0.1,0.1,0.2,0.1,0.4,0.2
				c0.2,0,0.4,0.1,0.6,0.1c0.3,0.1,0.5,0.1,0.7,0.2c0.2,0.1,0.4,0.1,0.5,0.2c0.1,0.1,0.2,0.2,0.3,0.4s0.1,0.3,0.1,0.5
				c0,0.2,0,0.4-0.1,0.6c-0.1,0.2-0.2,0.3-0.3,0.4c-0.1,0.1-0.3,0.2-0.5,0.2c-0.2,0.1-0.4,0.1-0.7,0.1c-0.7,0-1.4-0.2-1.9-0.7
				l0.2-0.4c0.2,0.2,0.4,0.3,0.7,0.5c0.3,0.1,0.6,0.2,1,0.2c0.4,0,0.7-0.1,0.9-0.2c0.2-0.1,0.3-0.3,0.3-0.6c0-0.1,0-0.3-0.1-0.4
				c-0.1-0.1-0.1-0.2-0.3-0.3c-0.1-0.1-0.3-0.1-0.4-0.2c-0.2-0.1-0.4-0.1-0.6-0.2c-0.2-0.1-0.5-0.1-0.6-0.2s-0.3-0.1-0.5-0.2
				s-0.2-0.2-0.3-0.3c-0.1-0.1-0.1-0.3-0.1-0.5c0-0.2,0-0.4,0.1-0.6c0.1-0.2,0.2-0.3,0.3-0.4c0.1-0.1,0.3-0.2,0.5-0.3
				c0.2-0.1,0.4-0.1,0.7-0.1c0.3,0,0.6,0,0.8,0.1c0.2,0.1,0.5,0.2,0.7,0.4L1227.8,327.7z"/>
			<path id="XMLID_836_" fill="#CBCBCB" d="M1232.6,327.3h-1.7v4.3h-0.5v-4.3h-1.7v-0.4h3.8V327.3z"/>
		</g>
	</g>
</g>
<g id="XMLID_1852_">
	<path id="XMLID_1857_" fill="#39B44A" d="M1126.4,329.6c0,0.2,0,0.5-0.1,0.7c-0.1,0.2-0.1,0.4-0.2,0.5c-0.1,0.1-0.2,0.3-0.3,0.4
		c-0.4,0.5-1.1,0.8-1.8,0.8c-1.3,0-2.4-1.1-2.4-2.4c0-0.7,0.3-1.4,0.8-1.8c0.1-0.1,0.3-0.2,0.4-0.3c0.3-0.2,0.8-0.3,1.2-0.3
		c0.7,0,1.3,0.3,1.7,0.7C1126.2,328.4,1126.4,329,1126.4,329.6z"/>
	<path id="XMLID_1855_" fill="#B3B3B3" d="M1130.4,316.3c-4.5,0-8.2,3.7-8.2,8.2c0,0.9,0.2,1.8,0.5,2.7c0,0,0,0,0.1,0
		c0.2-0.1,0.4-0.2,0.6-0.2c-0.3-0.8-0.4-1.6-0.4-2.4c0-4.1,3.4-7.5,7.5-7.5c4.1,0,7.5,3.4,7.5,7.5c0,2.3-1,4.4-2.7,5.7
		c-1.3,1.1-3,1.8-4.8,1.8c-1.4,0-2.6-0.4-3.7-1c0,0,0,0.1,0,0.1c0,0.1-0.1,0.1-0.1,0.2c-0.1,0.1-0.1,0.2-0.2,0.3
		c1.2,0.7,2.6,1.1,4.1,1.1c4.5,0,8.2-3.7,8.2-8.2C1138.6,319.9,1134.9,316.3,1130.4,316.3z"/>
	<path id="XMLID_1854_" fill="#B3B3B3" d="M1135,328.9c-1.2,1.1-2.8,1.7-4.5,1.7c-1.2,0-2.4-0.3-3.4-0.9c0-0.1,0.1-0.1,0.1-0.2
		c0,0,0-0.1,0-0.1c0.1-0.2,0.1-0.3,0.2-0.5c0.1-0.2,0.1-0.5,0.1-0.7v0c0.6-0.3,1.1-0.3,1.1-0.3c0,0,0-2,0-1.9
		c0.1,0.1,0.9,0.6,1.1,0.7c0,0,0,0,0,0c0.1,0,0.1,0,0.2,0h0.9c0.4,0,0.8-0.4,1.2-0.8v1.7c0,0,1.2,0.4,2.6,1.1
		C1134.8,328.8,1134.9,328.9,1135,328.9z"/>
	<path id="XMLID_1853_" fill="#B3B3B3" d="M1132.8,321.4v1.7c0,0.7-0.4,1.7-0.9,2.3c-0.3,0.4-0.7,0.7-1.2,0.7h-0.5
		c-0.4,0-0.8-0.2-1.1-0.6c-0.6-0.6-0.9-1.7-0.9-2.4v-1.7c0-1.1,0.9-2.1,2.1-2.1h0.5C1131.9,319.3,1132.8,320.2,1132.8,321.4z"/>
</g>
<g id="XMLID_724_">
	<g id="XMLID_1711_">
		<g id="XMLID_630_">
			<path id="XMLID_664_" fill="#FFFFFF" d="M1152.5,411.9v-4.2l-1.8,3.3h-0.4l-1.8-3.3v4.2h-0.7v-5.5h0.7l2,3.6l2-3.6h0.7v5.5
				H1152.5z"/>
			<path id="XMLID_661_" fill="#FFFFFF" d="M1154.3,411.9l2.3-5.5h0.6l2.3,5.5h-0.7l-0.7-1.6h-2.3l-0.6,1.6H1154.3z M1156.8,407.2
				l-1,2.5h2L1156.8,407.2z"/>
			<path id="XMLID_658_" fill="#FFFFFF" d="M1160.4,411.9v-5.5h2.4c0.2,0,0.5,0.1,0.7,0.2c0.2,0.1,0.4,0.2,0.5,0.4
				c0.1,0.2,0.3,0.4,0.3,0.6c0.1,0.2,0.1,0.4,0.1,0.6c0,0.2,0,0.4-0.1,0.6c-0.1,0.2-0.1,0.3-0.2,0.5c-0.1,0.1-0.2,0.3-0.4,0.4
				c-0.1,0.1-0.3,0.2-0.5,0.2l1.3,2.1h-0.8l-1.3-2h-1.5v2H1160.4z M1161.1,409.3h1.7c0.1,0,0.3,0,0.4-0.1c0.1-0.1,0.2-0.1,0.3-0.3
				c0.1-0.1,0.1-0.2,0.2-0.4c0-0.1,0.1-0.3,0.1-0.4c0-0.2,0-0.3-0.1-0.4c-0.1-0.1-0.1-0.3-0.2-0.4c-0.1-0.1-0.2-0.2-0.3-0.2
				c-0.1-0.1-0.2-0.1-0.4-0.1h-1.6V409.3z"/>
			<path id="XMLID_656_" fill="#FFFFFF" d="M1169.7,407h-1.9v4.9h-0.7V407h-1.9v-0.6h4.5V407z"/>
			<path id="XMLID_654_" fill="#FFFFFF" d="M1170.8,411.9v-5.5h0.7v5.5H1170.8z"/>
			<path id="XMLID_652_" fill="#FFFFFF" d="M1173.8,407.7v4.2h-0.7v-5.5h0.5l3.4,4.3v-4.3h0.7v5.5h-0.6L1173.8,407.7z"/>
			<path id="XMLID_650_" fill="#FFFFFF" d="M1181.6,411.9v-5.5h0.7v4.9h3.1v0.6H1181.6z"/>
			<path id="XMLID_647_" fill="#FFFFFF" d="M1185.9,411.9l2.3-5.5h0.6l2.3,5.5h-0.7l-0.7-1.6h-2.3l-0.6,1.6H1185.9z M1188.4,407.2
				l-1,2.5h2L1188.4,407.2z"/>
			<path id="XMLID_645_" fill="#FFFFFF" d="M1194.1,411.3c0.3,0,0.6-0.1,0.8-0.2c0.2-0.1,0.4-0.3,0.5-0.5c0.1-0.2,0.2-0.4,0.3-0.7
				c0.1-0.3,0.1-0.5,0.1-0.8v-2.8h0.7v2.8c0,0.4,0,0.7-0.1,1.1c-0.1,0.3-0.2,0.6-0.4,0.9c-0.2,0.3-0.4,0.5-0.7,0.6
				c-0.3,0.1-0.7,0.2-1.1,0.2c-0.4,0-0.8-0.1-1.1-0.2c-0.3-0.2-0.5-0.4-0.7-0.6c-0.2-0.3-0.3-0.5-0.4-0.9s-0.1-0.7-0.1-1v-2.8h0.7
				v2.8c0,0.3,0,0.5,0.1,0.8c0.1,0.3,0.1,0.5,0.3,0.7c0.1,0.2,0.3,0.4,0.5,0.5C1193.5,411.2,1193.7,411.3,1194.1,411.3z"/>
			<path id="XMLID_642_" fill="#FFFFFF" d="M1197.9,411.9v-5.5h2.4c0.2,0,0.5,0.1,0.7,0.2c0.2,0.1,0.4,0.2,0.5,0.4
				c0.1,0.2,0.3,0.4,0.3,0.6c0.1,0.2,0.1,0.4,0.1,0.6c0,0.2,0,0.4-0.1,0.6c-0.1,0.2-0.1,0.3-0.2,0.5c-0.1,0.1-0.2,0.3-0.4,0.4
				c-0.1,0.1-0.3,0.2-0.5,0.2l1.3,2.1h-0.8l-1.3-2h-1.5v2H1197.9z M1198.6,409.3h1.7c0.1,0,0.3,0,0.4-0.1c0.1-0.1,0.2-0.1,0.3-0.3
				c0.1-0.1,0.1-0.2,0.2-0.4c0-0.1,0.1-0.3,0.1-0.4c0-0.2,0-0.3-0.1-0.4c-0.1-0.1-0.1-0.3-0.2-0.4c-0.1-0.1-0.2-0.2-0.3-0.2
				c-0.1-0.1-0.2-0.1-0.4-0.1h-1.6V409.3z"/>
			<path id="XMLID_638_" fill="#FFFFFF" d="M1207.1,411.2v0.6h-3.7v-5.5h3.7v0.6h-3v1.8h2.6v0.6h-2.6v1.9H1207.1z"/>
			<path id="XMLID_636_" fill="#FFFFFF" d="M1209.1,407.7v4.2h-0.7v-5.5h0.5l3.4,4.3v-4.3h0.7v5.5h-0.6L1209.1,407.7z"/>
			<path id="XMLID_633_" fill="#FFFFFF" d="M1214.3,409.1c0-0.3,0.1-0.7,0.2-1c0.1-0.3,0.3-0.6,0.5-0.9c0.2-0.3,0.5-0.5,0.8-0.6
				c0.3-0.2,0.7-0.2,1.1-0.2c0.5,0,0.9,0.1,1.3,0.3c0.4,0.2,0.6,0.5,0.8,0.9l-0.5,0.4c-0.1-0.2-0.2-0.3-0.3-0.4
				c-0.1-0.1-0.2-0.2-0.4-0.3c-0.1-0.1-0.3-0.1-0.4-0.2c-0.1,0-0.3,0-0.4,0c-0.3,0-0.6,0.1-0.8,0.2c-0.2,0.1-0.4,0.3-0.6,0.5
				c-0.2,0.2-0.3,0.4-0.4,0.7c-0.1,0.3-0.1,0.5-0.1,0.8c0,0.3,0,0.6,0.1,0.8c0.1,0.3,0.2,0.5,0.4,0.7c0.2,0.2,0.4,0.4,0.6,0.5
				c0.2,0.1,0.5,0.2,0.8,0.2c0.1,0,0.3,0,0.4-0.1c0.2,0,0.3-0.1,0.4-0.2c0.1-0.1,0.3-0.2,0.4-0.3c0.1-0.1,0.2-0.3,0.3-0.4l0.6,0.3
				c-0.1,0.2-0.2,0.4-0.4,0.5c-0.2,0.2-0.3,0.3-0.5,0.4c-0.2,0.1-0.4,0.2-0.6,0.2c-0.2,0.1-0.4,0.1-0.7,0.1c-0.4,0-0.7-0.1-1-0.2
				c-0.3-0.2-0.6-0.4-0.8-0.6c-0.2-0.3-0.4-0.6-0.5-0.9C1214.4,409.8,1214.3,409.4,1214.3,409.1z"/>
			<path id="XMLID_631_" fill="#FFFFFF" d="M1224,411.2v0.6h-3.7v-5.5h3.7v0.6h-3v1.8h2.6v0.6h-2.6v1.9H1224z"/>
		</g>
	</g>
	<g id="XMLID_1438_">
		<g id="XMLID_952_">
			<path id="XMLID_1010_" fill="#CBCBCB" d="M1150.3,417.4c-0.1-0.1-0.3-0.3-0.5-0.3c-0.2-0.1-0.4-0.1-0.7-0.1
				c-0.4,0-0.7,0.1-0.9,0.2c-0.2,0.1-0.3,0.4-0.3,0.6c0,0.1,0,0.2,0.1,0.3c0,0.1,0.1,0.2,0.2,0.2c0.1,0.1,0.2,0.1,0.4,0.2
				c0.2,0,0.3,0.1,0.6,0.1c0.2,0.1,0.5,0.1,0.6,0.2c0.2,0.1,0.3,0.1,0.5,0.2c0.1,0.1,0.2,0.2,0.3,0.3c0.1,0.1,0.1,0.3,0.1,0.5
				c0,0.2,0,0.4-0.1,0.5c-0.1,0.2-0.2,0.3-0.3,0.4c-0.1,0.1-0.3,0.2-0.5,0.2c-0.2,0-0.4,0.1-0.6,0.1c-0.7,0-1.3-0.2-1.8-0.6l0.2-0.4
				c0.2,0.2,0.4,0.3,0.7,0.4c0.3,0.1,0.6,0.2,0.9,0.2c0.4,0,0.6-0.1,0.8-0.2c0.2-0.1,0.3-0.3,0.3-0.6c0-0.1,0-0.3-0.1-0.3
				c-0.1-0.1-0.1-0.2-0.3-0.2c-0.1-0.1-0.3-0.1-0.4-0.2c-0.2-0.1-0.4-0.1-0.6-0.2c-0.2-0.1-0.4-0.1-0.6-0.2
				c-0.2-0.1-0.3-0.1-0.4-0.2s-0.2-0.2-0.3-0.3c-0.1-0.1-0.1-0.3-0.1-0.5c0-0.2,0-0.4,0.1-0.6s0.2-0.3,0.3-0.4
				c0.1-0.1,0.3-0.2,0.5-0.2c0.2-0.1,0.4-0.1,0.6-0.1c0.3,0,0.6,0,0.8,0.1c0.2,0.1,0.4,0.2,0.6,0.4L1150.3,417.4z"/>
			<path id="XMLID_1005_" fill="#CBCBCB" d="M1153.5,421c-0.3,0-0.6-0.1-0.9-0.2c-0.3-0.1-0.5-0.3-0.7-0.5c-0.2-0.2-0.3-0.5-0.4-0.7
				c-0.1-0.3-0.2-0.6-0.2-0.8c0-0.3,0.1-0.6,0.2-0.9c0.1-0.3,0.3-0.5,0.4-0.7c0.2-0.2,0.4-0.4,0.7-0.5c0.3-0.1,0.5-0.2,0.8-0.2
				c0.3,0,0.6,0.1,0.9,0.2c0.3,0.1,0.5,0.3,0.7,0.5c0.2,0.2,0.3,0.5,0.4,0.7c0.1,0.3,0.2,0.5,0.2,0.8c0,0.3-0.1,0.6-0.2,0.9
				s-0.3,0.5-0.4,0.7c-0.2,0.2-0.4,0.4-0.7,0.5C1154.1,421,1153.8,421,1153.5,421z M1151.9,418.8c0,0.2,0,0.5,0.1,0.7
				c0.1,0.2,0.2,0.4,0.3,0.6c0.1,0.2,0.3,0.3,0.5,0.4c0.2,0.1,0.4,0.2,0.7,0.2c0.3,0,0.5-0.1,0.7-0.2c0.2-0.1,0.4-0.3,0.5-0.4
				c0.1-0.2,0.3-0.4,0.3-0.6c0.1-0.2,0.1-0.4,0.1-0.7c0-0.2,0-0.5-0.1-0.7s-0.2-0.4-0.3-0.6c-0.1-0.2-0.3-0.3-0.5-0.4
				c-0.2-0.1-0.4-0.2-0.7-0.2c-0.3,0-0.5,0.1-0.7,0.2c-0.2,0.1-0.4,0.2-0.5,0.4s-0.3,0.4-0.3,0.6
				C1151.9,418.3,1151.9,418.5,1151.9,418.8z"/>
			<path id="XMLID_996_" fill="#CBCBCB" d="M1156.7,421v-4.5h0.4v4.1h2.6v0.4H1156.7z"/>
			<path id="XMLID_994_" fill="#CBCBCB" d="M1162.2,420.6c0.3,0,0.5-0.1,0.7-0.2c0.2-0.1,0.3-0.2,0.4-0.4c0.1-0.2,0.2-0.4,0.2-0.6
				c0-0.2,0.1-0.4,0.1-0.7v-2.2h0.4v2.2c0,0.3,0,0.6-0.1,0.9c-0.1,0.3-0.2,0.5-0.3,0.7c-0.1,0.2-0.3,0.4-0.6,0.5
				c-0.2,0.1-0.5,0.2-0.9,0.2c-0.4,0-0.7-0.1-0.9-0.2c-0.2-0.1-0.4-0.3-0.6-0.5c-0.1-0.2-0.3-0.4-0.3-0.7c-0.1-0.3-0.1-0.5-0.1-0.8
				v-2.2h0.4v2.2c0,0.2,0,0.5,0.1,0.7c0,0.2,0.1,0.4,0.2,0.6c0.1,0.2,0.3,0.3,0.4,0.4C1161.7,420.6,1161.9,420.6,1162.2,420.6z"/>
			<path id="XMLID_992_" fill="#CBCBCB" d="M1168.6,416.9h-1.6v4.1h-0.4v-4.1h-1.6v-0.4h3.6V416.9z"/>
			<path id="XMLID_990_" fill="#CBCBCB" d="M1169.5,421v-4.5h0.4v4.5H1169.5z"/>
			<path id="XMLID_987_" fill="#CBCBCB" d="M1173.2,421c-0.3,0-0.6-0.1-0.9-0.2c-0.3-0.1-0.5-0.3-0.7-0.5c-0.2-0.2-0.3-0.5-0.4-0.7
				c-0.1-0.3-0.2-0.6-0.2-0.8c0-0.3,0.1-0.6,0.2-0.9c0.1-0.3,0.3-0.5,0.4-0.7c0.2-0.2,0.4-0.4,0.7-0.5c0.3-0.1,0.5-0.2,0.8-0.2
				c0.3,0,0.6,0.1,0.9,0.2c0.3,0.1,0.5,0.3,0.7,0.5c0.2,0.2,0.3,0.5,0.4,0.7c0.1,0.3,0.2,0.5,0.2,0.8c0,0.3-0.1,0.6-0.2,0.9
				s-0.3,0.5-0.4,0.7c-0.2,0.2-0.4,0.4-0.7,0.5C1173.7,421,1173.4,421,1173.2,421z M1171.5,418.8c0,0.2,0,0.5,0.1,0.7
				c0.1,0.2,0.2,0.4,0.3,0.6c0.1,0.2,0.3,0.3,0.5,0.4c0.2,0.1,0.4,0.2,0.7,0.2c0.3,0,0.5-0.1,0.7-0.2c0.2-0.1,0.4-0.3,0.5-0.4
				c0.1-0.2,0.3-0.4,0.3-0.6c0.1-0.2,0.1-0.4,0.1-0.7c0-0.2,0-0.5-0.1-0.7s-0.2-0.4-0.3-0.6c-0.1-0.2-0.3-0.3-0.5-0.4
				c-0.2-0.1-0.4-0.2-0.7-0.2c-0.3,0-0.5,0.1-0.7,0.2c-0.2,0.1-0.4,0.2-0.5,0.4c-0.1,0.2-0.3,0.4-0.3,0.6
				C1171.5,418.3,1171.5,418.5,1171.5,418.8z"/>
			<path id="XMLID_985_" fill="#CBCBCB" d="M1176.8,417.4v3.6h-0.4v-4.5h0.3l3,3.7v-3.7h0.4v4.5h-0.4L1176.8,417.4z"/>
			<path id="XMLID_982_" fill="#CBCBCB" d="M1182.6,421l1.9-4.5h0.4l1.9,4.5h-0.5l-0.6-1.4h-2l-0.6,1.4H1182.6z M1184.7,417.1
				l-0.9,2.2h1.8L1184.7,417.1z"/>
			<path id="XMLID_979_" fill="#CBCBCB" d="M1187.6,421v-4.5h1.5c0.4,0,0.7,0.1,0.9,0.2c0.3,0.1,0.5,0.3,0.7,0.5s0.3,0.4,0.4,0.7
				c0.1,0.3,0.1,0.6,0.1,0.9c0,0.3-0.1,0.6-0.2,0.9c-0.1,0.3-0.2,0.5-0.4,0.7c-0.2,0.2-0.4,0.3-0.7,0.5c-0.3,0.1-0.6,0.2-0.9,0.2
				H1187.6z M1190.8,418.8c0-0.3,0-0.5-0.1-0.7c-0.1-0.2-0.2-0.4-0.3-0.6c-0.1-0.2-0.3-0.3-0.5-0.4c-0.2-0.1-0.5-0.1-0.7-0.1h-1.1
				v3.7h1.1c0.3,0,0.5,0,0.7-0.1c0.2-0.1,0.4-0.2,0.5-0.4c0.1-0.2,0.3-0.4,0.3-0.6C1190.8,419.3,1190.8,419,1190.8,418.8z"/>
			<path id="XMLID_977_" fill="#CBCBCB" d="M1196.3,421v-3.7l-1.6,2.8h-0.3l-1.6-2.8v3.7h-0.4v-4.5h0.4l1.7,3.1l1.7-3.1h0.4v4.5
				H1196.3z"/>
			<path id="XMLID_975_" fill="#CBCBCB" d="M1198.2,421v-4.5h0.4v4.5H1198.2z"/>
			<path id="XMLID_973_" fill="#CBCBCB" d="M1200.4,417.4v3.6h-0.4v-4.5h0.3l3,3.7v-3.7h0.4v4.5h-0.4L1200.4,417.4z"/>
			<path id="XMLID_971_" fill="#CBCBCB" d="M1205.1,421v-4.5h0.4v4.5H1205.1z"/>
			<path id="XMLID_969_" fill="#CBCBCB" d="M1209.5,417.4c-0.1-0.1-0.3-0.3-0.5-0.3c-0.2-0.1-0.4-0.1-0.7-0.1
				c-0.4,0-0.7,0.1-0.9,0.2c-0.2,0.1-0.3,0.4-0.3,0.6c0,0.1,0,0.2,0.1,0.3c0,0.1,0.1,0.2,0.2,0.2c0.1,0.1,0.2,0.1,0.4,0.2
				c0.2,0,0.3,0.1,0.6,0.1c0.2,0.1,0.5,0.1,0.6,0.2c0.2,0.1,0.3,0.1,0.5,0.2c0.1,0.1,0.2,0.2,0.3,0.3c0.1,0.1,0.1,0.3,0.1,0.5
				c0,0.2,0,0.4-0.1,0.5c-0.1,0.2-0.2,0.3-0.3,0.4c-0.1,0.1-0.3,0.2-0.5,0.2c-0.2,0-0.4,0.1-0.6,0.1c-0.7,0-1.3-0.2-1.8-0.6l0.2-0.4
				c0.2,0.2,0.4,0.3,0.7,0.4c0.3,0.1,0.6,0.2,0.9,0.2c0.4,0,0.6-0.1,0.8-0.2c0.2-0.1,0.3-0.3,0.3-0.6c0-0.1,0-0.3-0.1-0.3
				c-0.1-0.1-0.1-0.2-0.3-0.2c-0.1-0.1-0.3-0.1-0.4-0.2c-0.2-0.1-0.4-0.1-0.6-0.2c-0.2-0.1-0.4-0.1-0.6-0.2
				c-0.2-0.1-0.3-0.1-0.4-0.2c-0.1-0.1-0.2-0.2-0.3-0.3c-0.1-0.1-0.1-0.3-0.1-0.5c0-0.2,0-0.4,0.1-0.6s0.2-0.3,0.3-0.4
				c0.1-0.1,0.3-0.2,0.5-0.2c0.2-0.1,0.4-0.1,0.6-0.1c0.3,0,0.6,0,0.8,0.1c0.2,0.1,0.4,0.2,0.6,0.4L1209.5,417.4z"/>
			<path id="XMLID_967_" fill="#CBCBCB" d="M1214.1,416.9h-1.6v4.1h-0.4v-4.1h-1.6v-0.4h3.6V416.9z"/>
			<path id="XMLID_964_" fill="#CBCBCB" d="M1215.1,421v-4.5h1.9c0.2,0,0.4,0,0.5,0.1c0.2,0.1,0.3,0.2,0.4,0.3
				c0.1,0.1,0.2,0.3,0.3,0.4c0.1,0.2,0.1,0.3,0.1,0.5c0,0.2,0,0.3-0.1,0.5c0,0.1-0.1,0.3-0.2,0.4c-0.1,0.1-0.2,0.2-0.3,0.3
				c-0.1,0.1-0.3,0.1-0.4,0.2l1.1,1.7h-0.5l-1.1-1.6h-1.3v1.6H1215.1z M1215.5,419h1.5c0.1,0,0.2,0,0.4-0.1c0.1-0.1,0.2-0.1,0.3-0.2
				c0.1-0.1,0.1-0.2,0.2-0.3s0.1-0.2,0.1-0.4c0-0.1,0-0.3-0.1-0.4c0-0.1-0.1-0.2-0.2-0.3c-0.1-0.1-0.2-0.2-0.3-0.2
				c-0.1-0.1-0.2-0.1-0.3-0.1h-1.4V419z"/>
			<path id="XMLID_961_" fill="#CBCBCB" d="M1218.9,421l1.9-4.5h0.4l1.9,4.5h-0.5l-0.6-1.4h-2l-0.6,1.4H1218.9z M1221,417.1
				l-0.9,2.2h1.8L1221,417.1z"/>
			<path id="XMLID_959_" fill="#CBCBCB" d="M1226.7,416.9h-1.6v4.1h-0.4v-4.1h-1.6v-0.4h3.6V416.9z"/>
			<path id="XMLID_956_" fill="#CBCBCB" d="M1229.2,421c-0.3,0-0.6-0.1-0.9-0.2c-0.3-0.1-0.5-0.3-0.7-0.5c-0.2-0.2-0.3-0.5-0.4-0.7
				c-0.1-0.3-0.2-0.6-0.2-0.8c0-0.3,0.1-0.6,0.2-0.9c0.1-0.3,0.3-0.5,0.4-0.7c0.2-0.2,0.4-0.4,0.7-0.5c0.3-0.1,0.5-0.2,0.8-0.2
				c0.3,0,0.6,0.1,0.9,0.2c0.3,0.1,0.5,0.3,0.7,0.5c0.2,0.2,0.3,0.5,0.4,0.7c0.1,0.3,0.2,0.5,0.2,0.8c0,0.3-0.1,0.6-0.2,0.9
				c-0.1,0.3-0.3,0.5-0.4,0.7c-0.2,0.2-0.4,0.4-0.7,0.5C1229.8,421,1229.5,421,1229.2,421z M1227.5,418.8c0,0.2,0,0.5,0.1,0.7
				c0.1,0.2,0.2,0.4,0.3,0.6s0.3,0.3,0.5,0.4c0.2,0.1,0.4,0.2,0.7,0.2c0.3,0,0.5-0.1,0.7-0.2c0.2-0.1,0.4-0.3,0.5-0.4
				c0.1-0.2,0.3-0.4,0.3-0.6c0.1-0.2,0.1-0.4,0.1-0.7c0-0.2,0-0.5-0.1-0.7c-0.1-0.2-0.2-0.4-0.3-0.6c-0.1-0.2-0.3-0.3-0.5-0.4
				c-0.2-0.1-0.4-0.2-0.7-0.2c-0.3,0-0.5,0.1-0.7,0.2c-0.2,0.1-0.4,0.2-0.5,0.4c-0.1,0.2-0.3,0.4-0.3,0.6
				C1227.6,418.3,1227.5,418.5,1227.5,418.8z"/>
			<path id="XMLID_953_" fill="#CBCBCB" d="M1232.4,421v-4.5h1.9c0.2,0,0.4,0,0.5,0.1c0.2,0.1,0.3,0.2,0.4,0.3
				c0.1,0.1,0.2,0.3,0.3,0.4c0.1,0.2,0.1,0.3,0.1,0.5c0,0.2,0,0.3-0.1,0.5c0,0.1-0.1,0.3-0.2,0.4c-0.1,0.1-0.2,0.2-0.3,0.3
				c-0.1,0.1-0.3,0.1-0.4,0.2l1.1,1.7h-0.5l-1.1-1.6h-1.3v1.6H1232.4z M1232.8,419h1.5c0.1,0,0.2,0,0.4-0.1c0.1-0.1,0.2-0.1,0.3-0.2
				c0.1-0.1,0.1-0.2,0.2-0.3s0.1-0.2,0.1-0.4c0-0.1,0-0.3-0.1-0.4c0-0.1-0.1-0.2-0.2-0.3c-0.1-0.1-0.2-0.2-0.3-0.2
				c-0.1-0.1-0.2-0.1-0.3-0.1h-1.4V419z"/>
		</g>
	</g>
</g>
<g id="XMLID_1432_">
	<path id="XMLID_1437_" fill="#39B44A" d="M1127.4,420.5c0,0.2,0,0.5-0.1,0.7c-0.1,0.2-0.1,0.4-0.2,0.5c-0.1,0.1-0.2,0.3-0.3,0.4
		c-0.4,0.5-1.1,0.8-1.8,0.8c-1.3,0-2.4-1.1-2.4-2.4c0-0.7,0.3-1.4,0.8-1.8c0.1-0.1,0.3-0.2,0.4-0.3c0.3-0.2,0.8-0.3,1.2-0.3
		c0.7,0,1.3,0.3,1.7,0.7C1127.2,419.2,1127.4,419.8,1127.4,420.5z"/>
	<path id="XMLID_1435_" fill="#B3B3B3" d="M1131.4,407.1c-4.5,0-8.2,3.7-8.2,8.2c0,0.9,0.2,1.8,0.5,2.7c0,0,0,0,0.1,0
		c0.2-0.1,0.4-0.2,0.6-0.2c-0.3-0.8-0.4-1.6-0.4-2.4c0-4.1,3.4-7.5,7.5-7.5c4.1,0,7.5,3.4,7.5,7.5c0,2.3-1,4.4-2.7,5.7
		c-1.3,1.1-3,1.8-4.8,1.8c-1.4,0-2.6-0.4-3.7-1c0,0,0,0.1,0,0.1c0,0.1-0.1,0.1-0.1,0.2c-0.1,0.1-0.1,0.2-0.2,0.3
		c1.2,0.7,2.6,1.1,4.1,1.1c4.5,0,8.2-3.7,8.2-8.2C1139.6,410.7,1135.9,407.1,1131.4,407.1z"/>
	<path id="XMLID_1434_" fill="#B3B3B3" d="M1136,419.7c-1.2,1.1-2.8,1.7-4.5,1.7c-1.2,0-2.4-0.3-3.4-0.9c0-0.1,0.1-0.1,0.1-0.2
		c0,0,0-0.1,0-0.1c0.1-0.2,0.1-0.3,0.2-0.5c0.1-0.2,0.1-0.5,0.1-0.7v0c0.6-0.3,1.1-0.3,1.1-0.3c0,0,0-2,0-1.9
		c0.1,0.1,0.9,0.6,1.1,0.7c0,0,0,0,0,0c0.1,0,0.1,0,0.2,0h0.9c0.4,0,0.8-0.4,1.2-0.8v1.7c0,0,1.2,0.4,2.6,1.1
		C1135.8,419.6,1135.9,419.7,1136,419.7z"/>
	<path id="XMLID_1433_" fill="#B3B3B3" d="M1133.8,412.2v1.7c0,0.7-0.4,1.7-0.9,2.3c-0.3,0.4-0.7,0.7-1.2,0.7h-0.5
		c-0.4,0-0.8-0.2-1.1-0.6c-0.6-0.6-0.9-1.7-0.9-2.4v-1.7c0-1.1,0.9-2.1,2.1-2.1h0.5C1132.9,410.1,1133.8,411,1133.8,412.2z"/>
</g>
<g id="XMLID_723_">
	<g id="XMLID_1288_">
		<g id="XMLID_556_">
			<path id="XMLID_621_" fill="#FFFFFF" d="M1150.4,361.9c-0.1-0.1-0.1-0.1-0.2-0.2c-0.1-0.1-0.2-0.1-0.3-0.2
				c-0.1-0.1-0.3-0.1-0.4-0.1c-0.2,0-0.3,0-0.5,0c-0.4,0-0.7,0.1-0.9,0.2c-0.2,0.2-0.3,0.4-0.3,0.7c0,0.1,0,0.3,0.1,0.4
				c0.1,0.1,0.1,0.2,0.3,0.2c0.1,0.1,0.3,0.1,0.4,0.2c0.2,0.1,0.4,0.1,0.6,0.2c0.3,0.1,0.5,0.1,0.8,0.2s0.4,0.2,0.6,0.3
				c0.2,0.1,0.3,0.3,0.4,0.4c0.1,0.2,0.1,0.4,0.1,0.6c0,0.3-0.1,0.5-0.2,0.7c-0.1,0.2-0.2,0.4-0.4,0.5c-0.2,0.1-0.4,0.2-0.6,0.3
				c-0.2,0.1-0.5,0.1-0.8,0.1c-0.4,0-0.8-0.1-1.2-0.2c-0.4-0.1-0.7-0.3-1-0.6l0.3-0.6c0.1,0.1,0.2,0.2,0.3,0.3
				c0.1,0.1,0.3,0.2,0.4,0.2c0.2,0.1,0.3,0.1,0.5,0.2c0.2,0,0.4,0.1,0.6,0.1c0.4,0,0.7-0.1,0.9-0.2c0.2-0.1,0.3-0.3,0.3-0.6
				c0-0.2,0-0.3-0.1-0.4c-0.1-0.1-0.2-0.2-0.3-0.3c-0.1-0.1-0.3-0.1-0.5-0.2c-0.2-0.1-0.4-0.1-0.7-0.2c-0.3-0.1-0.5-0.1-0.7-0.2
				c-0.2-0.1-0.4-0.2-0.5-0.3c-0.1-0.1-0.2-0.2-0.3-0.4c-0.1-0.2-0.1-0.3-0.1-0.6c0-0.3,0-0.5,0.1-0.7c0.1-0.2,0.2-0.4,0.4-0.5
				s0.4-0.2,0.6-0.3c0.2-0.1,0.5-0.1,0.8-0.1c0.4,0,0.7,0.1,1,0.2c0.3,0.1,0.6,0.3,0.8,0.5L1150.4,361.9z"/>
			<path id="XMLID_618_" fill="#FFFFFF" d="M1151.6,366.2l2.2-5.4h0.6l2.2,5.4h-0.7l-0.6-1.6h-2.3l-0.6,1.6H1151.6z M1154.1,361.6
				l-1,2.5h2L1154.1,361.6z"/>
			<path id="XMLID_615_" fill="#FFFFFF" d="M1157.6,366.2v-5.4h2.3c0.2,0,0.5,0,0.7,0.1c0.2,0.1,0.4,0.2,0.5,0.4
				c0.1,0.2,0.3,0.4,0.3,0.6c0.1,0.2,0.1,0.4,0.1,0.6c0,0.2,0,0.4-0.1,0.5c-0.1,0.2-0.1,0.3-0.2,0.5c-0.1,0.1-0.2,0.3-0.4,0.4
				c-0.1,0.1-0.3,0.2-0.5,0.2l1.3,2.1h-0.8l-1.2-2h-1.4v2H1157.6z M1158.3,363.7h1.6c0.1,0,0.3,0,0.4-0.1c0.1-0.1,0.2-0.1,0.3-0.2
				c0.1-0.1,0.1-0.2,0.2-0.4c0-0.1,0.1-0.3,0.1-0.4c0-0.2,0-0.3-0.1-0.4c-0.1-0.1-0.1-0.3-0.2-0.4c-0.1-0.1-0.2-0.2-0.3-0.2
				c-0.1-0.1-0.2-0.1-0.4-0.1h-1.6V363.7z"/>
			<path id="XMLID_575_" fill="#FFFFFF" d="M1162.4,366.2l2.2-5.4h0.6l2.2,5.4h-0.7l-0.6-1.6h-2.3l-0.6,1.6H1162.4z M1164.9,361.6
				l-1,2.5h2L1164.9,361.6z"/>
			<path id="XMLID_573_" fill="#FFFFFF" d="M1172.9,360.8v5.4h-0.7v-2.5h-3v2.5h-0.7v-5.4h0.7v2.4h3v-2.4H1172.9z"/>
			<path id="XMLID_571_" fill="#FFFFFF" d="M1181.4,366.2V362l-1.8,3.2h-0.4l-1.8-3.2v4.2h-0.7v-5.4h0.7l2,3.5l2-3.5h0.7v5.4H1181.4
				z"/>
			<path id="XMLID_569_" fill="#FFFFFF" d="M1183.7,366.2v-5.4h0.7v5.4H1183.7z"/>
			<path id="XMLID_567_" fill="#FFFFFF" d="M1185.7,363.5c0-0.3,0.1-0.7,0.2-1c0.1-0.3,0.3-0.6,0.5-0.9c0.2-0.3,0.5-0.5,0.8-0.6
				c0.3-0.2,0.7-0.2,1.1-0.2c0.5,0,0.9,0.1,1.2,0.3c0.3,0.2,0.6,0.5,0.8,0.9l-0.5,0.4c-0.1-0.2-0.2-0.3-0.3-0.4
				c-0.1-0.1-0.2-0.2-0.4-0.3c-0.1-0.1-0.3-0.1-0.4-0.2c-0.1,0-0.3,0-0.4,0c-0.3,0-0.6,0.1-0.8,0.2c-0.2,0.1-0.4,0.3-0.6,0.5
				c-0.2,0.2-0.3,0.4-0.4,0.7c-0.1,0.3-0.1,0.5-0.1,0.8c0,0.3,0,0.6,0.1,0.8c0.1,0.3,0.2,0.5,0.4,0.7c0.2,0.2,0.4,0.4,0.6,0.5
				c0.2,0.1,0.5,0.2,0.8,0.2c0.1,0,0.3,0,0.4-0.1c0.2,0,0.3-0.1,0.4-0.2c0.1-0.1,0.3-0.2,0.4-0.3c0.1-0.1,0.2-0.3,0.3-0.4l0.6,0.3
				c-0.1,0.2-0.2,0.4-0.4,0.5c-0.2,0.2-0.3,0.3-0.5,0.4c-0.2,0.1-0.4,0.2-0.6,0.2c-0.2,0.1-0.4,0.1-0.6,0.1c-0.4,0-0.7-0.1-1-0.2
				c-0.3-0.2-0.6-0.4-0.8-0.6c-0.2-0.3-0.4-0.6-0.5-0.9C1185.7,364.2,1185.7,363.8,1185.7,363.5z"/>
			<path id="XMLID_565_" fill="#FFFFFF" d="M1195.9,360.8v5.4h-0.7v-2.5h-3v2.5h-0.7v-5.4h0.7v2.4h3v-2.4H1195.9z"/>
			<path id="XMLID_563_" fill="#FFFFFF" d="M1201.2,365.6v0.6h-3.7v-5.4h3.6v0.6h-2.9v1.8h2.6v0.6h-2.6v1.9H1201.2z"/>
			<path id="XMLID_561_" fill="#FFFFFF" d="M1202.5,366.2v-5.4h0.7v4.8h3v0.6H1202.5z"/>
			<path id="XMLID_559_" fill="#FFFFFF" d="M1207.3,366.2v-5.4h0.7v4.8h3v0.6H1207.3z"/>
			<path id="XMLID_557_" fill="#FFFFFF" d="M1215.9,365.6v0.6h-3.7v-5.4h3.6v0.6h-2.9v1.8h2.6v0.6h-2.6v1.9H1215.9z"/>
		</g>
	</g>
	<g id="XMLID_1003_">
		<g id="XMLID_694_">
			<path id="XMLID_753_" fill="#CBCBCB" d="M1149.7,371.2c-0.1-0.1-0.3-0.3-0.5-0.3c-0.2-0.1-0.4-0.1-0.7-0.1
				c-0.4,0-0.7,0.1-0.9,0.2c-0.2,0.1-0.3,0.3-0.3,0.6c0,0.1,0,0.2,0.1,0.3c0,0.1,0.1,0.2,0.2,0.2c0.1,0.1,0.2,0.1,0.4,0.2
				c0.2,0,0.3,0.1,0.6,0.1c0.2,0,0.4,0.1,0.6,0.2c0.2,0.1,0.3,0.1,0.5,0.2c0.1,0.1,0.2,0.2,0.3,0.3c0.1,0.1,0.1,0.3,0.1,0.5
				c0,0.2,0,0.4-0.1,0.5c-0.1,0.1-0.2,0.3-0.3,0.4c-0.1,0.1-0.3,0.2-0.5,0.2c-0.2,0-0.4,0.1-0.6,0.1c-0.7,0-1.3-0.2-1.8-0.6l0.2-0.4
				c0.2,0.2,0.4,0.3,0.7,0.4c0.3,0.1,0.6,0.2,0.9,0.2c0.4,0,0.6-0.1,0.8-0.2c0.2-0.1,0.3-0.3,0.3-0.6c0-0.1,0-0.3-0.1-0.3
				c-0.1-0.1-0.1-0.2-0.3-0.2c-0.1-0.1-0.3-0.1-0.4-0.2c-0.2,0-0.4-0.1-0.6-0.1c-0.2-0.1-0.4-0.1-0.6-0.2c-0.2-0.1-0.3-0.1-0.4-0.2
				c-0.1-0.1-0.2-0.2-0.3-0.3c-0.1-0.1-0.1-0.3-0.1-0.5c0-0.2,0-0.4,0.1-0.5s0.2-0.3,0.3-0.4c0.1-0.1,0.3-0.2,0.5-0.2
				c0.2-0.1,0.4-0.1,0.6-0.1c0.3,0,0.6,0,0.8,0.1c0.2,0.1,0.4,0.2,0.6,0.4L1149.7,371.2z"/>
			<path id="XMLID_751_" fill="#CBCBCB" d="M1154.2,374.4v0.4h-3v-4.4h2.9v0.4h-2.5v1.6h2.2v0.4h-2.2v1.7H1154.2z"/>
			<path id="XMLID_748_" fill="#CBCBCB" d="M1155.3,374.8v-4.4h1.9c0.2,0,0.4,0,0.5,0.1c0.2,0.1,0.3,0.2,0.4,0.3
				c0.1,0.1,0.2,0.3,0.3,0.4c0.1,0.2,0.1,0.3,0.1,0.5c0,0.2,0,0.3-0.1,0.5c0,0.1-0.1,0.3-0.2,0.4c-0.1,0.1-0.2,0.2-0.3,0.3
				c-0.1,0.1-0.3,0.1-0.4,0.2l1.1,1.7h-0.5l-1-1.6h-1.3v1.6H1155.3z M1155.7,372.8h1.5c0.1,0,0.2,0,0.4-0.1c0.1-0.1,0.2-0.1,0.3-0.2
				c0.1-0.1,0.1-0.2,0.2-0.3s0.1-0.2,0.1-0.4c0-0.1,0-0.3-0.1-0.4c0-0.1-0.1-0.2-0.2-0.3c-0.1-0.1-0.2-0.2-0.3-0.2
				c-0.1-0.1-0.2-0.1-0.3-0.1h-1.4V372.8z"/>
			<path id="XMLID_746_" fill="#CBCBCB" d="M1159.5,370.4l1.6,3.9l1.6-3.9h0.5l-1.8,4.4h-0.4l-1.8-4.4H1159.5z"/>
			<path id="XMLID_744_" fill="#CBCBCB" d="M1164,374.8v-4.4h0.4v4.4H1164z"/>
			<path id="XMLID_742_" fill="#CBCBCB" d="M1165.5,372.6c0-0.3,0-0.5,0.1-0.8c0.1-0.3,0.2-0.5,0.4-0.7c0.2-0.2,0.4-0.4,0.7-0.5
				c0.3-0.1,0.6-0.2,0.9-0.2c0.4,0,0.7,0.1,1,0.3c0.3,0.2,0.5,0.4,0.6,0.7l-0.3,0.2c-0.1-0.1-0.2-0.3-0.3-0.4
				c-0.1-0.1-0.2-0.2-0.3-0.2c-0.1-0.1-0.2-0.1-0.4-0.1c-0.1,0-0.2,0-0.4,0c-0.3,0-0.5,0.1-0.7,0.2c-0.2,0.1-0.4,0.2-0.5,0.4
				c-0.1,0.2-0.2,0.4-0.3,0.6c-0.1,0.2-0.1,0.4-0.1,0.7c0,0.2,0,0.5,0.1,0.7c0.1,0.2,0.2,0.4,0.3,0.6c0.1,0.2,0.3,0.3,0.5,0.4
				c0.2,0.1,0.4,0.2,0.7,0.2c0.1,0,0.3,0,0.4,0c0.1,0,0.3-0.1,0.4-0.1c0.1-0.1,0.2-0.2,0.3-0.3c0.1-0.1,0.2-0.2,0.3-0.4l0.4,0.2
				c-0.1,0.2-0.2,0.3-0.3,0.4c-0.1,0.1-0.3,0.2-0.4,0.3c-0.2,0.1-0.3,0.2-0.5,0.2c-0.2,0-0.3,0.1-0.5,0.1c-0.3,0-0.6-0.1-0.8-0.2
				c-0.3-0.1-0.5-0.3-0.7-0.5c-0.2-0.2-0.3-0.5-0.4-0.7C1165.5,373.2,1165.5,372.9,1165.5,372.6z"/>
			<path id="XMLID_740_" fill="#CBCBCB" d="M1173.3,374.4v0.4h-3v-4.4h2.9v0.4h-2.5v1.6h2.2v0.4h-2.2v1.7H1173.3z"/>
			<path id="XMLID_738_" fill="#CBCBCB" d="M1179.2,370.8h-1.6v4h-0.4v-4h-1.6v-0.4h3.6V370.8z"/>
			<path id="XMLID_736_" fill="#CBCBCB" d="M1183.1,374.4v0.4h-3v-4.4h2.9v0.4h-2.5v1.6h2.2v0.4h-2.2v1.7H1183.1z"/>
			<path id="XMLID_734_" fill="#CBCBCB" d="M1183.9,372.6c0-0.3,0-0.5,0.1-0.8c0.1-0.3,0.2-0.5,0.4-0.7c0.2-0.2,0.4-0.4,0.7-0.5
				c0.3-0.1,0.6-0.2,0.9-0.2c0.4,0,0.7,0.1,1,0.3c0.3,0.2,0.5,0.4,0.6,0.7l-0.3,0.2c-0.1-0.1-0.2-0.3-0.3-0.4
				c-0.1-0.1-0.2-0.2-0.3-0.2c-0.1-0.1-0.2-0.1-0.4-0.1c-0.1,0-0.2,0-0.4,0c-0.3,0-0.5,0.1-0.7,0.2c-0.2,0.1-0.4,0.2-0.5,0.4
				c-0.1,0.2-0.2,0.4-0.3,0.6c-0.1,0.2-0.1,0.4-0.1,0.7c0,0.2,0,0.5,0.1,0.7c0.1,0.2,0.2,0.4,0.3,0.6c0.1,0.2,0.3,0.3,0.5,0.4
				c0.2,0.1,0.4,0.2,0.7,0.2c0.1,0,0.3,0,0.4,0c0.1,0,0.3-0.1,0.4-0.1c0.1-0.1,0.2-0.2,0.3-0.3c0.1-0.1,0.2-0.2,0.3-0.4l0.4,0.2
				c-0.1,0.2-0.2,0.3-0.3,0.4c-0.1,0.1-0.3,0.2-0.4,0.3c-0.2,0.1-0.3,0.2-0.5,0.2c-0.2,0-0.3,0.1-0.5,0.1c-0.3,0-0.6-0.1-0.8-0.2
				c-0.3-0.1-0.5-0.3-0.7-0.5c-0.2-0.2-0.3-0.5-0.4-0.7C1183.9,373.2,1183.9,372.9,1183.9,372.6z"/>
			<path id="XMLID_732_" fill="#CBCBCB" d="M1192.2,370.4v4.4h-0.4v-2.1h-2.6v2.1h-0.4v-4.4h0.4v2h2.6v-2H1192.2z"/>
			<path id="XMLID_727_" fill="#CBCBCB" d="M1194,371.2v3.6h-0.4v-4.4h0.3l2.9,3.7v-3.7h0.4v4.4h-0.4L1194,371.2z"/>
			<path id="XMLID_704_" fill="#CBCBCB" d="M1198.6,374.8v-4.4h0.4v4.4H1198.6z"/>
			<path id="XMLID_702_" fill="#CBCBCB" d="M1200.1,372.6c0-0.3,0-0.5,0.1-0.8c0.1-0.3,0.2-0.5,0.4-0.7c0.2-0.2,0.4-0.4,0.7-0.5
				c0.3-0.1,0.6-0.2,0.9-0.2c0.4,0,0.7,0.1,1,0.3c0.3,0.2,0.5,0.4,0.6,0.7l-0.3,0.2c-0.1-0.1-0.2-0.3-0.3-0.4
				c-0.1-0.1-0.2-0.2-0.3-0.2c-0.1-0.1-0.2-0.1-0.4-0.1c-0.1,0-0.2,0-0.4,0c-0.3,0-0.5,0.1-0.7,0.2c-0.2,0.1-0.4,0.2-0.5,0.4
				c-0.1,0.2-0.2,0.4-0.3,0.6c-0.1,0.2-0.1,0.4-0.1,0.7c0,0.2,0,0.5,0.1,0.7c0.1,0.2,0.2,0.4,0.3,0.6c0.1,0.2,0.3,0.3,0.5,0.4
				c0.2,0.1,0.4,0.2,0.7,0.2c0.1,0,0.3,0,0.4,0c0.1,0,0.3-0.1,0.4-0.1c0.1-0.1,0.2-0.2,0.3-0.3c0.1-0.1,0.2-0.2,0.3-0.4l0.4,0.2
				c-0.1,0.2-0.2,0.3-0.3,0.4c-0.1,0.1-0.3,0.2-0.4,0.3c-0.2,0.1-0.3,0.2-0.5,0.2c-0.2,0-0.3,0.1-0.5,0.1c-0.3,0-0.6-0.1-0.8-0.2
				c-0.3-0.1-0.5-0.3-0.7-0.5c-0.2-0.2-0.3-0.5-0.4-0.7C1200.2,373.2,1200.1,372.9,1200.1,372.6z"/>
			<path id="XMLID_700_" fill="#CBCBCB" d="M1205,374.8v-4.4h0.4v4.4H1205z"/>
			<path id="XMLID_697_" fill="#CBCBCB" d="M1206.3,374.8l1.8-4.4h0.4l1.8,4.4h-0.5l-0.6-1.4h-2l-0.6,1.4H1206.3z M1208.3,370.9
				l-0.9,2.2h1.8L1208.3,370.9z"/>
			<path id="XMLID_695_" fill="#CBCBCB" d="M1211.7,371.2v3.6h-0.4v-4.4h0.3l2.9,3.7v-3.7h0.4v4.4h-0.4L1211.7,371.2z"/>
		</g>
	</g>
</g>
<g id="XMLID_997_">
	<path id="XMLID_1002_" fill="#39B44A" d="M1127.4,373c0,0.2,0,0.5-0.1,0.7c-0.1,0.2-0.1,0.4-0.2,0.5c-0.1,0.1-0.2,0.3-0.3,0.4
		c-0.4,0.5-1.1,0.8-1.8,0.8c-1.3,0-2.4-1.1-2.4-2.4c0-0.7,0.3-1.4,0.8-1.8c0.1-0.1,0.3-0.2,0.4-0.3c0.3-0.2,0.8-0.3,1.2-0.3
		c0.7,0,1.3,0.3,1.7,0.7C1127.2,371.8,1127.4,372.4,1127.4,373z"/>
	<path id="XMLID_1000_" fill="#B3B3B3" d="M1131.4,359.6c-4.5,0-8.2,3.7-8.2,8.2c0,0.9,0.2,1.8,0.5,2.7c0,0,0,0,0.1,0
		c0.2-0.1,0.4-0.2,0.6-0.2c-0.3-0.8-0.4-1.6-0.4-2.4c0-4.1,3.4-7.5,7.5-7.5c4.1,0,7.5,3.4,7.5,7.5c0,2.3-1,4.4-2.7,5.7
		c-1.3,1.1-3,1.8-4.8,1.8c-1.4,0-2.6-0.4-3.7-1c0,0,0,0.1,0,0.1c0,0.1-0.1,0.1-0.1,0.2c-0.1,0.1-0.1,0.2-0.2,0.3
		c1.2,0.7,2.6,1.1,4.1,1.1c4.5,0,8.2-3.7,8.2-8.2C1139.6,363.3,1135.9,359.6,1131.4,359.6z"/>
	<path id="XMLID_999_" fill="#B3B3B3" d="M1136,372.3c-1.2,1.1-2.8,1.7-4.5,1.7c-1.2,0-2.4-0.3-3.4-0.9c0-0.1,0.1-0.1,0.1-0.2
		c0,0,0-0.1,0-0.1c0.1-0.2,0.1-0.3,0.2-0.5c0.1-0.2,0.1-0.5,0.1-0.7v0c0.6-0.3,1.1-0.3,1.1-0.3c0,0,0-2,0-1.9
		c0.1,0.1,0.9,0.6,1.1,0.7c0,0,0,0,0,0c0.1,0,0.1,0,0.2,0h0.9c0.4,0,0.8-0.4,1.2-0.8v1.7c0,0,1.2,0.4,2.6,1.1
		C1135.8,372.2,1135.9,372.2,1136,372.3z"/>
	<path id="XMLID_998_" fill="#B3B3B3" d="M1133.8,364.7v1.7c0,0.7-0.4,1.7-0.9,2.3c-0.3,0.4-0.7,0.7-1.2,0.7h-0.5
		c-0.4,0-0.8-0.2-1.1-0.6c-0.6-0.6-0.9-1.7-0.9-2.4v-1.7c0-1.1,0.9-2.1,2.1-2.1h0.5C1132.9,362.7,1133.8,363.6,1133.8,364.7z"/>
</g>
<g id="XMLID_728_">
	<defs>
		<rect id="XMLID_729_" x="1104.8" y="22" width="175.3" height="67.1"/>
	</defs>
	<clipPath id="XMLID_6_">
		<use xlink:href="#XMLID_729_"  overflow="visible"/>
	</clipPath>
	<g id="XMLID_730_" clip-path="url(#XMLID_6_)">
		
			<image overflow="visible" opacity="0.4" width="197" height="69" id="XMLID_56_" xlink:href="D631F0C33B5FBC02.png"  transform="matrix(1 0 0 1 1092 13)">
		</image>
		<g id="XMLID_43_">
			<rect id="XMLID_53_" x="1095.9" y="15.7" fill="#212121" width="189.8" height="62.2"/>
		</g>
	</g>
</g>
<g id="XMLID_719_" opacity="0.7">
	<defs>
		<rect id="XMLID_720_" x="1104.8" y="213" opacity="0.7" width="175.2" height="67.1"/>
	</defs>
	<clipPath id="XMLID_7_">
		<use xlink:href="#XMLID_720_"  overflow="visible"/>
	</clipPath>
	<g id="XMLID_721_" opacity="0.5" clip-path="url(#XMLID_7_)">
		
			<image overflow="visible" opacity="0.4" width="197" height="51" id="XMLID_50_" xlink:href="D631F0C33B5FBC06.png"  transform="matrix(1 0 0 1 1092 211)">
		</image>
		<g id="XMLID_33_">
			<rect id="XMLID_49_" x="1095.9" y="213" fill="#202020" width="189.8" height="44.9"/>
		</g>
	</g>
</g>
<g id="XMLID_716_" opacity="0.2">
	<rect id="XMLID_718_" x="1104.8" y="21.2" fill="#111111" width="24.1" height="56.7"/>
</g>
<g id="XMLID_385_">
	<path id="XMLID_714_" fill="#B2B2B2" d="M1143.7,45.9v9.3h-1.5v-9.3h-3.2l0-1.4h7.8l0,1.4H1143.7z"/>
	<path id="XMLID_712_" fill="#B2B2B2" d="M1154.7,55.2v-4.9h-5v4.9h-1.5V44.5h1.5V49h5v-4.5h1.5v10.7H1154.7z"/>
	<path id="XMLID_710_" fill="#B2B2B2" d="M1166.6,51.3c0,2.8-1.5,4-4.1,4c-2.6,0-4.1-1.2-4.1-4v-6.8h1.5v6.8c0,1.9,0.9,2.7,2.6,2.7
		c1.8,0,2.6-0.8,2.6-2.7v-6.8h1.5V51.3z"/>
	<path id="XMLID_708_" fill="#B2B2B2" d="M1175.8,55.2l-5-7.4l-0.6-1l0,0l0,1.2v7.2h-1.3V44.5h1.3l5.4,8.1l0,0l0-1.1v-6.9h1.3v10.7
		H1175.8z"/>
	<path id="XMLID_705_" fill="#B2B2B2" d="M1183,55.2h-3.7V44.5h3.7c3.2,0,4.6,1.6,4.6,5.3C1187.6,53.7,1186.1,55.2,1183,55.2z
		 M1183,45.9h-2.2v8h2.2c2.1,0,3.1-0.8,3.1-4C1186.1,46.7,1185.2,45.9,1183,45.9z"/>
	<path id="XMLID_639_" fill="#B2B2B2" d="M1196.4,53.8l0,1.3h-6.8V44.5h6.6l0,1.3h-5.2V49h4.4v1.2h-4.4v3.6H1196.4z"/>
	<path id="XMLID_399_" fill="#B2B2B2" d="M1203.1,50.4l2.8,4.8h-1.7l-2.4-4.5h-2.2v4.5h-1.5V44.5h3.6c2.3,0,3.4,1,3.4,3
		C1205.2,49.2,1204.5,50.2,1203.1,50.4z M1201.8,45.8h-2.2v3.8h2.1c1.4,0,2-0.5,2-1.9C1203.7,46.3,1203.1,45.8,1201.8,45.8z"/>
	<path id="XMLID_395_" fill="#F05F43" d="M1211.4,55.2h-3.9V44.5h3.7c2,0,3,0.8,3,2.6c0,1.4-0.7,2.1-1.6,2.4v0c1.3,0.3,2,1.1,2,2.7
		C1214.6,54.1,1213.8,55.2,1211.4,55.2z M1211.4,50h-3v4.4h3c1.4,0,2.3-0.6,2.3-2.2C1213.7,50.7,1212.9,50,1211.4,50z M1211.2,45.3
		h-2.8v3.9h2.9c1.3,0,2-0.7,2-2C1213.3,45.9,1212.6,45.3,1211.2,45.3z"/>
	<path id="XMLID_392_" fill="#F05F43" d="M1217.4,44.5h0.9v10.7h-0.9V44.5z"/>
	<path id="XMLID_389_" fill="#F05F43" d="M1226.1,50.2l3,5h-1.1l-2.7-4.8h-2.5v4.8h-0.9V44.5h3.5c2.2,0,3.1,0.9,3.1,2.9
		C1228.3,49.1,1227.5,50,1226.1,50.2z M1225.2,45.3h-2.5v4.3h2.4c1.6,0,2.3-0.6,2.3-2.2C1227.4,45.9,1226.7,45.3,1225.2,45.3z"/>
	<path id="XMLID_386_" fill="#F05F43" d="M1234.5,55.2h-3.5V44.5h3.5c3.1,0,4.5,1.5,4.5,5.3C1239,53.7,1237.6,55.2,1234.5,55.2z
		 M1234.5,45.4h-2.5v8.9h2.5c2.4,0,3.5-1,3.5-4.5C1238,46.4,1237,45.4,1234.5,45.4z"/>
</g>
<g id="XMLID_372_">
	<rect id="XMLID_383_" x="1109" y="44.2" fill="#CCCCCC" width="12.6" height="1.5"/>
	<rect id="XMLID_379_" x="1109" y="48.4" fill="#CCCCCC" width="12.6" height="1.5"/>
	<rect id="XMLID_378_" x="1109" y="52.5" fill="#CCCCCC" width="12.6" height="1.5"/>
</g>
<text id="XMLID_370_" transform="matrix(1 0 0 1 1144.5586 148.1343)" fill="#E6E6E6" font-family="'ClanOT-Book'" font-size="9.6323px">TASK LIST</text>
<text id="XMLID_369_" transform="matrix(1 0 0 1 1142.7227 105.3418)" fill="#E6E6E6" font-family="'ClanOT-Book'" font-size="9px">ACCOUNT INFO</text>
<path id="XMLID_330_" fill="#999999" d="M1262,105.3c-0.1,0-0.1,0-0.2-0.1l-2.8-2.8c-0.1-0.1-0.1-0.2,0-0.3c0.1-0.1,0.2-0.1,0.3,0
	l2.6,2.6l2.6-2.6c0.1-0.1,0.2-0.1,0.3,0c0.1,0.1,0.1,0.2,0,0.3l-2.8,2.8C1262.1,105.3,1262,105.3,1262,105.3z"/>
<path id="XMLID_329_" fill="#999999" d="M1262,147.1c-0.1,0-0.1,0-0.2-0.1l-2.8-2.8c-0.1-0.1-0.1-0.2,0-0.3c0.1-0.1,0.2-0.1,0.3,0
	l2.6,2.6l2.6-2.6c0.1-0.1,0.2-0.1,0.3,0c0.1,0.1,0.1,0.2,0,0.3l-2.8,2.8C1262.1,147.1,1262,147.1,1262,147.1z"/>
<path id="XMLID_328_" fill="#999999" d="M1262,192.4c-0.1,0-0.1,0-0.2-0.1l-2.8-2.8c-0.1-0.1-0.1-0.2,0-0.3c0.1-0.1,0.2-0.1,0.3,0
	l2.6,2.6l2.6-2.6c0.1-0.1,0.2-0.1,0.3,0c0.1,0.1,0.1,0.2,0,0.3l-2.8,2.8C1262.1,192.3,1262,192.4,1262,192.4z"/>
<path id="XMLID_327_" fill="#999999" d="M1263,236.4c0.1,0,0.1,0,0.2,0.1l2.8,2.8c0.1,0.1,0.1,0.2,0,0.3c-0.1,0.1-0.2,0.1-0.3,0
	l-2.6-2.6l-2.6,2.6c-0.1,0.1-0.2,0.1-0.3,0c-0.1-0.1-0.1-0.2,0-0.3l2.8-2.8C1262.9,236.5,1262.9,236.4,1263,236.4z"/>
<g id="XMLID_323_">
	<g id="XMLID_324_">
		<path id="XMLID_326_" fill="#F2F2F2" d="M1122.6,192c-1.4,0-2.9,0-4.3,0c-0.1,0-0.1,0-0.1-0.2c0-0.3,0.1-0.5,0.3-0.7
			c0.2-0.2,0.5-0.5,0.7-0.7c0.1-0.1,0.1-0.1,0.1-0.2c0-0.9,0-1.8,0-2.7c0-0.6,0.1-1.3,0.4-1.8c0.2-0.4,0.5-0.8,0.9-1.1
			c0.4-0.3,0.8-0.5,1.2-0.7c0.1,0,0.2-0.1,0.2-0.2c0-0.2,0-0.4,0.1-0.6c0.2-0.3,0.5-0.5,0.8-0.4c0.4,0.1,0.6,0.3,0.7,0.7
			c0,0.1,0,0.1,0,0.2c0,0.3,0,0.3,0.3,0.4c0.8,0.3,1.5,0.8,1.9,1.6c0.3,0.5,0.4,1,0.4,1.6c0,1,0,2,0,3c0,0.1,0,0.2,0.1,0.2
			c0.3,0.3,0.6,0.6,0.9,0.9c0,0.1,0.1,0.1,0.1,0.2c0,0.1,0,0.2,0,0.3c0,0.1,0,0.1-0.1,0.1c-0.2,0-0.4,0-0.6,0
			C1125.1,192,1123.8,192,1122.6,192z"/>
		<path id="XMLID_325_" fill="#F2F2F2" d="M1123.9,192.8c0,0.7-0.6,1.3-1.3,1.3s-1.3-0.6-1.3-1.3"/>
	</g>
</g>
<text id="XMLID_322_" transform="matrix(1 0 0 1 1144.0996 192.4775)" fill="#E6E6E6" font-family="'ClanOT-Book'" font-size="9.6323px">NOTIFICATIONS</text>
<line id="XMLID_1009_" opacity="0.4" fill="none" stroke="#4D4D4D" stroke-width="0.5" stroke-miterlimit="10" x1="1105" y1="527.1" x2="1280" y2="527.1"/>
<path id="XMLID_1121_" fill="#999999" d="M1262,509.5c-0.1,0-0.1,0-0.2-0.1l-2.8-2.8c-0.1-0.1-0.1-0.2,0-0.3c0.1-0.1,0.2-0.1,0.3,0
	l2.6,2.6l2.6-2.6c0.1-0.1,0.2-0.1,0.3,0c0.1,0.1,0.1,0.2,0,0.3l-2.8,2.8C1262.1,509.5,1262,509.5,1262,509.5z"/>
<text id="XMLID_1011_" transform="matrix(1 0 0 1 1144.0996 509.6391)" fill="#E6E6E6" font-family="'ClanOT-Book'" font-size="9.6323px">SETTINGS</text>
<text id="XMLID_320_" transform="matrix(1 0 0 1 1144.5586 242.8545)" fill="#E6E6E6" font-family="'ClanOT-Book'" font-size="9.6323px">CONTACTS</text>
<g id="XMLID_222_">
	<g id="XMLID_318_">
		<rect id="XMLID_319_" x="1120.4" y="141.1" fill="#F2F2F2" width="7.2" height="1.3"/>
	</g>
	<g id="XMLID_287_">
		<rect id="XMLID_315_" x="1120.4" y="144.2" fill="#F2F2F2" width="7.2" height="1.3"/>
	</g>
	<g id="XMLID_285_">
		<rect id="XMLID_286_" x="1120.4" y="147.3" fill="#F2F2F2" width="7.2" height="1.3"/>
	</g>
	<g id="XMLID_283_">
		<rect id="XMLID_284_" x="1117.6" y="141.1" fill="#F2F2F2" width="1.3" height="1.3"/>
	</g>
	<g id="XMLID_281_">
		<rect id="XMLID_282_" x="1117.6" y="144.2" fill="#F2F2F2" width="1.3" height="1.3"/>
	</g>
	<g id="XMLID_224_">
		<rect id="XMLID_280_" x="1117.6" y="147.3" fill="#F2F2F2" width="1.3" height="1.3"/>
	</g>
</g>
<g id="XMLID_46_">
	<g id="XMLID_55_">
		<path id="XMLID_93_" fill="#F2F2F2" d="M1127.1,105.8c0,0.3,0,0.8,0,0.8h-9c0,0,0-0.5,0-0.8c0-0.8,3.5-1.9,3.5-1.9v-0.8
			c0.3,0.2,0.6,0.4,0.8,0.3h0.4c0.2,0,0.5-0.1,0.7-0.3v0.8C1123.6,104,1127.1,105,1127.1,105.8z"/>
	</g>
	<path id="XMLID_54_" fill="#F2F2F2" d="M1124.6,100.3c0,1-1.2,2.3-1.8,2.3h-0.4c-0.6,0-1.8-1.3-1.8-2.3v-2.1c0-1,0.8-1.8,1.8-1.8
		h0.4c1,0,1.8,0.8,1.8,1.8V100.3z"/>
</g>
<g id="XMLID_38_">
	<path id="XMLID_40_" fill="#FFFFFF" d="M1120,244.6c0-3.4,0-6.9,0-10.3c0,0,0.1,0,0.1,0c2.2,0,4.4,0,6.6,0c0.3,0,0.4,0.2,0.4,0.4
		c0,3.1,0,6.3,0,9.4c0,0.3-0.2,0.4-0.4,0.4c-2.2,0-4.4,0-6.6,0C1120,244.6,1120,244.6,1120,244.6z M1123.5,242.5c0.7,0,1.3,0,2,0
		c0.2,0,0.3-0.1,0.3-0.2c0-0.3,0-0.6,0-0.8c-0.1-0.8-0.5-1.3-1.2-1.6c0,0-0.1,0-0.1,0c-0.6,0.3-1.2,0.3-1.9,0c0,0-0.1,0-0.1,0
		c-0.7,0.3-1.1,0.8-1.2,1.5c0,0.3,0,0.6,0,0.9c0,0.2,0.1,0.3,0.3,0.3C1122.2,242.5,1122.9,242.5,1123.5,242.5z M1125,238
		c0-0.2,0-0.3,0-0.5c-0.1-0.6-0.7-1.1-1.3-1.2c-0.7,0-1.3,0.4-1.5,1.1c-0.1,0.3-0.1,0.6,0,1c0.1,0.6,0.5,1.1,1.2,1.2
		c0.6,0.1,1.2-0.2,1.5-0.8C1124.9,238.6,1125,238.3,1125,238z"/>
	<path id="XMLID_39_" fill="#FFFFFF" d="M1119.4,234.3c0,3.4,0,6.9,0,10.3c0,0-0.1,0-0.1,0c-0.3,0-0.5,0-0.8,0
		c-0.3,0-0.4-0.2-0.4-0.4c0-3.2,0-6.3,0-9.5c0-0.2,0.2-0.4,0.4-0.4C1118.8,234.3,1119.1,234.3,1119.4,234.3
		C1119.4,234.3,1119.4,234.3,1119.4,234.3z"/>
</g>
<g id="XMLID_1008_">
	<path id="XMLID_1122_" fill="#B3B3B3" d="M1127.6,505.3l1.3-1.1l-0.5-1.3l-1.7,0.1c-0.2-0.3-0.5-0.6-0.8-0.9l0.2-1.7l-1.3-0.5
		l-1.1,1.3c-0.4-0.1-0.8-0.1-1.2,0l-1.1-1.3l-1.3,0.5l0.1,1.7c-0.4,0.3-0.7,0.6-0.9,0.9l-1.6-0.2l-0.5,1.3l1.2,1
		c-0.1,0.4-0.1,0.9,0,1.4l-1.2,1l0.5,1.3l1.6-0.1c0.3,0.4,0.6,0.7,1,1l-0.2,1.6l1.3,0.5l1-1.2c0.4,0.1,0.9,0.1,1.4,0l1,1.3l1.3-0.5
		l-0.1-1.6c0.4-0.3,0.7-0.6,0.9-0.9l1.6,0.2l0.5-1.3l-1.3-1.1C1127.6,506.2,1127.6,505.7,1127.6,505.3z M1123,508.2
		c-1.2,0-2.2-1-2.2-2.2c0-1.2,1-2.2,2.2-2.2s2.2,1,2.2,2.2C1125.3,507.2,1124.3,508.2,1123,508.2z"/>
</g>
<text id="XMLID_1014_" transform="matrix(1 0 0 1 1146.1011 279.8545)" fill="#999999" font-family="'ClanOT-Book'" font-size="8px">SEARCH CONTACTS</text>
<g id="XMLID_1016_">
	<g id="XMLID_1128_">
		
			<circle id="XMLID_1131_" fill="none" stroke="#B3B3B3" stroke-width="0.5" stroke-miterlimit="10" cx="1124.5" cy="274.8" r="3.4"/>
		
			<line id="XMLID_1130_" fill="none" stroke="#B3B3B3" stroke-width="0.5" stroke-miterlimit="10" x1="1126.9" y1="277.2" x2="1127.9" y2="278.2"/>
		
			<rect id="XMLID_1129_" x="1129" y="277.4" transform="matrix(-0.7071 0.7071 -0.7071 -0.7071 2126.6497 -320.773)" fill="none" stroke="#B3B3B3" stroke-width="0.5" stroke-miterlimit="10" width="1.4" height="5.3"/>
	</g>
</g>
<rect id="XMLID_3_" x="1104.8" y="213" fill="#F15F43" width="2" height="45"/>
<rect id="XMLID_555_" x="567" y="484.6" fill="#FFFFFF" stroke="#E6E6E6" stroke-width="0.5" stroke-miterlimit="10" width="460.3" height="265.1"/>
<g id="XMLID_552_">
	
		<text id="XMLID_37_" transform="matrix(1 0 0 1 582.0127 510.5403)" fill="#808080" font-family="'ClanOT-Medium'" font-size="10px">CLUSTER REQUESTS</text>
</g>
<g id="XMLID_547_">
	<text id="XMLID_551_" transform="matrix(1 0 0 1 862.2324 709.9839)" fill="#999999" font-family="'ClanOT-News'" font-size="7px">CURRENT OPERATING PERFORMANCE</text>
	<path id="XMLID_550_" fill="#F15F43" d="M854.5,710.5h-3.9c-0.9,0-1.6-0.7-1.6-1.6V705c0-0.9,0.7-1.6,1.6-1.6h3.9
		c0.9,0,1.6,0.7,1.6,1.6v3.9C856.1,709.8,855.4,710.5,854.5,710.5z"/>
	<text id="XMLID_549_" transform="matrix(1 0 0 1 862.7285 727.9839)" fill="#999999" font-family="'ClanOT-News'" font-size="7px">AVERAGE OPERATING PERFORMANCE</text>
	<path id="XMLID_548_" fill="#999999" d="M854.5,728.5h-3.9c-0.9,0-1.6-0.7-1.6-1.6V723c0-0.9,0.7-1.6,1.6-1.6h3.9
		c0.9,0,1.6,0.7,1.6,1.6v3.9C856.1,727.8,855.4,728.5,854.5,728.5z"/>
</g>
<rect id="XMLID_546_" x="613.9" y="536.3" opacity="0.8" fill="#FBFBFB" stroke="#E6E6E6" stroke-miterlimit="10" width="384" height="128"/>
<line id="XMLID_545_" fill="none" stroke="#E6E6E6" stroke-miterlimit="10" x1="613.7" y1="622" x2="997.7" y2="622"/>
<line id="XMLID_544_" fill="none" stroke="#E6E6E6" stroke-miterlimit="10" x1="613.7" y1="579" x2="997.7" y2="579"/>
<text id="XMLID_543_" transform="matrix(1 0 0 1 601.7185 667.9856)" fill="#999999" font-family="'ClanOT-News'" font-size="8px">0</text>
<text id="XMLID_542_" transform="matrix(1 0 0 1 597.1746 626.9856)" fill="#999999" font-family="'ClanOT-News'" font-size="8px">10</text>
<text id="XMLID_541_" transform="matrix(1 0 0 1 597.1746 581.9856)" fill="#999999" font-family="'ClanOT-News'" font-size="8px">20</text>
<text id="XMLID_540_" transform="matrix(1 0 0 1 597.1746 541.9856)" fill="#999999" font-family="'ClanOT-News'" font-size="8px">30</text>
<text id="XMLID_539_" transform="matrix(1 0 0 1 637.6628 684.9856)" fill="#999999" font-family="'ClanOT-News'" font-size="8px">DS-001</text>
<text id="XMLID_530_" transform="matrix(1 0 0 1 741.6628 684.9856)" fill="#999999" font-family="'ClanOT-News'" font-size="8px">DS-003</text>
<text id="XMLID_497_" transform="matrix(1 0 0 1 692.6628 684.9856)" fill="#999999" font-family="'ClanOT-News'" font-size="8px">DS-003</text>
<text id="XMLID_496_" transform="matrix(1 0 0 1 791.6628 684.9856)" fill="#999999" font-family="'ClanOT-News'" font-size="8px">DS-004</text>
<text id="XMLID_495_" transform="matrix(1 0 0 1 845.6628 684.9856)" fill="#999999" font-family="'ClanOT-News'" font-size="8px">DS-005</text>
<text id="XMLID_494_" transform="matrix(1 0 0 1 895.6628 684.9856)" fill="#999999" font-family="'ClanOT-News'" font-size="8px">DS-006</text>
<text id="XMLID_493_" transform="matrix(1 0 0 1 949.6628 684.9856)" fill="#999999" font-family="'ClanOT-News'" font-size="8px">DS-007</text>
<g id="XMLID_489_">
	<rect id="XMLID_492_" x="750.1" y="556.1" fill="#F15F43" width="4" height="108.5"/>
	<rect id="XMLID_491_" x="757.1" y="584.4" fill="#999999" width="4" height="80"/>
	<rect id="XMLID_490_" x="764.1" y="616.1" fill="#5D6166" width="4" height="48.5"/>
</g>
<g id="XMLID_485_">
	<rect id="XMLID_488_" x="801.2" y="546.1" fill="#F15F43" width="4" height="118.5"/>
	<rect id="XMLID_487_" x="808.2" y="604.4" fill="#999999" width="4" height="60"/>
	<rect id="XMLID_486_" x="815.4" y="586.1" fill="#5D6166" width="4" height="78.5"/>
</g>
<g id="XMLID_481_">
	<rect id="XMLID_484_" x="647.7" y="576.1" fill="#F15F43" width="4" height="88.5"/>
	<rect id="XMLID_483_" x="654.7" y="554.4" fill="#999999" width="4" height="110"/>
	<rect id="XMLID_482_" x="662.1" y="604.4" fill="#5D6166" width="4" height="60"/>
</g>
<g id="XMLID_477_">
	<rect id="XMLID_480_" x="852.4" y="626.1" fill="#F15F43" width="4" height="38.5"/>
	<rect id="XMLID_479_" x="859.4" y="604.4" fill="#999999" width="4" height="60"/>
	<rect id="XMLID_478_" x="866.2" y="645.1" fill="#5D6166" width="4" height="19.5"/>
</g>
<g id="XMLID_473_">
	<rect id="XMLID_476_" x="903.6" y="555.1" fill="#F15F43" width="4" height="109.5"/>
	<rect id="XMLID_475_" x="910.6" y="573.4" fill="#999999" width="4" height="91"/>
	<rect id="XMLID_474_" x="917.7" y="606.1" fill="#5D6166" width="4" height="58.5"/>
</g>
<g id="XMLID_349_">
	<rect id="XMLID_472_" x="969.4" y="646.1" fill="#5D6166" width="4" height="18.5"/>
	<rect id="XMLID_471_" x="954.7" y="596.1" fill="#F15F43" width="4" height="68.5"/>
	<rect id="XMLID_470_" x="961.7" y="614.4" fill="#999999" width="4" height="50"/>
</g>
<g id="XMLID_310_">
	<rect id="XMLID_313_" x="698.9" y="586.1" fill="#F15F43" width="4" height="78.5"/>
	<rect id="XMLID_312_" x="705.9" y="574.4" fill="#999999" width="4" height="90"/>
	<rect id="XMLID_311_" x="713.7" y="634.4" fill="#5D6166" width="4" height="30"/>
</g>
<g id="XMLID_305_">
	<polyline id="XMLID_306_" fill="#999999" points="1013.9,504 1009.9,508 1005.9,504 	"/>
</g>
<rect id="XMLID_307_" x="567" y="196.6" fill="#FFFFFF" stroke="#E6E6E6" stroke-width="0.5" stroke-miterlimit="10" width="460.3" height="265.1"/>
<g id="XMLID_304_">
	
		<text id="XMLID_45_" transform="matrix(1 0 0 1 582.0127 222.5547)" fill="#808080" font-family="'ClanOT-Medium'" font-size="10px">SERVER CAPACITY LOG</text>
</g>
<g id="XMLID_241_">
	
		<rect id="XMLID_303_" x="612.9" y="247.3" opacity="0.8" fill="#FBFBFB" stroke="#E6E6E6" stroke-miterlimit="10" width="384" height="128"/>
	<line id="XMLID_302_" fill="none" stroke="#E6E6E6" stroke-miterlimit="10" x1="612.7" y1="333" x2="996.7" y2="333"/>
	<line id="XMLID_300_" fill="none" stroke="#E6E6E6" stroke-miterlimit="10" x1="612.7" y1="290" x2="996.7" y2="290"/>
	<text id="XMLID_299_" transform="matrix(1 0 0 1 600.7185 379)" fill="#999999" font-family="'ClanOT-News'" font-size="8px">0</text>
	<text id="XMLID_298_" transform="matrix(1 0 0 1 596.1746 338)" fill="#999999" font-family="'ClanOT-News'" font-size="8px">10</text>
	<text id="XMLID_269_" transform="matrix(1 0 0 1 596.1746 293)" fill="#999999" font-family="'ClanOT-News'" font-size="8px">20</text>
	<text id="XMLID_268_" transform="matrix(1 0 0 1 596.1746 253)" fill="#999999" font-family="'ClanOT-News'" font-size="8px">30</text>
	<text id="XMLID_267_" transform="matrix(1 0 0 1 636.6628 396)" fill="#999999" font-family="'ClanOT-News'" font-size="8px">DS-001</text>
	<text id="XMLID_266_" transform="matrix(1 0 0 1 740.6628 396)" fill="#999999" font-family="'ClanOT-News'" font-size="8px">DS-003</text>
	<text id="XMLID_265_" transform="matrix(1 0 0 1 691.6628 396)" fill="#999999" font-family="'ClanOT-News'" font-size="8px">DS-003</text>
	<text id="XMLID_264_" transform="matrix(1 0 0 1 790.6628 396)" fill="#999999" font-family="'ClanOT-News'" font-size="8px">DS-004</text>
	<text id="XMLID_263_" transform="matrix(1 0 0 1 844.6628 396)" fill="#999999" font-family="'ClanOT-News'" font-size="8px">DS-005</text>
	<text id="XMLID_262_" transform="matrix(1 0 0 1 894.6628 396)" fill="#999999" font-family="'ClanOT-News'" font-size="8px">DS-006</text>
	<text id="XMLID_261_" transform="matrix(1 0 0 1 948.6628 396)" fill="#999999" font-family="'ClanOT-News'" font-size="8px">DS-007</text>
	<polyline id="XMLID_260_" fill="none" stroke="#F15F43" stroke-width="1.5" stroke-miterlimit="10" points="652.7,354 703.7,324 
		754.7,334 805.7,294 856.7,304 907.7,274 964.7,294 	"/>
	<circle id="XMLID_259_" fill="#FFFFFF" stroke="#F15F43" stroke-width="1.5" stroke-miterlimit="10" cx="652.7" cy="354" r="4"/>
	<circle id="XMLID_258_" fill="#FFFFFF" stroke="#F15F43" stroke-width="1.5" stroke-miterlimit="10" cx="703.7" cy="324" r="4"/>
	<circle id="XMLID_257_" fill="#FFFFFF" stroke="#F15F43" stroke-width="1.5" stroke-miterlimit="10" cx="754.7" cy="334" r="4"/>
	<circle id="XMLID_256_" fill="#FFFFFF" stroke="#F15F43" stroke-width="1.5" stroke-miterlimit="10" cx="804.7" cy="294" r="4"/>
	<circle id="XMLID_253_" fill="#FFFFFF" stroke="#F15F43" stroke-width="1.5" stroke-miterlimit="10" cx="856.7" cy="304" r="4"/>
	<circle id="XMLID_252_" fill="#FFFFFF" stroke="#F15F43" stroke-width="1.5" stroke-miterlimit="10" cx="907.7" cy="274" r="4"/>
	<circle id="XMLID_251_" fill="#FFFFFF" stroke="#F15F43" stroke-width="1.5" stroke-miterlimit="10" cx="964.7" cy="294" r="4"/>
	<polyline id="XMLID_250_" fill="none" stroke="#999999" stroke-width="1.5" stroke-miterlimit="10" points="652.7,354 703.7,344 
		754.7,314 805.7,314 856.7,334 907.7,324 964.7,314 	"/>
	<circle id="XMLID_249_" fill="#FFFFFF" stroke="#999999" stroke-width="2" stroke-miterlimit="10" cx="652.7" cy="354" r="4"/>
	<circle id="XMLID_248_" fill="#FFFFFF" stroke="#999999" stroke-width="1.5" stroke-miterlimit="10" cx="703.7" cy="344" r="4"/>
	<circle id="XMLID_247_" fill="#FFFFFF" stroke="#999999" stroke-width="1.5" stroke-miterlimit="10" cx="754.7" cy="314" r="4"/>
	<circle id="XMLID_246_" fill="#FFFFFF" stroke="#999999" stroke-width="1.5" stroke-miterlimit="10" cx="805.7" cy="314" r="4"/>
	<circle id="XMLID_245_" fill="#FFFFFF" stroke="#999999" stroke-width="1.5" stroke-miterlimit="10" cx="856.7" cy="334" r="4"/>
	<circle id="XMLID_244_" fill="#FFFFFF" stroke="#999999" stroke-width="1.5" stroke-miterlimit="10" cx="907.7" cy="324" r="4"/>
	<circle id="XMLID_243_" fill="#FFFFFF" stroke="#999999" stroke-width="1.5" stroke-miterlimit="10" cx="964.7" cy="314" r="4"/>
</g>
<g id="XMLID_233_">
	<text id="XMLID_240_" transform="matrix(1 0 0 1 862.2324 421.9984)" fill="#999999" font-family="'ClanOT-News'" font-size="7px">CURRENT OPERATING PERFORMANCE</text>
	<path id="XMLID_238_" fill="#F15F43" d="M854.5,422.5h-3.9c-0.9,0-1.6-0.7-1.6-1.6v-3.9c0-0.9,0.7-1.6,1.6-1.6h3.9
		c0.9,0,1.6,0.7,1.6,1.6v3.9C856.1,421.8,855.4,422.5,854.5,422.5z"/>
	<text id="XMLID_237_" transform="matrix(1 0 0 1 862.7285 439.9984)" fill="#999999" font-family="'ClanOT-News'" font-size="7px">AVERAGE OPERATING PERFORMANCE</text>
	<path id="XMLID_234_" fill="#999999" d="M854.5,440.5h-3.9c-0.9,0-1.6-0.7-1.6-1.6v-3.9c0-0.9,0.7-1.6,1.6-1.6h3.9
		c0.9,0,1.6,0.7,1.6,1.6v3.9C856.1,439.8,855.4,440.5,854.5,440.5z"/>
</g>
<g id="XMLID_208_">
	<polyline id="XMLID_209_" fill="#999999" points="1013.9,217.3 1009.9,221.3 1005.9,217.3 	"/>
</g>
<rect id="XMLID_239_" x="81.3" y="196.6" fill="#FFFFFF" stroke="#E6E6E6" stroke-width="0.5" stroke-miterlimit="10" width="460.3" height="551.2"/>
<g id="XMLID_236_">
	
		<text id="XMLID_47_" transform="matrix(1 0 0 1 102.0366 225.5547)" fill="#808080" font-family="'ClanOT-Medium'" font-size="10px">PHASE COMPLETION UPDATE</text>
</g>
<text id="XMLID_235_" transform="matrix(1 0 0 1 121.0664 263.9984)" fill="#4D4D4D" font-family="'ClanOT-Medium'" font-size="8px">PHASE D-01</text>
<g id="XMLID_210_">
	
		<text id="XMLID_48_" transform="matrix(1 0 0 1 122.0664 422.9984)" fill="#4D4D4D" font-family="'ClanOT-Medium'" font-size="8px">PHASE D-02</text>
</g>
<g id="XMLID_207_">
	
		<text id="XMLID_51_" transform="matrix(1 0 0 1 122.0664 617.9984)" fill="#4D4D4D" font-family="'ClanOT-Medium'" font-size="8px">PHASE D-03</text>
</g>
<g id="XMLID_198_">
	<text id="XMLID_206_" transform="matrix(1 0 0 1 155.7139 282.9984)" fill="#4D4D4D" font-family="'ClanOT-News'" font-size="7px">PHASE D-01 IS AT 60% COMPLETION</text>
	<text id="XMLID_205_" transform="matrix(1 0 0 1 155.7139 299.9984)" fill="#4D4D4D" font-family="'ClanOT-News'" font-size="7px">2.4% INCREASE FROM PREVIOUS QUARTER</text>
	<text id="XMLID_204_" transform="matrix(1 0 0 1 155.7139 316.9984)" fill="#4D4D4D" font-family="'ClanOT-News'" font-size="7px">12 ERROR REPORTS ISSUED DURING PHASE TESTING</text>
	<text id="XMLID_203_" transform="matrix(1 0 0 1 155.7139 333.9984)" fill="#4D4D4D" font-family="'ClanOT-News'" font-size="7px">ALL DOCUMENTED ERROR REPORTS HAVE BEEN FIXED</text>
	
		<rect id="XMLID_202_" x="141.8" y="277.8" fill="none" stroke="#B3B3B3" stroke-width="0.75" stroke-miterlimit="10" width="6" height="6"/>
	
		<rect id="XMLID_201_" x="141.8" y="295" fill="none" stroke="#B3B3B3" stroke-width="0.75" stroke-miterlimit="10" width="6" height="6"/>
	
		<rect id="XMLID_200_" x="141.8" y="312.2" fill="none" stroke="#B3B3B3" stroke-width="0.75" stroke-miterlimit="10" width="6" height="6"/>
	
		<rect id="XMLID_199_" x="141.8" y="328.5" fill="none" stroke="#B3B3B3" stroke-width="0.75" stroke-miterlimit="10" width="6" height="6"/>
</g>
<g id="XMLID_189_">
	<text id="XMLID_197_" transform="matrix(1 0 0 1 155.7139 448.4984)" fill="#4D4D4D" font-family="'ClanOT-News'" font-size="7px">PHASE D-01 IS AT 60% COMPLETION</text>
	<text id="XMLID_196_" transform="matrix(1 0 0 1 155.7139 465.4984)" fill="#4D4D4D" font-family="'ClanOT-News'" font-size="7px">2.4% INCREASE FROM PREVIOUS QUARTER</text>
	<text id="XMLID_195_" transform="matrix(1 0 0 1 155.7139 482.4984)" fill="#4D4D4D" font-family="'ClanOT-News'" font-size="7px">12 ERROR REPORTS ISSUED DURING PHASE TESTING</text>
	<text id="XMLID_194_" transform="matrix(1 0 0 1 155.7139 499.4984)" fill="#4D4D4D" font-family="'ClanOT-News'" font-size="7px">ALL DOCUMENTED ERROR REPORTS HAVE BEEN FIXED</text>
	
		<rect id="XMLID_193_" x="141.8" y="443.2" fill="none" stroke="#B3B3B3" stroke-width="0.75" stroke-miterlimit="10" width="6" height="6"/>
	
		<rect id="XMLID_192_" x="141.8" y="460.5" fill="none" stroke="#B3B3B3" stroke-width="0.75" stroke-miterlimit="10" width="6" height="6"/>
	
		<rect id="XMLID_191_" x="141.8" y="477.8" fill="none" stroke="#B3B3B3" stroke-width="0.75" stroke-miterlimit="10" width="6" height="6"/>
	
		<rect id="XMLID_190_" x="141.8" y="494" fill="none" stroke="#B3B3B3" stroke-width="0.75" stroke-miterlimit="10" width="6" height="6"/>
</g>
<text id="XMLID_187_" transform="matrix(1 0 0 1 155.7139 636.9984)" fill="#4D4D4D" font-family="'ClanOT-News'" font-size="7px">PHASE D-01 IS AT 60% COMPLETION</text>
<text id="XMLID_186_" transform="matrix(1 0 0 1 155.7139 653.9984)" fill="#4D4D4D" font-family="'ClanOT-News'" font-size="7px">2.4% INCREASE FROM PREVIOUS QUARTER</text>
<text id="XMLID_185_" transform="matrix(1 0 0 1 155.7139 670.9984)" fill="#4D4D4D" font-family="'ClanOT-News'" font-size="7px">0 ERROR REPORTS ISSUED DURING PHASE TESTING</text>
<rect id="XMLID_184_" x="141.8" y="631.8" fill="none" stroke="#B3B3B3" stroke-width="0.75" stroke-miterlimit="10" width="6" height="6"/>
<rect id="XMLID_183_" x="141.8" y="649" fill="none" stroke="#B3B3B3" stroke-width="0.75" stroke-miterlimit="10" width="6" height="6"/>
<rect id="XMLID_182_" x="141.8" y="666.2" fill="none" stroke="#B3B3B3" stroke-width="0.75" stroke-miterlimit="10" width="6" height="6"/>
<path id="XMLID_181_" fill="none" stroke="#B3B3B3" stroke-width="0.75" stroke-linecap="round" stroke-linejoin="round" stroke-miterlimit="10" d="
	M494.3,343.7"/>
<g id="XMLID_176_">
	<text id="XMLID_180_" transform="matrix(1 0 0 1 140.6533 720.1427)" fill="#B3B3B3" font-family="'ClanOT-News'" font-size="7px">VIEW DOCUMENTATION</text>
	
		<polyline id="XMLID_179_" fill="none" stroke="#B3B3B3" stroke-linecap="round" stroke-linejoin="round" stroke-miterlimit="10" points="
		230.3,715 232.3,717 230.3,719 	"/>
	
		<path id="XMLID_178_" fill="none" stroke="#B3B3B3" stroke-width="0.75" stroke-linecap="round" stroke-linejoin="round" stroke-miterlimit="10" d="
		M240.3,708.4"/>
	
		<path id="XMLID_177_" fill="none" stroke="#B3B3B3" stroke-width="0.75" stroke-linecap="round" stroke-linejoin="round" stroke-miterlimit="10" d="
		M240.3,724.8"/>
</g>
<g id="XMLID_171_">
	<text id="XMLID_175_" transform="matrix(1 0 0 1 140.6533 543.1427)" fill="#B3B3B3" font-family="'ClanOT-News'" font-size="7px">VIEW DOCUMENTATION</text>
	
		<polyline id="XMLID_174_" fill="none" stroke="#B3B3B3" stroke-linecap="round" stroke-linejoin="round" stroke-miterlimit="10" points="
		230.3,538 232.3,540 230.3,542 	"/>
	
		<path id="XMLID_173_" fill="none" stroke="#B3B3B3" stroke-width="0.75" stroke-linecap="round" stroke-linejoin="round" stroke-miterlimit="10" d="
		M240.3,531.4"/>
	
		<path id="XMLID_172_" fill="none" stroke="#B3B3B3" stroke-width="0.75" stroke-linecap="round" stroke-linejoin="round" stroke-miterlimit="10" d="
		M240.3,547.8"/>
</g>
<g id="XMLID_166_">
	<text id="XMLID_170_" transform="matrix(1 0 0 1 140.6533 366.1427)" fill="#B3B3B3" font-family="'ClanOT-News'" font-size="7px">VIEW DOCUMENTATION</text>
	
		<polyline id="XMLID_169_" fill="none" stroke="#B3B3B3" stroke-linecap="round" stroke-linejoin="round" stroke-miterlimit="10" points="
		230.3,361 232.3,363 230.3,365 	"/>
	
		<path id="XMLID_168_" fill="none" stroke="#B3B3B3" stroke-width="0.75" stroke-linecap="round" stroke-linejoin="round" stroke-miterlimit="10" d="
		M240.3,354.4"/>
	
		<path id="XMLID_167_" fill="none" stroke="#B3B3B3" stroke-width="0.75" stroke-linecap="round" stroke-linejoin="round" stroke-miterlimit="10" d="
		M240.3,370.8"/>
</g>
<g id="XMLID_164_">
	<polyline id="XMLID_165_" fill="#999999" points="521.5,217.3 517.4,221.3 513.4,217.3 	"/>
</g>
<line id="XMLID_163_" opacity="0.5" fill="none" stroke="#E5E5E5" stroke-miterlimit="10" x1="94" y1="389" x2="530" y2="389"/>
<line id="XMLID_162_" opacity="0.5" fill="none" stroke="#E5E5E5" stroke-miterlimit="10" x1="94" y1="574" x2="530" y2="574"/>
<g id="XMLID_158_">
	<circle id="XMLID_161_" fill="none" stroke="#E6E6E6" stroke-width="5" stroke-miterlimit="10" cx="440.7" cy="305.9" r="34"/>
	<path id="XMLID_160_" fill="none" stroke="#F15F43" stroke-width="5" stroke-miterlimit="10" d="M440.7,271.9c18.8,0,34,15.2,34,34
		s-15.2,34-34,34c-10.5,0-19.9-4.8-26.2-12.3"/>
	
		<text id="XMLID_159_" transform="matrix(1 0 0 1 422.6709 312.3896)" fill="#808080" font-family="'ClanOT-Book'" font-size="18.4783px">60%</text>
</g>
<g id="XMLID_134_">
	<circle id="XMLID_138_" fill="none" stroke="#E6E6E6" stroke-width="5" stroke-miterlimit="10" cx="440.7" cy="469.9" r="34"/>
	<path id="XMLID_137_" fill="none" stroke="#F15F43" stroke-width="5" stroke-miterlimit="10" d="M440.7,435.9c18.8,0,34,15.2,34,34
		c0,10.6-4.9,20.1-12.5,26.3"/>
	
		<text id="XMLID_135_" transform="matrix(1 0 0 1 422.6709 476.3896)" fill="#808080" font-family="'ClanOT-Book'" font-size="18.4783px">35%</text>
</g>
<g id="XMLID_114_">
	<circle id="XMLID_132_" fill="none" stroke="#E6E6E6" stroke-width="5" stroke-miterlimit="10" cx="440.7" cy="652.9" r="34"/>
	<path id="XMLID_131_" fill="none" stroke="#F15F43" stroke-width="5" stroke-miterlimit="10" d="M440.7,618.9c18.8,0,34,15.2,34,34
		c0,18.8-15.2,34-34,34s-34-15.2-34-34c0-9.8,4.2-18.7,10.8-24.9"/>
	
		<text id="XMLID_121_" transform="matrix(1 0 0 1 422.6709 659.3896)" fill="#808080" font-family="'ClanOT-Book'" font-size="18.4783px">82%</text>
</g>
<g id="XMLID_130_">
	<text id="XMLID_57_" transform="matrix(1 0 0 1 356.2539 55.9289)" fill="#999999" font-family="'ClanOT-Medium'" font-size="7px">OTTAWA</text>
</g>
<g id="XMLID_123_">
	<path id="XMLID_127_" fill="#B3B3B3" d="M341.2,59.1c-0.2,0-0.4-0.1-0.6-0.2c-1.9-1.4-3.3-3.5-3.8-5.8l-0.1-0.3l0,0
		c0-0.2,0-0.4,0-0.6c0-2.5,2-4.5,4.5-4.5c2.5,0,4.5,2,4.5,4.5c0,0.2,0,0.5-0.1,0.7l0,0l-0.1,0.3c-0.5,2.3-1.8,4.3-3.7,5.7l-0.2,0.1
		C341.5,59.1,341.3,59.1,341.2,59.1z M337.4,53.2c0.5,2.1,1.7,3.9,3.5,5.2c0.1,0.1,0.3,0.1,0.4,0l0.1-0.1c1.7-1.3,2.9-3.1,3.4-5.1
		l0-0.2c0.1-0.3,0.1-0.6,0.1-0.9c0-2.1-1.7-3.9-3.9-3.9c-2.1,0-3.9,1.7-3.9,3.9c0,0.3,0,0.6,0.1,0.8L337.4,53.2z"/>
	<path id="XMLID_124_" fill="#B3B3B3" d="M341.1,54.1c-1.1,0-1.9-0.9-1.9-1.9c0-1.1,0.9-1.9,1.9-1.9c1.1,0,1.9,0.9,1.9,1.9
		C343.1,53.2,342.2,54.1,341.1,54.1z M341.1,50.9c-0.7,0-1.3,0.6-1.3,1.3c0,0.7,0.6,1.3,1.3,1.3c0.7,0,1.3-0.6,1.3-1.3
		C342.4,51.5,341.8,50.9,341.1,50.9z"/>
</g>
<g id="XMLID_120_">
	<text id="XMLID_59_" transform="matrix(1 0 0 1 75.9014 56.3359)" fill="#999999" font-family="'ClanOT-Medium'" font-size="7px">8:23</text>
</g>
<g id="XMLID_115_">
	<path id="XMLID_117_" fill="#B3B3B3" d="M56.8,60c-1.7,0-3.4-0.7-4.6-1.9c-1.2-1.2-1.9-2.9-1.9-4.6c0-1.7,0.7-3.4,1.9-4.6
		c1.2-1.2,2.9-1.9,4.6-1.9c1.7,0,3.4,0.7,4.6,1.9c1.2,1.2,1.9,2.9,1.9,4.6c0,1.7-0.7,3.4-1.9,4.6C60.2,59.3,58.6,60,56.8,60z
		 M56.8,47.8c-1.5,0-2.9,0.6-4,1.7c-1.1,1.1-1.7,2.5-1.7,4c0,1.5,0.6,2.9,1.7,4c1.1,1.1,2.5,1.7,4,1.7c1.5,0,2.9-0.6,4-1.7
		c1.1-1.1,1.7-2.5,1.7-4c0-1.5-0.6-2.9-1.7-4C59.8,48.4,58.3,47.8,56.8,47.8z"/>
	<polygon id="XMLID_116_" fill="#B3B3B3" points="58.3,55.6 56.4,53.7 56.4,48.7 57.2,48.7 57.2,53.3 58.9,55 	"/>
</g>
<g id="XMLID_112_">
	<text id="XMLID_62_" transform="matrix(1 0 0 1 186.3711 57.6098)" fill="#999999" font-family="'ClanOT-Medium'" font-size="7px">MONDAY MARCH 9  2015</text>
</g>
<g id="XMLID_103_">
	<polygon id="XMLID_111_" fill="#B3B3B3" points="170.7,58.3 157.7,58.3 157.7,47.8 159.9,47.8 159.9,48.6 158.5,48.6 158.5,57.5 
		170,57.5 170,48.6 168.9,48.6 168.9,47.8 170.7,47.8 	"/>
	<path id="XMLID_108_" fill="#B3B3B3" d="M162.8,49.3h-2.4v-2.6h2.4V49.3z M161.1,48.6h0.9v-1.1h-0.9V48.6z"/>
	<path id="XMLID_105_" fill="#B3B3B3" d="M167.8,49.3h-2.4v-2.6h2.4V49.3z M166.2,48.6h0.9v-1.1h-0.9V48.6z"/>
	<rect id="XMLID_104_" x="158.1" y="50.2" fill="#B3B3B3" width="12.1" height="0.8"/>
</g>
<line id="XMLID_102_" fill="none" stroke="#E6E6E6" stroke-miterlimit="10" x1="126.5" y1="36" x2="126.5" y2="68"/>
<line id="XMLID_101_" fill="none" stroke="#E6E6E6" stroke-miterlimit="10" x1="313.5" y1="36" x2="313.5" y2="68"/>
<line id="XMLID_100_" fill="none" stroke="#E5E5E5" stroke-miterlimit="10" x1="23.7" y1="76" x2="1079" y2="76"/>
<text id="XMLID_99_" transform="matrix(1 0 0 1 981.0366 57.5548)" fill="#808080" font-family="'ClanOT-News'" font-size="9px">SEARCH</text>
<path id="XMLID_95_" fill="#B3B3B3" d="M959,53.7c-0.2-0.2-0.4-0.2-0.6,0l-0.3,0.3l-0.8-0.8c0.7-0.8,1.1-1.8,1.1-2.9
	c0-2.5-2.1-4.6-4.6-4.6c-2.5,0-4.6,2.1-4.6,4.6c0,2.5,2.1,4.6,4.6,4.6c1.1,0,2.1-0.4,2.9-1.1l0.8,0.8l-0.3,0.3
	c-0.2,0.2-0.2,0.4,0,0.6l3.9,3.9c0.1,0.1,0.2,0.1,0.3,0.1s0.2,0,0.3-0.1l1.3-1.3c0.2-0.2,0.2-0.4,0-0.6L959,53.7z M950,50.3
	c0-2.1,1.7-3.7,3.7-3.7c2.1,0,3.7,1.7,3.7,3.7c0,2.1-1.7,3.7-3.7,3.7C951.6,54,950,52.3,950,50.3z M961.4,58.6l-3.3-3.3l0.7-0.7
	l3.3,3.3L961.4,58.6z"/>
<g id="TabHEADER_1_">
	<rect id="XMLID_65_" x="0" y="-1" fill="#191919" width="1280" height="22.2"/>
</g>
<g id="XMLID_9_">
	<g id="XMLID_61_">
		<path id="XMLID_64_" fill="#E76D6B" d="M20.6,9.7c0,1-0.3,1.9-0.9,2.6l-5.8-5.8c0.7-0.6,1.6-0.9,2.6-0.9
			C18.8,5.6,20.6,7.4,20.6,9.7z"/>
		<path id="XMLID_63_" fill="#CB605E" d="M19.7,12.3c-0.8,0.9-1.9,1.5-3.2,1.5c-2.3,0-4.1-1.8-4.1-4.1c0-1.3,0.6-2.4,1.5-3.2
			L19.7,12.3z"/>
	</g>
	<g id="XMLID_26_">
		<circle id="XMLID_36_" fill="#DFBC43" cx="29.9" cy="9.7" r="4.1"/>
		<path id="XMLID_34_" fill="#C4A53B" d="M33.1,12.3c-0.8,0.9-1.9,1.5-3.2,1.5c-2.3,0-4.1-1.8-4.1-4.1c0-1.3,0.6-2.4,1.5-3.2
			L33.1,12.3z"/>
	</g>
	<g id="XMLID_21_">
		<circle id="XMLID_24_" fill="#36D488" cx="43.3" cy="9.7" r="4.1"/>
		<path id="XMLID_23_" fill="#2FBA77" d="M46.4,12.3c-0.8,0.9-1.9,1.5-3.2,1.5c-2.3,0-4.1-1.8-4.1-4.1c0-1.3,0.6-2.4,1.5-3.2
			L46.4,12.3z"/>
	</g>
</g>
</svg>
