<?xml version="1.0" encoding="utf-8"?>
<!-- Generator: Adobe Illustrator 19.0.0, SVG Export Plug-In . SVG Version: 6.00 Build 0)  -->
<!DOCTYPE svg PUBLIC "-//W3C//DTD SVG 1.1//EN" "http://www.w3.org/Graphics/SVG/1.1/DTD/svg11.dtd">
<svg version="1.1" id="Layer_1" xmlns="http://www.w3.org/2000/svg" xmlns:xlink="http://www.w3.org/1999/xlink" x="0px" y="0px"
	 viewBox="0 0 100 100" enable-background="new 0 0 100 100" xml:space="preserve">
<circle id="XMLID_6_" fill="none" stroke="#003A70" stroke-width="2" stroke-miterlimit="10" cx="50" cy="50" r="47.3"/>
<circle id="XMLID_17_" fill="#003A70" cx="-113.8" cy="50" r="47.3"/>
<g id="XMLID_13_">
	
		<line id="XMLID_11_" fill="none" stroke="#A7A9AC" stroke-width="2" stroke-miterlimit="10" x1="53.1" y1="50.5" x2="57.1" y2="54.4"/>
	
		<rect id="XMLID_10_" x="61.2" y="51.3" transform="matrix(-0.7071 0.7071 -0.7071 -0.7071 153.9707 60.0146)" fill="none" stroke="#A7A9AC" stroke-width="2" stroke-miterlimit="10" width="6.7" height="21.2"/>
	<polygon id="XMLID_9_" fill="none" stroke="#A7A9AC" stroke-width="2" stroke-miterlimit="10" points="34.2,36.3 38.9,31.5 
		31.1,26.8 29.5,28.4 	"/>
	
		<line id="XMLID_8_" fill="none" stroke="#A7A9AC" stroke-width="2" stroke-miterlimit="10" x1="46.8" y1="44.2" x2="36.6" y2="33.9"/>
	<path id="XMLID_7_" fill="none" stroke="#A7A9AC" stroke-width="2" stroke-miterlimit="10" d="M70.5,33.5l-6.3,3L61,33.2l2.8-6.4
		l0,0c-7.9,0-9.9,3.9-9.9,7.8v3.2L27.5,64.7l-1.4,4.7l1.7,1.6l4.8-1.2l26.8-26.4h3.2C66.5,43.4,70.5,41.4,70.5,33.5L70.5,33.5z"/>
</g>
<path id="XMLID_19_" fill="none" stroke="#FFFFFF" stroke-width="2.3605" stroke-miterlimit="10" d="M-124.7,60.5
	c-5.9-3.6-9.8-10.1-9.8-17.6c0-11.4,9.2-20.6,20.6-20.6s20.6,9.2,20.6,20.6c0,7.6-4.1,14.2-10.1,17.8"/>
<polyline id="XMLID_21_" fill="none" stroke="#FFFFFF" stroke-width="2.3605" stroke-miterlimit="10" points="-103.2,60.2 
	-103.2,65.9 -124.5,65.9 -124.5,60.2 "/>
<rect id="XMLID_20_" x="-122.4" y="65.9" fill="none" stroke="#FFFFFF" stroke-width="2.3605" stroke-miterlimit="10" width="17.2" height="5.7"/>
<line id="XMLID_12_" fill="none" stroke="#FFFFFF" stroke-width="2.3605" stroke-miterlimit="10" x1="-124.7" y1="60.5" x2="-103.3" y2="60.5"/>
<polygon id="XMLID_18_" fill="none" stroke="#FFFFFF" stroke-width="2.3605" stroke-miterlimit="10" points="-107.4,75.6 -113.6,78 
	-119.8,75.6 -119.8,71.6 -107.4,71.6 "/>
</svg>
