<?xml version="1.0" encoding="utf-8"?>
<!-- Generator: Adobe Illustrator 19.0.0, SVG Export Plug-In . SVG Version: 6.00 Build 0)  -->
<!DOCTYPE svg PUBLIC "-//W3C//DTD SVG 1.1//EN" "http://www.w3.org/Graphics/SVG/1.1/DTD/svg11.dtd">
<svg version="1.1" id="Layer_1" xmlns="http://www.w3.org/2000/svg" xmlns:xlink="http://www.w3.org/1999/xlink" x="0px" y="0px"
	 viewBox="0 0 100 100" enable-background="new 0 0 100 100" xml:space="preserve">
<circle id="XMLID_6_" fill="none" stroke="#003A70" stroke-width="2" stroke-miterlimit="10" cx="213.8" cy="50" r="47.3"/>
<circle id="XMLID_17_" fill="none" stroke="#003A70" stroke-width="2" stroke-miterlimit="10" cx="50" cy="50" r="47.3"/>
<g id="XMLID_13_">
	
		<line id="XMLID_11_" fill="none" stroke="#A7A9AC" stroke-width="2" stroke-miterlimit="10" x1="217" y1="50.5" x2="220.9" y2="54.4"/>
	
		<rect id="XMLID_10_" x="225" y="51.3" transform="matrix(-0.7071 0.7071 -0.7071 -0.7071 433.6486 -55.8317)" fill="none" stroke="#A7A9AC" stroke-width="2" stroke-miterlimit="10" width="6.7" height="21.2"/>
	<polygon id="XMLID_9_" fill="none" stroke="#A7A9AC" stroke-width="2" stroke-miterlimit="10" points="198,36.3 202.8,31.5 
		194.9,26.8 193.3,28.4 	"/>
	
		<line id="XMLID_8_" fill="none" stroke="#A7A9AC" stroke-width="2" stroke-miterlimit="10" x1="210.7" y1="44.2" x2="200.4" y2="33.9"/>
	<path id="XMLID_7_" fill="none" stroke="#A7A9AC" stroke-width="2" stroke-miterlimit="10" d="M234.3,33.5l-6.3,3l-3.2-3.3l2.8-6.4
		l0,0c-7.9,0-9.9,3.9-9.9,7.8v3.2l-26.4,26.8l-1.4,4.7l1.7,1.6l4.8-1.2l26.8-26.4h3.2C230.4,43.4,234.3,41.4,234.3,33.5L234.3,33.5z
		"/>
</g>
<path id="XMLID_19_" fill="none" stroke="#A7A9AC" stroke-width="2" stroke-miterlimit="10" d="M39.2,60.5
	c-5.9-3.6-9.8-10.1-9.8-17.6c0-11.4,9.2-20.6,20.6-20.6S70.6,31.6,70.6,43c0,7.6-4.1,14.2-10.1,17.8"/>
<polyline id="XMLID_21_" fill="none" stroke="#A7A9AC" stroke-width="2" stroke-miterlimit="10" points="60.6,60.2 60.6,65.9 
	39.4,65.9 39.4,60.2 "/>
<rect id="XMLID_20_" x="41.4" y="65.9" fill="none" stroke="#A7A9AC" stroke-width="2" stroke-miterlimit="10" width="17.2" height="5.7"/>
<line id="XMLID_12_" fill="none" stroke="#A7A9AC" stroke-width="2" stroke-miterlimit="10" x1="39.2" y1="60.5" x2="60.5" y2="60.5"/>
<polygon id="XMLID_18_" fill="none" stroke="#A7A9AC" stroke-width="2" stroke-miterlimit="10" points="56.5,75.6 50.3,78 
	44.1,75.6 44.1,71.6 56.5,71.6 "/>
</svg>
