<?xml version="1.0" encoding="utf-8"?>
<!-- Generator: Adobe Illustrator 19.0.0, SVG Export Plug-In . SVG Version: 6.00 Build 0)  -->
<!DOCTYPE svg PUBLIC "-//W3C//DTD SVG 1.1//EN" "http://www.w3.org/Graphics/SVG/1.1/DTD/svg11.dtd">
<svg version="1.1" id="Layer_1" xmlns="http://www.w3.org/2000/svg" xmlns:xlink="http://www.w3.org/1999/xlink" x="0px" y="0px"
	 viewBox="0 0 38.5 38.1" enable-background="new 0 0 38.5 38.1" xml:space="preserve">
<g id="XMLID_73_">
	<g id="XMLID_88_">
		<path id="XMLID_89_" fill="#003A70" d="M30.4,1.4H8.5C4.9,1.4,1.9,4.4,1.9,8v21.9c0,3.6,2.9,6.6,6.6,6.6h21.9
			c3.6,0,6.6-2.9,6.6-6.6V8C36.9,4.4,34,1.4,30.4,1.4z M15.1,27.4h-4.4V12.1h4.4V27.4z M13,11.2c-1.1,0-2-0.9-2-2.1S11.9,7,13,7
			c1.1,0,2.1,0.9,2.1,2.1C15.1,10.2,14.2,11.2,13,11.2z M30.4,27.4H26v-9.5c0-1.1-0.3-1.9-1.7-1.9c-2.3,0-2.7,1.9-2.7,1.9v9.5h-4.4
			V12.1h4.4v1.5c0.6-0.5,2.2-1.5,4.4-1.5c1.4,0,4.4,0.8,4.4,6V27.4z"/>
	</g>
</g>
</svg>
