<?xml version="1.0" encoding="utf-8"?>
<!-- Generator: Adobe Illustrator 19.0.0, SVG Export Plug-In . SVG Version: 6.00 Build 0)  -->
<!DOCTYPE svg PUBLIC "-//W3C//DTD SVG 1.1//EN" "http://www.w3.org/Graphics/SVG/1.1/DTD/svg11.dtd">
<svg version="1.1" id="Layer_1" xmlns="http://www.w3.org/2000/svg" xmlns:xlink="http://www.w3.org/1999/xlink" x="0px" y="0px"
	 viewBox="0 0 200 65" enable-background="new 0 0 200 65" xml:space="preserve">
<g id="XMLID_1063_">
	<path id="XMLID_1807_" opacity="0.25" fill="#929497" d="M165.8,28.8l-4.3-3.2c-0.8-0.6-1.7-1.2-2.8-1.8c-1.5-0.9-3.2-1.8-5.3-2.8
		c-0.2-0.1-0.4-0.2-0.6-0.3c-1.2-0.6-2.4-1.2-3.7-1.4c-0.8-0.1-1.7-0.2-2.5-0.3l-0.1,0c-0.1,0-0.3,0-0.5,0c-0.5,0-1,0-1.3-0.3
		c-0.4-0.2-0.7-0.5-1.1-0.7l-0.5-0.4c-0.7-0.5-1.3-0.8-2.1-1c-0.4-0.1-0.8-0.2-1.1-0.3c-1-0.2-2-0.3-3-0.3c-1.2,0-2.1-0.1-3.1-0.9
		c-0.8-0.6-1.6-1.1-2.3-1.6c-0.7-0.4-1.3-0.9-2-1.4c-0.6-0.4-1.1-0.8-1.7-1.2c-0.3-0.2-0.6-0.5-0.9-0.6c-0.9-1.1-1.9-1.6-2.9-1.6
		c-1.2,0-1.9,0.8-1.9,0.8c-1,1-2.1,1.5-3.1,1.5c-0.7,0-1.1-0.3-1.1-0.3l-6.3-5.5c-0.9-1.2-1.8-1.8-2.7-1.8c-1.2,0-1.9,1.3-1.9,1.3
		c-0.5,0.7-1,1.1-1.5,1.1c-0.4,0-0.6-0.3-0.6-0.3L103.1,4c-0.6-0.7-1.2-1.1-1.9-1.1c-1.1,0-1.7,1.1-1.8,1.3l-4.4,4.4
		c-0.9,1.3-1.9,2-2.8,2c-1,0-1.7-0.8-1.7-0.8c0,0,0,0,0,0L80.6,3C79,1.7,77.5,1,76,1c-1.4,0-2.1,0.6-2.1,0.6l-0.3,0.2
		c-0.2,0.1-0.4,0.2-0.6,0.4c-0.9,0.6-1.8,1.2-2.8,1.7l-0.7,0.4c-0.1,0.1-0.3,0.2-0.4,0.3c-0.4,0.2-0.7,0.5-1.1,0.6
		c-0.2,0.1-0.4,0.1-0.6,0.2c-0.7,0.3-1.5,0.6-2,1.1c-0.3,0.3-0.5,0.7-0.7,1c-0.1,0.1-0.2,0.3-0.3,0.4C62.2,11.7,52.5,15,52.4,15
		c-7.3,2.1-20.3,11.6-20.5,11.7l-4.6,4.4c-0.1,0.1-0.1,0.2,0,0.3c0,0.1,0.1,0.1,0.2,0.1c0,0,0.1,0,0.1,0l2.3-0.9
		c2.6-1.7,0.5-0.4,3.3-2.3c2.2-1.5,4.8-2.6,7.3-3.7c0.5-0.2,1-0.4,1.5-0.7c2.9-1.8,14-6.2,14.1-6.2c7.4-2,16.8-8.8,17-8.9
		c1.8-2,3.6-2.4,4.9-2.4c1.3,0,2.2,0.4,2.2,0.4c1.6,0.6,11.3,7.2,11.3,7.3c0.8,0.7,1.6,1.1,2.4,1.1c1.3,0,2.3-0.9,2.3-1l2-1.7
		c0.8-1,1.8-2,2.9-3.2c1-1.1,1.9-1.2,3.3-0.5c0.6,0.3,1.1,0.6,1.2,0.9c0.4,0.6,0.9,0.9,1.5,0.9c0.9,0,1.7-0.6,1.8-0.7c0,0,0,0,0-0.1
		c0.7-1,1.4-1.2,1.7-1.2c0.2,0,0.3,0,0.4,0.1c1.8,0.3,6,4.7,6,4.7c0.9,1,2,1.5,3.3,1.5c1.5,0,2.6-0.6,2.7-0.6
		c0.3-0.2,0.6-0.3,0.8-0.5c0.6-0.4,1.1-0.8,1.8-0.7c0.6,0,1.1,0.5,1.6,1.1c0.3,0.3,0.5,0.5,0.8,0.7c0.7,0.5,1.4,0.9,2.1,1.3l0.2,0.1
		c0.8,0.4,1.6,0.8,2.4,1.2c0.7,0.4,1.2,0.9,1.9,1.3c1.3,0.8,2.9,1.1,4.4,1.2c1.5,0.1,3.4-0.1,4.6,0.9c0.6,0.5,1.4,0.9,2.2,1.1
		c1.1,0.4,2.5,0.5,3.8,0.4c0.8,0,1.5-0.3,2.3-0.1c1.4,0.4,2.8,1.3,4.1,2c0.6,0.3,1.2,0.6,1.8,0.9c0.1,0.1,0.2,0.1,0.3,0.2l0.4,0.3
		c0.6,0.4,1.2,0.8,1.9,1.2c0.9,0.5,1.6,0.8,2.5,1.1l2.4,1c0.1,0,0.2,0,0.3-0.1C166,29,165.9,28.9,165.8,28.8z"/>
	<g id="XMLID_1758_">
		<path id="XMLID_1804_" fill="#FFFFFF" d="M3.6,24.2c1.1-0.2,2.5-0.3,3.6-0.3c1.1,0,2.9,0.2,4,1.4c0.7,0.8,1,2,1,2.9
			c0,2.4-1.2,4.2-2.3,5.1c-1.2,0.9-2.8,1.3-4.2,1.3c-0.2,0-0.4,0-0.6,0L4,40.2H0.6L3.6,24.2z M5.7,31.6c0.1,0,0.3,0,0.4,0
			c2.1,0,2.5-2,2.5-3.3c0-0.9-0.5-1.6-1.4-1.6c-0.3,0-0.5,0-0.6,0L5.7,31.6z"/>
		<path id="XMLID_1801_" fill="#FFFFFF" d="M11.4,40.2l2.3-11.8h3.5L15,40.2H11.4z M15.9,26.9c-1.3,0-1.8-0.9-1.8-2
			c0-1.1,0.8-2.4,2.2-2.4c1.3,0,1.9,0.9,1.9,2C18.1,26,17.1,26.9,15.9,26.9L15.9,26.9z"/>
		<path id="XMLID_1799_" fill="#FFFFFF" d="M23.7,25.2l-0.6,3.2h2.2l-0.5,2.5h-2.2l-0.9,4.9c0,0.3-0.1,0.6-0.1,0.8c0,0.8,0.4,1,1,1
			c0.2,0,0.5,0,0.9,0l-0.5,2.6c-0.6,0.2-1.4,0.2-2,0.2c-2,0-3-1.1-3-2.9c0-0.6,0.1-1.3,0.2-1.7l0.9-4.9h-1.3l0.5-2.5h1.4l0.4-2.1
			L23.7,25.2z"/>
		<path id="XMLID_1797_" fill="#FFFFFF" d="M30.4,25.2l-0.6,3.2H32l-0.5,2.5h-2.2l-0.9,4.9c0,0.3-0.1,0.6-0.1,0.8c0,0.8,0.4,1,1,1
			c0.2,0,0.5,0,0.9,0l-0.5,2.6c-0.6,0.2-1.4,0.2-2,0.2c-2,0-3-1.1-3-2.9c0-0.6,0.1-1.3,0.2-1.7l0.9-4.9h-1.3l0.5-2.5h1.4l0.4-2.1
			L30.4,25.2z"/>
		<path id="XMLID_1795_" fill="#FFFFFF" d="M44.8,40.2l0.7-5.1c0.2-1.3,0.5-3.2,0.9-5.5h-0.1c-0.7,2.3-1.5,4.3-2,5.3l-2.1,5h-2.6
			l-0.1-5c0-1-0.1-3,0-5.3h0c-0.4,2.3-0.9,4.2-1.2,5.5l-1.2,5.1h-3L38.2,24H42l0.2,7c0,1.2,0.1,3.1,0,4.2h0c0.3-1.1,0.9-3,1.4-4.2
			l2.7-7H50l-2.1,16.2H44.8z"/>
		<path id="XMLID_1792_" fill="#FFFFFF" d="M58.3,39.7c-1.1,0.4-2.2,0.6-3.7,0.6c-3.1,0-4.3-1.9-4.3-4.5c0-3.5,1.9-7.6,5.9-7.6
			c2.4,0,3.4,1.7,3.4,3.5c0,3.4-2.6,4.6-5.9,4.4c0,0.3,0.1,0.6,0.4,0.9c0.3,0.3,0.8,0.6,1.6,0.6c1,0,1.7-0.2,2.5-0.6L58.3,39.7z
			 M56.5,31.9c0-0.6-0.2-1-0.8-1c-0.9,0-1.6,1.1-1.8,2.4C55.4,33.5,56.5,32.9,56.5,31.9L56.5,31.9z"/>
		<path id="XMLID_1789_" fill="#FFFFFF" d="M65.6,40.2c0-0.6,0-1.2,0.1-1.9h-0.1c-0.8,1.4-2,2.1-3,2.1c-1.9,0-2.7-1.6-2.7-3.6
			c0-3.6,1.7-8.6,7-8.6c1.3,0,2.7,0.2,3.5,0.5l-1.3,6.5c-0.3,1.3-0.5,3.7-0.5,5H65.6z M66.5,30.8c-0.2,0-0.5-0.1-0.6-0.1
			c-1.7,0-2.6,3.8-2.6,5.2c0,0.8,0.1,1.5,0.8,1.5c0.6,0,1.2-0.9,1.6-3L66.5,30.8z"/>
		<path id="XMLID_1786_" fill="#FFFFFF" d="M82,23.6l-2.4,12.8c-0.2,1.2-0.4,2.5-0.6,3.8h-2.9l0.1-1.7h0c-0.7,1.2-1.9,1.9-2.8,1.9
			c-1.8,0-2.8-1.5-2.8-3.7c0-4.2,2.3-8.4,6-8.4c0.4,0,0.7,0.1,1,0.2l0.9-4.8H82z M77.1,31c-0.1-0.1-0.4-0.2-0.6-0.2
			c-1.5,0-2.4,3.4-2.4,5.2c0,0.9,0.2,1.5,0.9,1.5c0.6,0,1-0.8,1.3-1.6L77.1,31z"/>
		<path id="XMLID_1783_" fill="#FFFFFF" d="M85.3,40.3c-3.3,0-3.9-2.5-3.9-4.1c0-4.3,2.4-8.1,6-8.1c3.2,0,3.7,2.6,3.7,4.3
			C91.1,36.4,88.9,40.3,85.3,40.3L85.3,40.3z M85.7,37.7c1.2,0,1.9-3.6,1.9-5.7c0-0.6-0.2-1.1-0.8-1.1c-1,0-2,3.4-1.9,5.3
			C84.9,36.8,84.9,37.7,85.7,37.7L85.7,37.7z"/>
		<path id="XMLID_1781_" fill="#FFFFFF" d="M96.1,28.3L95.7,33c-0.2,1.8-0.2,2.5-0.4,3.9h0.1c0.4-1.3,0.6-2.1,1.2-3.6l2-5h2.7l0,4.9
			c0,1.8-0.1,2.3-0.2,3.6h0.1c0.3-1.3,0.5-2.2,1.1-4l1.5-4.6h3.4l-5.2,11.8h-3.1l-0.1-3.4c0-1.1,0-2.4,0.2-4h-0.1
			c-0.4,1.6-0.9,2.9-1.3,4l-1.4,3.4H93l-0.5-11.8H96.1z"/>
		<path id="XMLID_1779_" fill="#FFFFFF" d="M106.7,37.3c0.5,0.3,1.1,0.5,1.9,0.5c0.7,0,1.1-0.5,1.1-1c0-0.5-0.2-0.9-1.1-1.5
			c-1.1-0.9-1.5-1.9-1.5-2.9c0-2.2,1.8-4.1,4.7-4.1c1.1,0,1.9,0.2,2.4,0.5l-0.7,2.5c-0.3-0.2-0.9-0.4-1.4-0.4
			c-0.8,0-1.4,0.4-1.4,1.1c0,0.5,0.3,0.8,0.8,1.2c1.5,1.1,1.8,2.3,1.8,3.1c0,2.6-1.9,4.2-4.8,4.2c-1.2,0-2.1-0.3-2.6-0.6L106.7,37.3
			z"/>
		<path id="XMLID_1776_" fill="#FFFFFF" d="M120.9,24.2c1.1-0.2,2.5-0.3,3.6-0.3c1.1,0,2.9,0.2,4,1.4c0.7,0.8,1,2,1,2.9
			c0,2.4-1.2,4.2-2.3,5.1c-1.2,0.9-2.8,1.3-4.2,1.3c-0.2,0-0.4,0-0.6,0l-1.1,5.6h-3.5L120.9,24.2z M122.9,31.6c0.1,0,0.3,0,0.4,0
			c2.1,0,2.5-2,2.5-3.3c0-0.9-0.5-1.6-1.4-1.6c-0.3,0-0.5,0-0.6,0L122.9,31.6z"/>
		<path id="XMLID_1774_" fill="#FFFFFF" d="M128.6,40.2l3.2-16.6h3.6l-3.2,16.6H128.6z"/>
		<path id="XMLID_1772_" fill="#FFFFFF" d="M145.4,28.3l-1.5,8c-0.2,1.2-0.4,2.6-0.6,3.8h-3l0.1-1.5l0,0c-0.9,1.2-1.9,1.7-3,1.7
			c-1.6,0-2.3-1.2-2.3-2.9c0-0.8,0.1-1.7,0.3-2.7l1.2-6.5h3.5l-1.2,6.4c-0.1,0.8-0.2,1.4-0.2,1.9c0,0.5,0.2,0.8,0.6,0.8
			c0.6,0,1.2-0.8,1.5-2.3l1.3-6.9H145.4z"/>
		<path id="XMLID_1770_" fill="#FFFFFF" d="M145.3,40.2l1.5-8c0.2-1.2,0.4-2.6,0.6-3.8h3l-0.1,1.5h0c0.8-1.1,1.8-1.7,3.3-1.7
			c1.1,0,1.8,0.7,2,1.7c0.7-1,1.9-1.7,3.3-1.7c1.5,0,2.3,1,2.3,2.7c0,0.5-0.1,1.5-0.3,2.5l-1.3,6.9h-3.5l1.3-6.8
			c0.1-0.7,0.2-1.2,0.2-1.7c0-0.4-0.2-0.7-0.6-0.7c-0.5,0-1.2,0.7-1.7,3l-1.2,6.1h-3.4l1.3-6.8c0.1-0.6,0.2-1.2,0.2-1.6
			c0-0.5-0.1-0.8-0.6-0.8c-0.4,0-1.3,0.8-1.7,3l-1.2,6.1H145.3z"/>
		<path id="XMLID_1767_" fill="#FFFFFF" d="M168.2,23.6l-1.3,6.3h0c0.6-1,1.5-1.7,2.7-1.7c2.2,0,2.5,2.3,2.5,3.4
			c0,4.8-2.6,8.8-6.8,8.8c-2.2,0-3.3-0.9-3.3-2.8c0-0.7,0.1-1.4,0.2-1.8l2.4-12.2H168.2z M165.8,35.6c-0.1,0.4-0.1,0.8-0.1,1.2
			c0,0.6,0.2,1,0.7,1c1.3,0,2.2-3.6,2.2-5.1c0-0.9,0-1.6-0.7-1.6c-0.7,0-1.3,1.1-1.5,2L165.8,35.6z"/>
		<path id="XMLID_1764_" fill="#FFFFFF" d="M172.5,40.2l2.3-11.8h3.5l-2.3,11.8H172.5z M177,26.9c-1.3,0-1.8-0.9-1.8-2
			c0-1.1,0.8-2.4,2.2-2.4c1.3,0,1.9,0.9,1.9,2C179.2,26,178.2,26.9,177,26.9L177,26.9z"/>
		<path id="XMLID_1762_" fill="#FFFFFF" d="M178.1,40.2l1.5-8c0.2-1.2,0.4-2.6,0.6-3.8h3l-0.1,1.4h0c0.8-1,1.9-1.6,3.2-1.6
			c1.8,0,2.4,1.2,2.4,2.7c0,0.7-0.1,1.5-0.3,2.4l-1.3,6.9h-3.5l1.4-7.2c0.1-0.4,0.1-0.7,0.1-1.1c0-0.5-0.2-0.8-0.6-0.8
			c-0.5,0-1.3,0.8-1.8,3l-1.2,6.1H178.1z"/>
		<path id="XMLID_1759_" fill="#FFFFFF" d="M190.1,41.8c0.5,0.3,1.3,0.5,1.9,0.5c1.7,0,2.5-1.1,2.8-2.5l0.2-1.2h0
			c-0.7,1.1-1.6,1.6-2.6,1.6c-1.7,0-2.5-1.7-2.6-3.4c-0.1-3.8,2.3-8.5,6.6-8.5c1.5,0,2.8,0.3,3.7,0.8l-1.9,10
			c-0.4,1.9-1,3.5-2.1,4.6c-1,1-2.5,1.5-4.3,1.5c-0.9,0-2.2-0.2-2.6-0.5L190.1,41.8z M196.3,31c-0.1-0.1-0.3-0.1-0.5-0.1
			c-1.5,0-2.6,3-2.6,4.8c0,0.7,0,1.6,0.8,1.6c0.8,0,1.3-1.4,1.5-2.1L196.3,31z"/>
	</g>
	<g id="XMLID_1064_">
		<path id="XMLID_1754_" fill="#929497" d="M41.8,61.4c-0.2-0.3-0.3-0.5-0.6-1c-0.7,0.7-1.6,1.1-2.5,1.1c-1.6,0-2.5-1.2-2.5-2.6
			c0-1.8,1.2-3,2.5-3.8v0c-0.3-0.6-0.5-1.3-0.5-2.1c0-1.7,1.1-3.1,2.6-3.1c1.4,0,1.9,1.1,1.9,2c0,1.5-1.1,2.5-2.6,3.4v0
			c0.3,0.7,1,2.2,1.6,3.3c0.7-1.2,1.1-2.6,1.3-3.4H44c-0.3,1.4-1.1,3-2,4.3c0.2,0.3,0.4,0.8,1,1.8H41.8z M38.9,60.5
			c0.7,0,1.3-0.3,1.8-1C40,58.2,39.5,57,39,55.9c-0.9,0.6-1.6,1.5-1.6,2.8C37.4,59.8,38.1,60.5,38.9,60.5L38.9,60.5z M40.6,50.8
			c-0.8,0-1.3,1-1.3,2c0,0.8,0.2,1.3,0.4,1.8c1.1-0.7,1.9-1.5,1.9-2.6C41.5,51.2,41.3,50.8,40.6,50.8L40.6,50.8z"/>
		<path id="XMLID_1752_" fill="#929497" d="M53.9,61.4l0.9-6.5c0.1-1,0.3-1.9,0.5-3.1h-0.1c-0.4,1.2-0.8,2.3-1.3,3.2l-2.8,6.2h-0.8
			L50,54.9c0-1-0.1-1.9-0.1-3.1h0c-0.3,1.2-0.4,2.1-0.6,3.1l-1.5,6.5h-1.1L49.4,50h1.3l0.4,6.6c0.1,0.9,0.1,1.7,0.1,2.6h0.1
			c0.3-0.9,0.7-1.7,1-2.6l2.8-6.5h1.4L55,61.4H53.9z"/>
		<path id="XMLID_1749_" fill="#929497" d="M61.1,61c-0.6,0.3-1.2,0.5-1.9,0.5c-1.7,0-2.3-1.3-2.3-2.9c0-2.2,1.2-5.5,3.6-5.5
			c1.2,0,1.7,0.9,1.7,1.8c0,2-1.7,2.8-4,2.8c0,0.2-0.1,1.1,0.1,1.6c0.2,0.7,0.6,1.1,1.2,1.1c0.6,0,1.1-0.2,1.5-0.4L61.1,61z
			 M61.1,55c0-0.6-0.3-0.9-0.7-0.9c-0.7,0-1.5,0.9-1.9,2.7C59.7,56.8,61.1,56.4,61.1,55L61.1,55z"/>
		<path id="XMLID_1747_" fill="#929497" d="M66.2,61.3c-0.3,0.1-0.8,0.2-1.3,0.2c-1.6,0-2.2-1.3-2.2-2.9c0-2.4,1.4-5.5,4.1-5.5
			c0.3,0,0.6,0.1,0.8,0.1l-0.3,1c-0.2-0.1-0.3-0.1-0.6-0.1c-1.7,0-2.7,2.4-2.7,4.3c0,1.2,0.4,2,1.3,2c0.3,0,0.7-0.1,1-0.2L66.2,61.3
			z"/>
		<path id="XMLID_1745_" fill="#929497" d="M67.2,61.4l2.2-11.7h1.2l-0.9,4.6l0,0c0.6-0.8,1.2-1.3,2-1.3c1,0,1.4,0.8,1.4,1.6
			c0,0.4,0,0.8-0.2,1.4l-1,5.3h-1.2l1-5.3c0.1-0.4,0.1-0.7,0.1-1.1c0-0.5-0.2-0.8-0.7-0.8c-0.8,0-1.7,1.2-1.9,2.6l-0.9,4.7H67.2z"/>
		<path id="XMLID_1742_" fill="#929497" d="M77.6,61.4c0-0.5,0.1-0.9,0.1-1.6h0c-0.8,1.4-1.5,1.7-2.1,1.7c-0.9,0-1.5-0.8-1.5-2.3
			c0-2.5,1.3-6.1,4.5-6.1c0.6,0,1.2,0.1,1.5,0.3L79.1,58c-0.2,1.1-0.4,2.4-0.3,3.4H77.6z M78.7,54.2c-0.2,0-0.3-0.1-0.5-0.1
			c-1.8,0-2.8,3-2.9,4.8c0,1,0.2,1.6,0.7,1.6c0.8,0,1.7-1.6,2-3.2L78.7,54.2z"/>
		<path id="XMLID_1740_" fill="#929497" d="M80.2,61.4l1-5.4c0.2-1.2,0.3-2.1,0.4-2.8h1.1l-0.1,1.3h0c0.7-1,1.4-1.4,2.2-1.4
			c1,0,1.4,0.8,1.4,1.6c0,0.5-0.1,0.9-0.2,1.3l-1,5.3h-1.2l1-5.3c0.1-0.4,0.1-0.7,0.1-1.1c0-0.5-0.2-0.8-0.7-0.8
			c-0.8,0-1.7,1.2-2,2.7l-0.9,4.5H80.2z"/>
		<path id="XMLID_1737_" fill="#929497" d="M86.9,61.4l1.6-8.1h1.2l-1.6,8.1H86.9z M89.4,51.8c-0.5,0-0.7-0.3-0.7-0.8
			c0-0.5,0.4-0.9,0.9-0.9c0.5,0,0.7,0.4,0.7,0.8C90.2,51.5,89.8,51.8,89.4,51.8L89.4,51.8z"/>
		<path id="XMLID_1735_" fill="#929497" d="M93.7,61.3c-0.3,0.1-0.8,0.2-1.3,0.2c-1.6,0-2.2-1.3-2.2-2.9c0-2.4,1.4-5.5,4.1-5.5
			c0.3,0,0.6,0.1,0.8,0.1l-0.3,1c-0.2-0.1-0.3-0.1-0.6-0.1c-1.7,0-2.7,2.4-2.7,4.3c0,1.2,0.4,2,1.3,2c0.3,0,0.7-0.1,1-0.2L93.7,61.3
			z"/>
		<path id="XMLID_1732_" fill="#929497" d="M98.3,61.4c0-0.5,0.1-0.9,0.1-1.6h0c-0.8,1.4-1.5,1.7-2.1,1.7c-0.9,0-1.5-0.8-1.5-2.3
			c0-2.5,1.3-6.1,4.5-6.1c0.6,0,1.2,0.1,1.5,0.3L99.7,58c-0.2,1.1-0.4,2.4-0.3,3.4H98.3z M99.3,54.2c-0.2,0-0.3-0.1-0.5-0.1
			c-1.8,0-2.8,3-2.9,4.8c0,1,0.2,1.6,0.7,1.6c0.8,0,1.7-1.6,2-3.2L99.3,54.2z"/>
		<path id="XMLID_1730_" fill="#929497" d="M100.9,61.4l2.2-11.7h1.2l-2.2,11.7H100.9z"/>
		<path id="XMLID_1728_" fill="#929497" d="M106.6,60c0.3,0.2,0.9,0.4,1.5,0.4c1.4,0,2.1-1,2.1-2.2c0-0.9-0.4-1.5-1.2-2.3
			c-0.8-0.8-1.4-1.7-1.4-2.8c0-1.8,1.3-3.2,3.2-3.2c0.7,0,1.2,0.2,1.5,0.4l-0.4,1c-0.3-0.2-0.7-0.3-1.2-0.3c-1.1,0-1.8,0.8-1.8,1.9
			c0,0.8,0.4,1.5,1.2,2.2c0.8,0.7,1.4,1.7,1.4,2.8c0,2.1-1.3,3.5-3.4,3.5c-0.9,0-1.6-0.3-1.8-0.5L106.6,60z"/>
		<path id="XMLID_1726_" fill="#929497" d="M114,53.2l0.3,4.6c0,0.7,0.1,1.2,0.1,2h0c0.2-0.7,0.5-1.3,0.7-2.1l1.7-4.5h1.2l-2.7,6.6
			c-0.8,1.8-1.6,3.3-2.7,4.3c-0.5,0.4-1,0.7-1.3,0.8l-0.5-1c0.4-0.2,0.8-0.4,1.2-0.8c0.5-0.4,1.1-1.2,1.3-1.8
			c0.1-0.2,0.1-0.3,0.1-0.5l-0.7-7.7H114z"/>
		<path id="XMLID_1724_" fill="#929497" d="M117.7,60.1c0.3,0.2,0.7,0.4,1.3,0.4c0.8,0,1.3-0.6,1.3-1.4c0-0.7-0.4-1.2-0.8-1.6
			c-0.6-0.5-1.1-1.2-1.1-2c0-1.4,1-2.5,2.5-2.5c0.5,0,1,0.1,1.3,0.3l-0.3,0.9c-0.2-0.1-0.6-0.3-0.9-0.3c-0.8,0-1.3,0.6-1.3,1.3
			c0,0.6,0.4,1,0.8,1.4c0.6,0.6,1.1,1.3,1.1,2.1c0,1.8-1.1,2.6-2.7,2.6c-0.6,0-1.3-0.2-1.5-0.4L117.7,60.1z"/>
		<path id="XMLID_1709_" fill="#929497" d="M125.7,51.3l-0.4,1.9h1.5l-0.2,0.9h-1.5l-0.9,4.6c-0.1,0.4-0.1,0.8-0.1,1
			c0,0.4,0.2,0.6,0.6,0.6c0.2,0,0.3,0,0.5,0l-0.1,0.9c-0.3,0.1-0.6,0.1-0.9,0.1c-0.9,0-1.4-0.5-1.4-1.3c0-0.3,0-0.7,0.2-1.3l0.9-4.7
			h-1l0.2-0.9h1l0.3-1.4L125.7,51.3z"/>
		<path id="XMLID_1078_" fill="#929497" d="M130.9,61c-0.6,0.3-1.2,0.5-1.9,0.5c-1.7,0-2.3-1.3-2.3-2.9c0-2.2,1.2-5.5,3.6-5.5
			c1.2,0,1.7,0.9,1.7,1.8c0,2-1.7,2.8-4,2.8c0,0.2-0.1,1.1,0.1,1.6c0.2,0.7,0.6,1.1,1.2,1.1c0.6,0,1.1-0.2,1.5-0.4L130.9,61z
			 M130.8,55c0-0.6-0.3-0.9-0.7-0.9c-0.7,0-1.5,0.9-1.9,2.7C129.4,56.8,130.8,56.4,130.8,55L130.8,55z"/>
		<path id="XMLID_1076_" fill="#929497" d="M132.1,61.4l1-5.4c0.2-1.2,0.3-2.1,0.4-2.8h1.1l-0.1,1.3h0c0.6-1,1.4-1.4,2.1-1.4
			c0.9,0,1.3,0.7,1.3,1.4c0.6-1,1.4-1.4,2.2-1.4c0.9,0,1.4,0.7,1.4,1.6c0,0.4-0.1,0.9-0.2,1.5l-1,5.2h-1.2l1-5.2
			c0.1-0.4,0.1-0.8,0.1-1.3c0-0.5-0.2-0.8-0.7-0.8c-0.7,0-1.6,1.1-1.9,2.7l-0.9,4.5h-1.2l1-5.2c0.1-0.4,0.1-0.8,0.1-1.2
			c0-0.5-0.2-0.8-0.7-0.8c-0.7,0-1.6,1.2-1.9,2.7l-0.9,4.5H132.1z"/>
		<path id="XMLID_1074_" fill="#929497" d="M142.1,60.1c0.3,0.2,0.7,0.4,1.3,0.4c0.8,0,1.3-0.6,1.3-1.4c0-0.7-0.4-1.2-0.8-1.6
			c-0.6-0.5-1.1-1.2-1.1-2c0-1.4,1-2.5,2.5-2.5c0.5,0,1,0.1,1.3,0.3l-0.3,0.9c-0.2-0.1-0.6-0.3-0.9-0.3c-0.8,0-1.3,0.6-1.3,1.3
			c0,0.6,0.4,1,0.8,1.4c0.6,0.6,1.1,1.3,1.1,2.1c0,1.8-1.1,2.6-2.7,2.6c-0.6,0-1.3-0.2-1.5-0.4L142.1,60.1z"/>
		<path id="XMLID_1072_" fill="#929497" d="M151.6,50h1.2l-2,10.3h3.1l-0.2,1.1h-4.3L151.6,50z"/>
		<path id="XMLID_1070_" fill="#929497" d="M158,51.3l-0.4,1.9h1.5l-0.2,0.9h-1.5l-0.9,4.6c-0.1,0.4-0.1,0.8-0.1,1
			c0,0.4,0.2,0.6,0.6,0.6c0.2,0,0.3,0,0.5,0l-0.1,0.9c-0.3,0.1-0.6,0.1-0.9,0.1c-0.9,0-1.4-0.5-1.4-1.3c0-0.3,0-0.7,0.2-1.3l0.9-4.7
			h-1l0.2-0.9h1l0.3-1.4L158,51.3z"/>
		<path id="XMLID_1067_" fill="#929497" d="M165.5,49.7l-1.7,8.8c-0.2,0.9-0.3,2.1-0.4,2.9h-1l0.1-1.3h0c-0.4,0.8-1.2,1.4-2,1.4
			c-1,0-1.6-1-1.6-2.4c0-2.8,1.5-6,3.8-6c0.3,0,0.7,0.1,0.9,0.3l0.7-3.7H165.5z M163.4,54.5c-0.1-0.2-0.4-0.4-0.8-0.4
			c-1.6,0-2.5,3.1-2.5,4.7c0,1,0.2,1.6,0.9,1.6c0.6,0,1.4-0.7,1.7-2.3L163.4,54.5z"/>
		<path id="XMLID_1065_" fill="#929497" d="M165.8,61.5c-0.5,0-0.8-0.4-0.8-0.9c0-0.5,0.4-1,0.9-1c0.6,0,0.8,0.4,0.8,0.9
			C166.8,61.1,166.4,61.5,165.8,61.5L165.8,61.5z"/>
	</g>
</g>
</svg>
