<?xml version="1.0" encoding="utf-8"?>
<!-- Generator: Adobe Illustrator 19.0.0, SVG Export Plug-In . SVG Version: 6.00 Build 0)  -->
<!DOCTYPE svg PUBLIC "-//W3C//DTD SVG 1.1//EN" "http://www.w3.org/Graphics/SVG/1.1/DTD/svg11.dtd">
<svg version="1.1" id="Layer_1" xmlns="http://www.w3.org/2000/svg" xmlns:xlink="http://www.w3.org/1999/xlink" x="0px" y="0px"
	 viewBox="25 -24 129 129" enable-background="new 25 -24 129 129" xml:space="preserve">
<g id="XMLID_1330_">
	<rect id="XMLID_1850_" x="25" y="-24" fill="#CF0A2C" width="129" height="129"/>
	<path id="XMLID_1849_" fill="#FFFFFE" d="M37.2,42l0.9-21h4.8l-0.8,8.1c-0.2,2.4-0.5,4.9-0.8,7.4h0.1c0.6-2.5,1.3-4.6,2.2-6.9
		l3.1-8.6h4.2l-0.5,8.1c-0.1,2.3-0.3,4.9-0.6,7.5h0.1c0.6-2.5,1.3-4.9,1.9-7.1l2.4-8.4h4.5l-7.3,21h-4.9v-5c0-2.6,0.2-5.4,0.5-7.5
		h-0.1c-0.7,2.2-1.6,4.9-3.1,8.2L41.9,42H37.2z"/>
	<path id="XMLID_1846_" fill="#FFFFFE" d="M66.3,41.4c-1.5,0.6-2.8,0.8-4.8,0.8c-4,0-5.6-2.5-5.6-5.9c0-4.6,2.5-9.9,7.6-9.9
		c3.1,0,4.4,2.2,4.5,4.5c0,4.4-3.4,6-7.7,5.8c0,0.4,0.1,0.8,0.5,1.2s1,0.7,2,0.7c1.3,0,2.2-0.3,3.3-0.7L66.3,41.4z M64,31.3
		c0-0.8-0.3-1.2-1-1.2c-1.1,0-2,1.4-2.3,3.2C62.6,33.4,64,32.6,64,31.3L64,31.3z"/>
	<path id="XMLID_1722_" fill="#FFFFFE" d="M73.3,37.4c0.7,0.4,1.8,0.7,2.9,0.7c1.5,0.1,2.7-0.7,2.7-2.1c0-1.3-0.7-1.9-2.1-3.2
		c-1.7-1.6-2.5-3.3-2.5-5.1c0-4.2,2.9-7,7.3-7c1.8,0,2.8,0.3,3.3,0.7l-1.2,4c-0.6-0.3-1.3-0.6-2.2-0.6c-1.5,0-2.5,0.9-2.5,2.3
		c0,0.8,0.2,1.4,2,3s2.5,3.4,2.5,5c0,4.6-3.1,7.1-7.2,7.1c-2.3,0-3.7-0.5-4.2-0.8L73.3,37.4z"/>
	<path id="XMLID_1719_" fill="#FFFFFE" d="M92.6,42c0-0.8,0.1-1.6,0.1-2.4h-0.1c-1.1,1.8-2.6,2.7-3.9,2.7c-2.4,0-3.5-2.1-3.5-4.7
		c0-4.6,2.2-11.1,9.1-11.1c1.7,0,3.5,0.3,4.6,0.7l-1.7,8.4c-0.3,1.7-0.6,4.8-0.6,6.5L92.6,42L92.6,42z M93.8,29.9
		c-0.3-0.1-0.6-0.1-0.7-0.1c-2.2,0-3.4,4.9-3.4,6.7c0,1.1,0.1,2,1.1,2c0.8,0,1.6-1.2,2.1-3.9L93.8,29.9z"/>
	<path id="XMLID_1718_" fill="#FFFFFE" d="M104.8,26.7l-0.1,6.9c0,1.5,0,2.6,0,3.6h0.1c0.3-1.2,0.5-2.2,1.1-3.9l2-6.5h4.6l-5,11.9
		c-1.5,3.6-3.3,6.5-5.1,8.3c-0.9,0.9-2,1.6-2.7,1.9l-2-3.9c0.7-0.4,1.4-0.7,1.9-1.2c0.9-0.7,1.6-1.3,1.9-2.1
		c0.1-0.2,0.1-0.3,0.1-0.6L100,26.7H104.8z"/>
	<path id="XMLID_1716_" fill="#FFFFFE" d="M37.2,66.2l0.9-21h4.8l-0.8,8.1c-0.2,2.4-0.5,4.9-0.8,7.4h0.1c0.6-2.5,1.3-4.6,2.2-6.9
		l3.1-8.6h4.2l-0.5,8.1c-0.1,2.3-0.3,4.9-0.6,7.5h0.1c0.6-2.5,1.3-4.9,1.9-7.1l2.4-8.4h4.5l-7.3,21h-4.9v-5c0-2.6,0.2-5.4,0.5-7.5
		h-0.1c-0.7,2.2-1.6,4.9-3.1,8.2l-1.9,4.3L37.2,66.2L37.2,66.2z"/>
	<path id="XMLID_1713_" fill="#FFFFFE" d="M66.3,65.6c-1.5,0.6-2.8,0.8-4.8,0.8c-4,0-5.6-2.5-5.6-5.9c0-4.6,2.5-9.9,7.6-9.9
		c3.1,0,4.4,2.2,4.5,4.5c0,4.4-3.4,6-7.7,5.8c0,0.4,0.1,0.8,0.5,1.2c0.4,0.4,1,0.7,2,0.7c1.3,0,2.2-0.3,3.3-0.7L66.3,65.6z M64,55.6
		c0-0.8-0.3-1.2-1-1.2c-1.1,0-2,1.4-2.3,3.2C62.6,57.6,64,56.8,64,55.6L64,55.6z"/>
	<path id="XMLID_1712_" fill="#FFFFFE" d="M85.8,66.2l0.9-6.6c0.2-1.7,0.7-4.2,1.2-7.2h-0.1c-1,3-2,5.6-2.6,6.9l-2.7,6.5h-3.4
		L79,59.3c0-1.3-0.2-3.9-0.1-6.9h-0.1c-0.6,3-1.1,5.5-1.5,7.2l-1.6,6.6h-3.9l5.4-21h4.9l0.2,9c0,1.5,0.1,4,0,5.4h0.1
		c0.3-1.4,1.2-3.9,1.8-5.4l3.5-9h4.8l-2.7,21H85.8z"/>
	<path id="XMLID_1703_" fill="#FFFFFE" d="M103.2,65.6c-1.5,0.6-2.8,0.8-4.8,0.8c-4,0-5.6-2.5-5.6-5.9c0-4.6,2.5-9.9,7.6-9.9
		c3.1,0,4.4,2.2,4.5,4.5c0,4.4-3.4,6-7.7,5.8c0,0.4,0.1,0.8,0.5,1.2c0.4,0.4,1,0.7,2,0.7c1.3,0,2.2-0.3,3.3-0.7L103.2,65.6z
		 M100.9,55.6c0-0.8-0.3-1.2-1-1.2c-1.1,0-2,1.4-2.3,3.2C99.5,57.6,100.9,56.8,100.9,55.6L100.9,55.6z"/>
	<path id="XMLID_1700_" fill="#FFFFFE" d="M112.7,66.2c0-0.8,0.1-1.6,0.1-2.4h-0.1c-1.1,1.8-2.6,2.7-3.9,2.7c-2.4,0-3.5-2.1-3.5-4.7
		c0-4.6,2.2-11.1,9.1-11.1c1.7,0,3.5,0.3,4.6,0.7l-1.7,8.4c-0.3,1.7-0.6,4.8-0.6,6.5L112.7,66.2L112.7,66.2z M113.9,54.1
		c-0.3-0.1-0.6-0.1-0.8-0.1c-2.2,0-3.4,4.9-3.4,6.7c0,1.1,0.1,2,1.1,2c0.8,0,1.6-1.2,2.1-3.9L113.9,54.1z"/>
	<path id="XMLID_1699_" fill="#FFFFFE" d="M118.6,66.2l2-10.4c0.3-1.6,0.6-3.3,0.8-4.9h3.9l-0.1,1.8h0.1c1-1.2,2.5-2.1,4.1-2.1
		c2.3,0,3.1,1.6,3.1,3.5c0,0.9-0.2,1.9-0.4,3.1l-1.7,9h-4.6l1.8-9.4c0.1-0.5,0.2-0.9,0.2-1.4c0-0.6-0.2-1.1-0.8-1.1
		c-0.7,0-1.7,1-2.3,3.9l-1.5,7.9L118.6,66.2L118.6,66.2z"/>
	<path id="XMLID_1697_" fill="#FFFFFE" d="M37.2,90.4l0.9-21h4.8l-0.8,8.1c-0.2,2.4-0.5,4.9-0.8,7.4h0.1c0.6-2.5,1.3-4.6,2.2-6.9
		l3.1-8.6h4.2l-0.5,8.1c-0.1,2.3-0.3,4.9-0.6,7.5h0.1c0.6-2.5,1.3-4.9,1.9-7.1l2.4-8.4h4.5l-7.3,21h-4.9v-5c0-2.6,0.2-5.4,0.5-7.5
		h-0.1c-0.7,2.2-1.6,4.9-3.1,8.2l-1.9,4.3L37.2,90.4L37.2,90.4z"/>
	<path id="XMLID_1693_" fill="#FFFFFE" d="M66.3,89.8c-1.5,0.6-2.8,0.8-4.8,0.8c-4,0-5.6-2.5-5.6-5.9c0-4.6,2.5-9.9,7.6-9.9
		c3.1,0,4.4,2.2,4.5,4.5c0,4.4-3.4,6-7.7,5.8c0,0.4,0.1,0.8,0.5,1.2c0.4,0.4,1,0.7,2,0.7c1.3,0,2.2-0.3,3.3-0.7L66.3,89.8z M64,79.8
		c0-0.8-0.3-1.2-1-1.2c-1.1,0-2,1.4-2.3,3.2C62.6,81.8,64,81,64,79.8L64,79.8z"/>
	<path id="XMLID_1339_" fill="#FFFFFE" d="M76.7,69.7c1.1-0.2,2.7-0.4,4.4-0.4c2.8,0,4.6,0.8,5.6,2.3c1.2,1.6,1.4,3.4,1.4,4.9
		c0,6.1-2.6,10.5-4.6,12.1c-1.7,1.4-3.6,1.9-6.6,1.9c-1.2,0-3-0.2-4.1-0.4L76.7,69.7z M77.9,86.5c0.2,0.1,0.6,0.2,1,0.2
		c1.2,0,2.6-1.2,3.3-3.1c0.7-2,1.2-4.1,1.2-7.1c0-1.3-0.2-3.5-2.1-3.5c-0.3,0-0.6,0-0.7,0.2L77.9,86.5z"/>
	<path id="XMLID_1333_" fill="#FFFFFE" d="M93.8,90.7c-4.3,0-5.1-3.3-5.1-5.3c0-5.6,3.1-10.5,7.8-10.5c4.2,0,4.8,3.4,4.8,5.5
		C101.3,85.6,98.5,90.7,93.8,90.7L93.8,90.7z M94.3,87.2c1.5,0,2.5-4.6,2.5-7.5c0-0.8-0.2-1.5-1-1.5c-1.3,0-2.6,4.4-2.5,6.9
		C93.2,86,93.2,87.2,94.3,87.2L94.3,87.2z"/>
</g>
</svg>
